<ttFont>
<head>
    <!-- Most of this table will be recalculated by the compiler -->
    <tableVersion value="1.0"/>
    <fontRevision value="1.0"/>
    <checkSumAdjustment value="0x523395e5"/>
    <magicNumber value="0x5f0f3cf5"/>
    <flags value="00000000 00011001"/>
    <unitsPerEm value="1000"/>
    <created value="Thu Jun  9 01:52:59 2011"/>
    <modified value="Tue Jul  5 07:12:05 2011"/>
    <xMin value="-110"/>
    <yMin value="-211"/>
    <xMax value="877"/>
    <yMax value="870"/>
    <macStyle value="00000000 00000000"/>
    <lowestRecPPEM value="9"/>
    <fontDirectionHint value="2"/>
    <indexToLocFormat value="0"/>
    <glyphDataFormat value="0"/>
  </head>
    <TTGlyph name="A" xMin="25" yMin="0" xMax="561" yMax="700">
      <contour>
        <pt x="61" y="218" on="1"/>
        <pt x="61" y="227" on="0"/>
        <pt x="50" y="239" on="0"/>
        <pt x="40" y="239" on="1"/>
        <pt x="31" y="239" on="0"/>
        <pt x="25" y="233" on="1"/>
        <pt x="28" y="248" on="0"/>
        <pt x="47" y="272" on="0"/>
        <pt x="61" y="278" on="1"/>
        <pt x="61" y="589" on="1"/>
        <pt x="61" y="629" on="0"/>
        <pt x="87" y="670" on="0"/>
        <pt x="98" y="678" on="1"/>
        <pt x="112" y="688" on="0"/>
        <pt x="151" y="700" on="0"/>
        <pt x="180" y="700" on="1"/>
        <pt x="407" y="700" on="1"/>
        <pt x="436" y="700" on="0"/>
        <pt x="475" y="688" on="0"/>
        <pt x="489" y="678" on="1"/>
        <pt x="500" y="670" on="0"/>
        <pt x="525" y="628" on="0"/>
        <pt x="525" y="588" on="1"/>
        <pt x="525" y="278" on="1"/>
        <pt x="539" y="272" on="0"/>
        <pt x="558" y="248" on="0"/>
        <pt x="561" y="233" on="1"/>
        <pt x="555" y="239" on="0"/>
        <pt x="546" y="239" on="1"/>
        <pt x="536" y="239" on="0"/>
        <pt x="525" y="227" on="0"/>
        <pt x="525" y="218" on="1"/>
        <pt x="525" y="0" on="1"/>
        <pt x="353" y="0" on="1"/>
        <pt x="353" y="82" on="1"/>
        <pt x="233" y="82" on="1"/>
        <pt x="233" y="0" on="1"/>
        <pt x="61" y="0" on="1"/>
      </contour>
      <contour>
        <pt x="269" y="233" on="1"/>
        <pt x="263" y="239" on="0"/>
        <pt x="254" y="239" on="1"/>
        <pt x="244" y="239" on="0"/>
        <pt x="233" y="227" on="0"/>
        <pt x="233" y="218" on="1"/>
        <pt x="233" y="182" on="1"/>
        <pt x="353" y="182" on="1"/>
        <pt x="353" y="218" on="1"/>
        <pt x="353" y="227" on="0"/>
        <pt x="342" y="239" on="0"/>
        <pt x="332" y="239" on="1"/>
        <pt x="323" y="239" on="0"/>
        <pt x="317" y="233" on="1"/>
        <pt x="320" y="248" on="0"/>
        <pt x="339" y="271" on="0"/>
        <pt x="353" y="278" on="1"/>
        <pt x="353" y="566" on="1"/>
        <pt x="354" y="581" on="0"/>
        <pt x="340" y="591" on="1"/>
        <pt x="334" y="595" on="0"/>
        <pt x="316" y="599" on="0"/>
        <pt x="302" y="599" on="1"/>
        <pt x="284" y="599" on="1"/>
        <pt x="270" y="599" on="0"/>
        <pt x="253" y="595" on="0"/>
        <pt x="247" y="591" on="1"/>
        <pt x="233" y="581" on="0"/>
        <pt x="233" y="566" on="1"/>
        <pt x="233" y="278" on="1"/>
        <pt x="247" y="271" on="0"/>
        <pt x="266" y="248" on="0"/>
      </contour>
    </TTGlyph>
    <TTGlyph name="B" xMin="25" yMin="0" xMax="561" yMax="700">
      <contour>
        <pt x="390" y="700" on="1"/>
        <pt x="425" y="700" on="0"/>
        <pt x="475" y="687" on="0"/>
        <pt x="492" y="671" on="1"/>
        <pt x="504" y="660" on="0"/>
        <pt x="518" y="637" on="0"/>
        <pt x="524" y="615" on="0"/>
        <pt x="525" y="595" on="0"/>
        <pt x="525" y="589" on="1"/>
        <pt x="525" y="480" on="1"/>
        <pt x="525" y="464" on="0"/>
        <pt x="511" y="435" on="0"/>
        <pt x="497" y="425" on="1"/>
        <pt x="486" y="417" on="0"/>
        <pt x="459" y="409" on="0"/>
        <pt x="448" y="408" on="1"/>
        <pt x="459" y="407" on="0"/>
        <pt x="486" y="399" on="0"/>
        <pt x="497" y="391" on="1"/>
        <pt x="525" y="370" on="0"/>
        <pt x="525" y="335" on="1"/>
        <pt x="525" y="278" on="1"/>
        <pt x="539" y="272" on="0"/>
        <pt x="559" y="248" on="0"/>
        <pt x="561" y="233" on="1"/>
        <pt x="555" y="239" on="0"/>
        <pt x="546" y="239" on="1"/>
        <pt x="536" y="239" on="0"/>
        <pt x="525" y="227" on="0"/>
        <pt x="525" y="218" on="1"/>
        <pt x="525" y="111" on="1"/>
        <pt x="525" y="106" on="0"/>
        <pt x="524" y="84" on="0"/>
        <pt x="518" y="58" on="0"/>
        <pt x="502" y="32" on="0"/>
        <pt x="487" y="22" on="1"/>
        <pt x="475" y="14" on="0"/>
        <pt x="446" y="5" on="0"/>
        <pt x="432" y="3" on="1"/>
        <pt x="416" y="0" on="0"/>
        <pt x="400" y="0" on="1"/>
        <pt x="61" y="0" on="1"/>
        <pt x="61" y="218" on="1"/>
        <pt x="61" y="227" on="0"/>
        <pt x="50" y="239" on="0"/>
        <pt x="40" y="239" on="1"/>
        <pt x="31" y="239" on="0"/>
        <pt x="25" y="233" on="1"/>
        <pt x="32" y="265" on="0"/>
        <pt x="61" y="278" on="1"/>
        <pt x="61" y="700" on="1"/>
      </contour>
      <contour>
        <pt x="353" y="324" on="1"/>
        <pt x="353" y="334" on="0"/>
        <pt x="339" y="358" on="0"/>
        <pt x="310" y="358" on="1"/>
        <pt x="233" y="358" on="1"/>
        <pt x="233" y="278" on="1"/>
        <pt x="247" y="271" on="0"/>
        <pt x="266" y="248" on="0"/>
        <pt x="269" y="233" on="1"/>
        <pt x="263" y="239" on="0"/>
        <pt x="254" y="239" on="1"/>
        <pt x="244" y="239" on="0"/>
        <pt x="233" y="227" on="0"/>
        <pt x="233" y="218" on="1"/>
        <pt x="233" y="100" on="1"/>
        <pt x="304" y="100" on="1"/>
        <pt x="315" y="100" on="0"/>
        <pt x="331" y="102" on="0"/>
        <pt x="337" y="107" on="1"/>
        <pt x="353" y="118" on="0"/>
        <pt x="353" y="151" on="1"/>
        <pt x="353" y="218" on="1"/>
        <pt x="353" y="227" on="0"/>
        <pt x="342" y="239" on="0"/>
        <pt x="332" y="239" on="1"/>
        <pt x="323" y="239" on="0"/>
        <pt x="317" y="233" on="1"/>
        <pt x="322" y="265" on="0"/>
        <pt x="353" y="278" on="1"/>
        <pt x="353" y="309" on="1"/>
      </contour>
      <contour>
        <pt x="353" y="506" on="1"/>
        <pt x="353" y="563" on="1"/>
        <pt x="353" y="568" on="0"/>
        <pt x="351" y="581" on="0"/>
        <pt x="344" y="588" on="1"/>
        <pt x="335" y="597" on="0"/>
        <pt x="318" y="600" on="0"/>
        <pt x="310" y="600" on="1"/>
        <pt x="233" y="600" on="1"/>
        <pt x="233" y="457" on="1"/>
        <pt x="312" y="457" on="1"/>
        <pt x="339" y="457" on="0"/>
        <pt x="353" y="480" on="0"/>
        <pt x="353" y="489" on="1"/>
      </contour>
    </TTGlyph>
    <TTGlyph name="C" xMin="25" yMin="0" xMax="442" yMax="700">
      <contour>
        <pt x="269" y="233" on="1"/>
        <pt x="263" y="239" on="0"/>
        <pt x="254" y="239" on="1"/>
        <pt x="244" y="239" on="0"/>
        <pt x="233" y="227" on="0"/>
        <pt x="233" y="218" on="1"/>
        <pt x="233" y="154" on="1"/>
        <pt x="233" y="147" on="0"/>
        <pt x="235" y="141" on="1"/>
        <pt x="237" y="136" on="0"/>
        <pt x="243" y="123" on="0"/>
        <pt x="249" y="117" on="1"/>
        <pt x="266" y="100" on="0"/>
        <pt x="293" y="100" on="1"/>
        <pt x="442" y="100" on="1"/>
        <pt x="442" y="0" on="1"/>
        <pt x="244" y="0" on="1"/>
        <pt x="193" y="0" on="0"/>
        <pt x="132" y="17" on="0"/>
        <pt x="108" y="37" on="1"/>
        <pt x="93" y="49" on="0"/>
        <pt x="75" y="80" on="0"/>
        <pt x="65" y="111" on="0"/>
        <pt x="61" y="139" on="0"/>
        <pt x="61" y="150" on="1"/>
        <pt x="61" y="218" on="1"/>
        <pt x="61" y="227" on="0"/>
        <pt x="50" y="239" on="0"/>
        <pt x="40" y="239" on="1"/>
        <pt x="31" y="239" on="0"/>
        <pt x="25" y="233" on="1"/>
        <pt x="28" y="248" on="0"/>
        <pt x="48" y="272" on="0"/>
        <pt x="61" y="278" on="1"/>
        <pt x="61" y="550" on="1"/>
        <pt x="61" y="560" on="0"/>
        <pt x="65" y="589" on="0"/>
        <pt x="75" y="620" on="0"/>
        <pt x="93" y="651" on="0"/>
        <pt x="108" y="663" on="1"/>
        <pt x="132" y="683" on="0"/>
        <pt x="193" y="700" on="0"/>
        <pt x="244" y="700" on="1"/>
        <pt x="442" y="700" on="1"/>
        <pt x="442" y="600" on="1"/>
        <pt x="293" y="600" on="1"/>
        <pt x="266" y="600" on="0"/>
        <pt x="249" y="583" on="1"/>
        <pt x="243" y="577" on="0"/>
        <pt x="237" y="563" on="0"/>
        <pt x="235" y="558" on="1"/>
        <pt x="233" y="552" on="0"/>
        <pt x="233" y="546" on="1"/>
        <pt x="233" y="278" on="1"/>
        <pt x="248" y="272" on="0"/>
        <pt x="266" y="247" on="0"/>
      </contour>
    </TTGlyph>
    <TTGlyph name="D" xMin="25" yMin="0" xMax="561" yMax="700">
      <contour>
        <pt x="61" y="700" on="1"/>
        <pt x="342" y="700" on="1"/>
        <pt x="392" y="700" on="0"/>
        <pt x="461" y="679" on="0"/>
        <pt x="484" y="656" on="1"/>
        <pt x="505" y="636" on="0"/>
        <pt x="525" y="586" on="0"/>
        <pt x="525" y="558" on="1"/>
        <pt x="525" y="278" on="1"/>
        <pt x="539" y="272" on="0"/>
        <pt x="557" y="247" on="0"/>
        <pt x="561" y="233" on="1"/>
        <pt x="555" y="239" on="0"/>
        <pt x="546" y="239" on="1"/>
        <pt x="536" y="239" on="0"/>
        <pt x="525" y="227" on="0"/>
        <pt x="525" y="218" on="1"/>
        <pt x="525" y="150" on="1"/>
        <pt x="525" y="115" on="0"/>
        <pt x="503" y="60" on="0"/>
        <pt x="478" y="37" on="1"/>
        <pt x="455" y="17" on="0"/>
        <pt x="393" y="0" on="0"/>
        <pt x="342" y="0" on="1"/>
        <pt x="61" y="0" on="1"/>
        <pt x="61" y="218" on="1"/>
        <pt x="61" y="227" on="0"/>
        <pt x="50" y="239" on="0"/>
        <pt x="40" y="239" on="1"/>
        <pt x="31" y="239" on="0"/>
        <pt x="25" y="233" on="1"/>
        <pt x="28" y="248" on="0"/>
        <pt x="47" y="272" on="0"/>
        <pt x="61" y="278" on="1"/>
      </contour>
      <contour>
        <pt x="269" y="233" on="1"/>
        <pt x="263" y="239" on="0"/>
        <pt x="254" y="239" on="1"/>
        <pt x="244" y="239" on="0"/>
        <pt x="233" y="227" on="0"/>
        <pt x="233" y="218" on="1"/>
        <pt x="233" y="100" on="1"/>
        <pt x="293" y="100" on="1"/>
        <pt x="320" y="100" on="0"/>
        <pt x="337" y="117" on="1"/>
        <pt x="353" y="133" on="0"/>
        <pt x="353" y="161" on="1"/>
        <pt x="353" y="218" on="1"/>
        <pt x="353" y="227" on="0"/>
        <pt x="342" y="239" on="0"/>
        <pt x="332" y="239" on="1"/>
        <pt x="323" y="239" on="0"/>
        <pt x="317" y="233" on="1"/>
        <pt x="319" y="247" on="0"/>
        <pt x="339" y="272" on="0"/>
        <pt x="353" y="278" on="1"/>
        <pt x="353" y="541" on="1"/>
        <pt x="353" y="548" on="0"/>
        <pt x="350" y="569" on="0"/>
        <pt x="344" y="577" on="1"/>
        <pt x="328" y="600" on="0"/>
        <pt x="293" y="600" on="1"/>
        <pt x="233" y="600" on="1"/>
        <pt x="233" y="278" on="1"/>
        <pt x="247" y="272" on="0"/>
        <pt x="266" y="248" on="0"/>
      </contour>
    </TTGlyph>
    <TTGlyph name="E" xMin="25" yMin="0" xMax="469" yMax="690">
      <contour>
        <pt x="419" y="435" on="1"/>
        <pt x="419" y="335" on="1"/>
        <pt x="233" y="335" on="1"/>
        <pt x="233" y="278" on="1"/>
        <pt x="247" y="272" on="0"/>
        <pt x="266" y="248" on="0"/>
        <pt x="269" y="233" on="1"/>
        <pt x="263" y="239" on="0"/>
        <pt x="254" y="239" on="1"/>
        <pt x="244" y="239" on="0"/>
        <pt x="233" y="227" on="0"/>
        <pt x="233" y="218" on="1"/>
        <pt x="233" y="100" on="1"/>
        <pt x="469" y="100" on="1"/>
        <pt x="469" y="0" on="1"/>
        <pt x="61" y="0" on="1"/>
        <pt x="61" y="218" on="1"/>
        <pt x="61" y="227" on="0"/>
        <pt x="50" y="239" on="0"/>
        <pt x="40" y="239" on="1"/>
        <pt x="31" y="239" on="0"/>
        <pt x="25" y="233" on="1"/>
        <pt x="28" y="248" on="0"/>
        <pt x="47" y="272" on="0"/>
        <pt x="61" y="278" on="1"/>
        <pt x="61" y="690" on="1"/>
        <pt x="469" y="690" on="1"/>
        <pt x="469" y="590" on="1"/>
        <pt x="233" y="590" on="1"/>
        <pt x="233" y="435" on="1"/>
      </contour>
    </TTGlyph>
    <TTGlyph name="Euro" xMin="62" yMin="0" xMax="96" yMax="733">
      <contour>
        <pt x="62" y="733" on="1"/>
        <pt x="96" y="733" on="1"/>
        <pt x="96" y="0" on="1"/>
        <pt x="62" y="0" on="1"/>
      </contour>
    </TTGlyph>
    <TTGlyph name="F" xMin="25" yMin="0" xMax="469" yMax="690">
      <contour>
        <pt x="419" y="435" on="1"/>
        <pt x="419" y="335" on="1"/>
        <pt x="233" y="335" on="1"/>
        <pt x="233" y="278" on="1"/>
        <pt x="263" y="265" on="0"/>
        <pt x="269" y="233" on="1"/>
        <pt x="263" y="239" on="0"/>
        <pt x="254" y="239" on="1"/>
        <pt x="244" y="239" on="0"/>
        <pt x="233" y="227" on="0"/>
        <pt x="233" y="218" on="1"/>
        <pt x="233" y="0" on="1"/>
        <pt x="61" y="0" on="1"/>
        <pt x="61" y="218" on="1"/>
        <pt x="61" y="227" on="0"/>
        <pt x="50" y="239" on="0"/>
        <pt x="40" y="239" on="1"/>
        <pt x="31" y="239" on="0"/>
        <pt x="25" y="233" on="1"/>
        <pt x="28" y="248" on="0"/>
        <pt x="47" y="272" on="0"/>
        <pt x="61" y="278" on="1"/>
        <pt x="61" y="690" on="1"/>
        <pt x="469" y="690" on="1"/>
        <pt x="469" y="590" on="1"/>
        <pt x="233" y="590" on="1"/>
        <pt x="233" y="435" on="1"/>
      </contour>
    </TTGlyph>
    <TTGlyph name="G" xMin="25" yMin="0" xMax="561" yMax="700">
      <contour>
        <pt x="61" y="561" on="1"/>
        <pt x="61" y="574" on="0"/>
        <pt x="64" y="588" on="1"/>
        <pt x="66" y="600" on="0"/>
        <pt x="77" y="628" on="0"/>
        <pt x="87" y="640" on="1"/>
        <pt x="104" y="663" on="0"/>
        <pt x="151" y="686" on="0"/>
        <pt x="173" y="692" on="1"/>
        <pt x="199" y="698" on="0"/>
        <pt x="225" y="700" on="1"/>
        <pt x="525" y="700" on="1"/>
        <pt x="525" y="600" on="1"/>
        <pt x="293" y="600" on="1"/>
        <pt x="254" y="600" on="0"/>
        <pt x="238" y="571" on="1"/>
        <pt x="236" y="567" on="0"/>
        <pt x="235" y="559" on="0"/>
        <pt x="234" y="555" on="1"/>
        <pt x="233" y="551" on="0"/>
        <pt x="233" y="546" on="1"/>
        <pt x="233" y="278" on="1"/>
        <pt x="247" y="272" on="0"/>
        <pt x="266" y="247" on="0"/>
        <pt x="269" y="233" on="1"/>
        <pt x="263" y="239" on="0"/>
        <pt x="254" y="239" on="1"/>
        <pt x="244" y="239" on="0"/>
        <pt x="233" y="227" on="0"/>
        <pt x="233" y="218" on="1"/>
        <pt x="233" y="150" on="1"/>
        <pt x="233" y="140" on="0"/>
        <pt x="237" y="122" on="0"/>
        <pt x="244" y="114" on="1"/>
        <pt x="252" y="104" on="0"/>
        <pt x="279" y="100" on="0"/>
        <pt x="293" y="100" on="1"/>
        <pt x="353" y="100" on="1"/>
        <pt x="353" y="218" on="1"/>
        <pt x="353" y="227" on="0"/>
        <pt x="342" y="239" on="0"/>
        <pt x="332" y="239" on="1"/>
        <pt x="323" y="239" on="0"/>
        <pt x="317" y="233" on="1"/>
        <pt x="320" y="248" on="0"/>
        <pt x="338" y="273" on="0"/>
        <pt x="353" y="278" on="1"/>
        <pt x="353" y="357" on="1"/>
        <pt x="303" y="357" on="1"/>
        <pt x="303" y="457" on="1"/>
        <pt x="525" y="457" on="1"/>
        <pt x="525" y="278" on="1"/>
        <pt x="539" y="272" on="0"/>
        <pt x="557" y="247" on="0"/>
        <pt x="561" y="233" on="1"/>
        <pt x="555" y="239" on="0"/>
        <pt x="546" y="239" on="1"/>
        <pt x="536" y="239" on="0"/>
        <pt x="525" y="227" on="0"/>
        <pt x="525" y="218" on="1"/>
        <pt x="525" y="0" on="1"/>
        <pt x="214" y="0" on="1"/>
        <pt x="179" y="0" on="0"/>
        <pt x="127" y="20" on="0"/>
        <pt x="108" y="37" on="1"/>
        <pt x="95" y="48" on="0"/>
        <pt x="77" y="75" on="0"/>
        <pt x="66" y="103" on="0"/>
        <pt x="61" y="129" on="0"/>
        <pt x="61" y="139" on="1"/>
        <pt x="61" y="218" on="1"/>
        <pt x="61" y="227" on="0"/>
        <pt x="50" y="239" on="0"/>
        <pt x="40" y="239" on="1"/>
        <pt x="31" y="239" on="0"/>
        <pt x="25" y="233" on="1"/>
        <pt x="28" y="247" on="0"/>
        <pt x="47" y="272" on="0"/>
        <pt x="61" y="278" on="1"/>
      </contour>
    </TTGlyph>
    <TTGlyph name="H" xMin="25" yMin="0" xMax="561" yMax="690">
      <contour>
        <pt x="353" y="690" on="1"/>
        <pt x="525" y="690" on="1"/>
        <pt x="525" y="278" on="1"/>
        <pt x="539" y="271" on="0"/>
        <pt x="558" y="248" on="0"/>
        <pt x="561" y="233" on="1"/>
        <pt x="555" y="239" on="0"/>
        <pt x="546" y="239" on="1"/>
        <pt x="536" y="239" on="0"/>
        <pt x="525" y="227" on="0"/>
        <pt x="525" y="218" on="1"/>
        <pt x="525" y="0" on="1"/>
        <pt x="353" y="0" on="1"/>
        <pt x="353" y="218" on="1"/>
        <pt x="353" y="227" on="0"/>
        <pt x="342" y="239" on="0"/>
        <pt x="332" y="239" on="1"/>
        <pt x="323" y="239" on="0"/>
        <pt x="317" y="233" on="1"/>
        <pt x="320" y="247" on="0"/>
        <pt x="339" y="272" on="0"/>
        <pt x="353" y="278" on="1"/>
        <pt x="353" y="345" on="1"/>
        <pt x="233" y="345" on="1"/>
        <pt x="233" y="278" on="1"/>
        <pt x="247" y="271" on="0"/>
        <pt x="266" y="248" on="0"/>
        <pt x="269" y="233" on="1"/>
        <pt x="263" y="239" on="0"/>
        <pt x="254" y="239" on="1"/>
        <pt x="244" y="239" on="0"/>
        <pt x="233" y="227" on="0"/>
        <pt x="233" y="218" on="1"/>
        <pt x="233" y="0" on="1"/>
        <pt x="61" y="0" on="1"/>
        <pt x="61" y="218" on="1"/>
        <pt x="61" y="227" on="0"/>
        <pt x="50" y="239" on="0"/>
        <pt x="40" y="239" on="1"/>
        <pt x="31" y="239" on="0"/>
        <pt x="25" y="233" on="1"/>
        <pt x="28" y="247" on="0"/>
        <pt x="47" y="272" on="0"/>
        <pt x="61" y="278" on="1"/>
        <pt x="61" y="278" on="0"/>
        <pt x="63" y="279" on="1"/>
        <pt x="62" y="278" on="0"/>
        <pt x="61" y="278" on="1"/>
        <pt x="61" y="690" on="1"/>
        <pt x="233" y="690" on="1"/>
        <pt x="233" y="445" on="1"/>
        <pt x="353" y="445" on="1"/>
      </contour>
    </TTGlyph>
    <TTGlyph name="I" xMin="25" yMin="0" xMax="269" yMax="690">
      <contour>
        <pt x="269" y="234" on="1"/>
        <pt x="263" y="240" on="0"/>
        <pt x="254" y="240" on="1"/>
        <pt x="244" y="240" on="0"/>
        <pt x="233" y="228" on="0"/>
        <pt x="233" y="219" on="1"/>
        <pt x="233" y="0" on="1"/>
        <pt x="61" y="0" on="1"/>
        <pt x="61" y="219" on="1"/>
        <pt x="61" y="228" on="0"/>
        <pt x="50" y="240" on="0"/>
        <pt x="40" y="240" on="1"/>
        <pt x="31" y="240" on="0"/>
        <pt x="25" y="234" on="1"/>
        <pt x="28" y="249" on="0"/>
        <pt x="47" y="273" on="0"/>
        <pt x="61" y="279" on="1"/>
        <pt x="61" y="690" on="1"/>
        <pt x="233" y="690" on="1"/>
        <pt x="233" y="279" on="1"/>
        <pt x="247" y="272" on="0"/>
        <pt x="266" y="249" on="0"/>
      </contour>
    </TTGlyph>
    <TTGlyph name="J" xMin="-110" yMin="-211" xMax="277" yMax="690">
      <contour>
        <pt x="69" y="690" on="1"/>
        <pt x="241" y="690" on="1"/>
        <pt x="241" y="278" on="1"/>
        <pt x="255" y="271" on="0"/>
        <pt x="274" y="248" on="0"/>
        <pt x="277" y="233" on="1"/>
        <pt x="271" y="239" on="0"/>
        <pt x="262" y="239" on="1"/>
        <pt x="252" y="239" on="0"/>
        <pt x="241" y="227" on="0"/>
        <pt x="241" y="218" on="1"/>
        <pt x="241" y="-72" on="1"/>
        <pt x="241" y="-89" on="0"/>
        <pt x="230" y="-131" on="0"/>
        <pt x="215" y="-151" on="1"/>
        <pt x="187" y="-186" on="0"/>
        <pt x="112" y="-211" on="0"/>
        <pt x="68" y="-211" on="1"/>
        <pt x="-110" y="-211" on="1"/>
        <pt x="-110" y="-111" on="1"/>
        <pt x="-1" y="-111" on="1"/>
        <pt x="25" y="-111" on="0"/>
        <pt x="55" y="-95" on="0"/>
        <pt x="63" y="-81" on="1"/>
        <pt x="67" y="-74" on="0"/>
        <pt x="69" y="-55" on="0"/>
        <pt x="69" y="-44" on="1"/>
        <pt x="69" y="218" on="1"/>
        <pt x="69" y="227" on="0"/>
        <pt x="58" y="239" on="0"/>
        <pt x="48" y="239" on="1"/>
        <pt x="39" y="239" on="0"/>
        <pt x="33" y="233" on="1"/>
        <pt x="36" y="248" on="0"/>
        <pt x="55" y="272" on="0"/>
        <pt x="69" y="278" on="1"/>
        <pt x="70" y="278" on="0"/>
        <pt x="71" y="279" on="1"/>
        <pt x="69" y="278" on="0"/>
        <pt x="69" y="278" on="1"/>
      </contour>
    </TTGlyph>
    <TTGlyph name="K" xMin="25" yMin="0" xMax="597" yMax="690">
      <contour>
        <pt x="424" y="420" on="1"/>
        <pt x="469" y="312" on="1"/>
        <pt x="463" y="312" on="1"/>
        <pt x="469" y="312" on="1"/>
        <pt x="497" y="312" on="0"/>
        <pt x="516" y="290" on="1"/>
        <pt x="511" y="290" on="1"/>
        <pt x="489" y="290" on="0"/>
        <pt x="489" y="270" on="1"/>
        <pt x="489" y="266" on="0"/>
        <pt x="491" y="260" on="1"/>
        <pt x="597" y="0" on="1"/>
        <pt x="407" y="0" on="1"/>
        <pt x="328" y="197" on="1"/>
        <pt x="322" y="211" on="0"/>
        <pt x="308" y="211" on="1"/>
        <pt x="300" y="211" on="0"/>
        <pt x="291" y="204" on="0"/>
        <pt x="290" y="202" on="1"/>
        <pt x="289" y="203" on="0"/>
        <pt x="289" y="204" on="1"/>
        <pt x="289" y="209" on="1"/>
        <pt x="289" y="232" on="0"/>
        <pt x="305" y="251" on="1"/>
        <pt x="233" y="420" on="1"/>
        <pt x="233" y="278" on="1"/>
        <pt x="247" y="271" on="0"/>
        <pt x="266" y="248" on="0"/>
        <pt x="269" y="233" on="1"/>
        <pt x="263" y="239" on="0"/>
        <pt x="254" y="239" on="1"/>
        <pt x="244" y="239" on="0"/>
        <pt x="233" y="227" on="0"/>
        <pt x="233" y="218" on="1"/>
        <pt x="233" y="0" on="1"/>
        <pt x="61" y="0" on="1"/>
        <pt x="61" y="218" on="1"/>
        <pt x="61" y="227" on="0"/>
        <pt x="50" y="239" on="0"/>
        <pt x="40" y="239" on="1"/>
        <pt x="31" y="239" on="0"/>
        <pt x="25" y="233" on="1"/>
        <pt x="28" y="247" on="0"/>
        <pt x="47" y="272" on="0"/>
        <pt x="61" y="278" on="1"/>
        <pt x="61" y="278" on="0"/>
        <pt x="63" y="279" on="1"/>
        <pt x="62" y="278" on="0"/>
        <pt x="61" y="278" on="1"/>
        <pt x="61" y="690" on="1"/>
        <pt x="233" y="690" on="1"/>
        <pt x="233" y="420" on="1"/>
        <pt x="381" y="690" on="1"/>
        <pt x="571" y="690" on="1"/>
      </contour>
    </TTGlyph>
    <TTGlyph name="L" xMin="25" yMin="0" xMax="439" yMax="690">
      <contour>
        <pt x="61" y="0" on="1"/>
        <pt x="61" y="218" on="1"/>
        <pt x="61" y="227" on="0"/>
        <pt x="50" y="239" on="0"/>
        <pt x="40" y="239" on="1"/>
        <pt x="31" y="239" on="0"/>
        <pt x="25" y="233" on="1"/>
        <pt x="28" y="247" on="0"/>
        <pt x="47" y="272" on="0"/>
        <pt x="61" y="278" on="1"/>
        <pt x="61" y="690" on="1"/>
        <pt x="233" y="690" on="1"/>
        <pt x="233" y="278" on="1"/>
        <pt x="247" y="272" on="0"/>
        <pt x="267" y="247" on="0"/>
        <pt x="269" y="233" on="1"/>
        <pt x="263" y="239" on="0"/>
        <pt x="254" y="239" on="1"/>
        <pt x="244" y="239" on="0"/>
        <pt x="233" y="227" on="0"/>
        <pt x="233" y="218" on="1"/>
        <pt x="233" y="100" on="1"/>
        <pt x="439" y="100" on="1"/>
        <pt x="439" y="0" on="1"/>
      </contour>
    </TTGlyph>
    <TTGlyph name="M" xMin="25" yMin="0" xMax="853" yMax="690">
      <contour>
        <pt x="525" y="278" on="1"/>
        <pt x="539" y="272" on="0"/>
        <pt x="558" y="248" on="0"/>
        <pt x="561" y="233" on="1"/>
        <pt x="555" y="239" on="0"/>
        <pt x="546" y="239" on="1"/>
        <pt x="536" y="239" on="0"/>
        <pt x="525" y="227" on="0"/>
        <pt x="525" y="218" on="1"/>
        <pt x="525" y="0" on="1"/>
        <pt x="353" y="0" on="1"/>
        <pt x="353" y="218" on="1"/>
        <pt x="353" y="227" on="0"/>
        <pt x="342" y="239" on="0"/>
        <pt x="332" y="239" on="1"/>
        <pt x="323" y="239" on="0"/>
        <pt x="317" y="233" on="1"/>
        <pt x="320" y="247" on="0"/>
        <pt x="339" y="272" on="0"/>
        <pt x="353" y="278" on="1"/>
        <pt x="353" y="442" on="1"/>
        <pt x="233" y="553" on="1"/>
        <pt x="233" y="278" on="1"/>
        <pt x="247" y="272" on="0"/>
        <pt x="266" y="248" on="0"/>
        <pt x="269" y="233" on="1"/>
        <pt x="263" y="239" on="0"/>
        <pt x="254" y="239" on="1"/>
        <pt x="244" y="239" on="0"/>
        <pt x="233" y="227" on="0"/>
        <pt x="233" y="218" on="1"/>
        <pt x="233" y="0" on="1"/>
        <pt x="61" y="0" on="1"/>
        <pt x="61" y="218" on="1"/>
        <pt x="61" y="227" on="0"/>
        <pt x="50" y="239" on="0"/>
        <pt x="40" y="239" on="1"/>
        <pt x="31" y="239" on="0"/>
        <pt x="25" y="233" on="1"/>
        <pt x="27" y="247" on="0"/>
        <pt x="47" y="272" on="0"/>
        <pt x="61" y="278" on="1"/>
        <pt x="61" y="278" on="0"/>
        <pt x="63" y="279" on="1"/>
        <pt x="62" y="278" on="0"/>
        <pt x="61" y="278" on="1"/>
        <pt x="61" y="690" on="1"/>
        <pt x="310" y="690" on="1"/>
        <pt x="439" y="574" on="1"/>
        <pt x="568" y="690" on="1"/>
        <pt x="817" y="690" on="1"/>
        <pt x="817" y="278" on="1"/>
        <pt x="831" y="272" on="0"/>
        <pt x="850" y="248" on="0"/>
        <pt x="853" y="233" on="1"/>
        <pt x="847" y="239" on="0"/>
        <pt x="838" y="239" on="1"/>
        <pt x="828" y="239" on="0"/>
        <pt x="817" y="227" on="0"/>
        <pt x="817" y="218" on="1"/>
        <pt x="817" y="0" on="1"/>
        <pt x="645" y="0" on="1"/>
        <pt x="645" y="218" on="1"/>
        <pt x="645" y="227" on="0"/>
        <pt x="634" y="239" on="0"/>
        <pt x="624" y="239" on="1"/>
        <pt x="615" y="239" on="0"/>
        <pt x="609" y="233" on="1"/>
        <pt x="612" y="247" on="0"/>
        <pt x="631" y="272" on="0"/>
        <pt x="645" y="278" on="1"/>
        <pt x="645" y="278" on="0"/>
        <pt x="647" y="279" on="1"/>
        <pt x="646" y="278" on="0"/>
        <pt x="645" y="278" on="1"/>
        <pt x="645" y="553" on="1"/>
        <pt x="525" y="442" on="1"/>
      </contour>
    </TTGlyph>
    <TTGlyph name="N" xMin="25" yMin="0" xMax="707" yMax="690">
      <contour>
        <pt x="269" y="233" on="1"/>
        <pt x="263" y="239" on="0"/>
        <pt x="254" y="239" on="1"/>
        <pt x="244" y="239" on="0"/>
        <pt x="233" y="227" on="0"/>
        <pt x="233" y="218" on="1"/>
        <pt x="233" y="0" on="1"/>
        <pt x="61" y="0" on="1"/>
        <pt x="61" y="218" on="1"/>
        <pt x="61" y="227" on="0"/>
        <pt x="50" y="239" on="0"/>
        <pt x="40" y="239" on="1"/>
        <pt x="31" y="239" on="0"/>
        <pt x="25" y="233" on="1"/>
        <pt x="28" y="247" on="0"/>
        <pt x="47" y="272" on="0"/>
        <pt x="61" y="278" on="1"/>
        <pt x="62" y="278" on="0"/>
        <pt x="63" y="279" on="1"/>
        <pt x="61" y="278" on="0"/>
        <pt x="61" y="278" on="1"/>
        <pt x="61" y="690" on="1"/>
        <pt x="355" y="690" on="1"/>
        <pt x="482" y="283" on="1"/>
        <pt x="486" y="271" on="1"/>
        <pt x="499" y="278" on="1"/>
        <pt x="499" y="690" on="1"/>
        <pt x="671" y="690" on="1"/>
        <pt x="671" y="278" on="1"/>
        <pt x="685" y="272" on="0"/>
        <pt x="704" y="247" on="0"/>
        <pt x="707" y="233" on="1"/>
        <pt x="701" y="239" on="0"/>
        <pt x="692" y="239" on="1"/>
        <pt x="682" y="239" on="0"/>
        <pt x="671" y="227" on="0"/>
        <pt x="671" y="218" on="1"/>
        <pt x="671" y="0" on="1"/>
        <pt x="438" y="0" on="1"/>
        <pt x="341" y="283" on="1"/>
        <pt x="233" y="590" on="1"/>
        <pt x="233" y="278" on="1"/>
        <pt x="247" y="272" on="0"/>
        <pt x="266" y="247" on="0"/>
      </contour>
    </TTGlyph>
    <TTGlyph name="O" xMin="25" yMin="0" xMax="611" yMax="700">
      <contour>
        <pt x="575" y="278" on="1"/>
        <pt x="589" y="272" on="0"/>
        <pt x="608" y="247" on="0"/>
        <pt x="611" y="233" on="1"/>
        <pt x="605" y="239" on="0"/>
        <pt x="596" y="239" on="1"/>
        <pt x="586" y="239" on="0"/>
        <pt x="575" y="227" on="0"/>
        <pt x="575" y="218" on="1"/>
        <pt x="575" y="142" on="1"/>
        <pt x="575" y="114" on="0"/>
        <pt x="555" y="64" on="0"/>
        <pt x="534" y="44" on="1"/>
        <pt x="511" y="21" on="0"/>
        <pt x="433" y="0" on="0"/>
        <pt x="383" y="0" on="1"/>
        <pt x="253" y="0" on="1"/>
        <pt x="203" y="0" on="0"/>
        <pt x="125" y="21" on="0"/>
        <pt x="102" y="44" on="1"/>
        <pt x="81" y="64" on="0"/>
        <pt x="61" y="114" on="0"/>
        <pt x="61" y="142" on="1"/>
        <pt x="61" y="218" on="1"/>
        <pt x="61" y="227" on="0"/>
        <pt x="50" y="239" on="0"/>
        <pt x="40" y="239" on="1"/>
        <pt x="31" y="239" on="0"/>
        <pt x="25" y="233" on="1"/>
        <pt x="32" y="264" on="0"/>
        <pt x="61" y="277" on="1"/>
        <pt x="61" y="558" on="1"/>
        <pt x="61" y="586" on="0"/>
        <pt x="81" y="636" on="0"/>
        <pt x="102" y="656" on="1"/>
        <pt x="125" y="679" on="0"/>
        <pt x="203" y="700" on="0"/>
        <pt x="253" y="700" on="1"/>
        <pt x="383" y="700" on="1"/>
        <pt x="433" y="700" on="0"/>
        <pt x="511" y="679" on="0"/>
        <pt x="534" y="656" on="1"/>
        <pt x="555" y="636" on="0"/>
        <pt x="575" y="586" on="0"/>
        <pt x="575" y="558" on="1"/>
      </contour>
      <contour>
        <pt x="343" y="100" on="1"/>
        <pt x="363" y="100" on="0"/>
        <pt x="386" y="111" on="0"/>
        <pt x="394" y="123" on="1"/>
        <pt x="400" y="131" on="0"/>
        <pt x="403" y="153" on="0"/>
        <pt x="403" y="160" on="1"/>
        <pt x="403" y="218" on="1"/>
        <pt x="403" y="227" on="0"/>
        <pt x="392" y="239" on="0"/>
        <pt x="382" y="239" on="1"/>
        <pt x="373" y="239" on="0"/>
        <pt x="367" y="233" on="1"/>
        <pt x="369" y="247" on="0"/>
        <pt x="392" y="274" on="0"/>
        <pt x="403" y="278" on="1"/>
        <pt x="403" y="540" on="1"/>
        <pt x="403" y="547" on="0"/>
        <pt x="400" y="569" on="0"/>
        <pt x="394" y="577" on="1"/>
        <pt x="386" y="589" on="0"/>
        <pt x="363" y="600" on="0"/>
        <pt x="343" y="600" on="1"/>
        <pt x="298" y="600" on="1"/>
        <pt x="258" y="600" on="0"/>
        <pt x="242" y="577" on="1"/>
        <pt x="236" y="569" on="0"/>
        <pt x="233" y="547" on="0"/>
        <pt x="233" y="540" on="1"/>
        <pt x="233" y="277" on="1"/>
        <pt x="247" y="271" on="0"/>
        <pt x="266" y="247" on="0"/>
        <pt x="269" y="233" on="1"/>
        <pt x="263" y="239" on="0"/>
        <pt x="254" y="239" on="1"/>
        <pt x="244" y="239" on="0"/>
        <pt x="233" y="227" on="0"/>
        <pt x="233" y="218" on="1"/>
        <pt x="233" y="160" on="1"/>
        <pt x="233" y="153" on="0"/>
        <pt x="236" y="131" on="0"/>
        <pt x="242" y="123" on="1"/>
        <pt x="258" y="100" on="0"/>
        <pt x="298" y="100" on="1"/>
      </contour>
    </TTGlyph>
    <TTGlyph name="P" xMin="25" yMin="0" xMax="557" yMax="700">
      <contour>
        <pt x="429" y="192" on="1"/>
        <pt x="412" y="189" on="0"/>
        <pt x="385" y="187" on="0"/>
        <pt x="365" y="187" on="1"/>
        <pt x="233" y="187" on="1"/>
        <pt x="233" y="0" on="1"/>
        <pt x="61" y="0" on="1"/>
        <pt x="61" y="218" on="1"/>
        <pt x="61" y="227" on="0"/>
        <pt x="50" y="239" on="0"/>
        <pt x="40" y="239" on="1"/>
        <pt x="31" y="239" on="0"/>
        <pt x="25" y="233" on="1"/>
        <pt x="28" y="248" on="0"/>
        <pt x="47" y="272" on="0"/>
        <pt x="61" y="278" on="1"/>
        <pt x="61" y="700" on="1"/>
        <pt x="348" y="700" on="1"/>
        <pt x="398" y="700" on="0"/>
        <pt x="455" y="684" on="0"/>
        <pt x="478" y="664" on="1"/>
        <pt x="493" y="652" on="0"/>
        <pt x="511" y="621" on="0"/>
        <pt x="521" y="590" on="0"/>
        <pt x="525" y="561" on="0"/>
        <pt x="525" y="551" on="1"/>
        <pt x="525" y="352" on="1"/>
        <pt x="546" y="343" on="0"/>
        <pt x="557" y="321" on="1"/>
        <pt x="552" y="324" on="0"/>
        <pt x="545" y="324" on="1"/>
        <pt x="525" y="324" on="0"/>
        <pt x="525" y="302" on="1"/>
        <pt x="525" y="291" on="0"/>
        <pt x="518" y="259" on="0"/>
        <pt x="498" y="227" on="0"/>
        <pt x="460" y="199" on="0"/>
      </contour>
      <contour>
        <pt x="321" y="321" on="1"/>
        <pt x="332" y="343" on="0"/>
        <pt x="353" y="352" on="1"/>
        <pt x="353" y="551" on="1"/>
        <pt x="353" y="557" on="0"/>
        <pt x="350" y="579" on="0"/>
        <pt x="342" y="587" on="1"/>
        <pt x="334" y="595" on="0"/>
        <pt x="315" y="600" on="0"/>
        <pt x="303" y="600" on="1"/>
        <pt x="233" y="600" on="1"/>
        <pt x="233" y="282" on="1"/>
        <pt x="316" y="282" on="1"/>
        <pt x="328" y="282" on="1"/>
        <pt x="353" y="282" on="0"/>
        <pt x="353" y="302" on="1"/>
        <pt x="353" y="324" on="0"/>
        <pt x="333" y="324" on="1"/>
        <pt x="325" y="324" on="0"/>
      </contour>
    </TTGlyph>
    <TTGlyph name="Q" xMin="25" yMin="-128" xMax="611" yMax="700">
      <contour>
        <pt x="335" y="0" on="1"/>
        <pt x="253" y="0" on="1"/>
        <pt x="217" y="0" on="0"/>
        <pt x="155" y="11" on="0"/>
        <pt x="132" y="23" on="1"/>
        <pt x="124" y="28" on="0"/>
        <pt x="108" y="38" on="0"/>
        <pt x="102" y="44" on="1"/>
        <pt x="81" y="64" on="0"/>
        <pt x="61" y="114" on="0"/>
        <pt x="61" y="142" on="1"/>
        <pt x="61" y="218" on="1"/>
        <pt x="61" y="227" on="0"/>
        <pt x="50" y="239" on="0"/>
        <pt x="40" y="239" on="1"/>
        <pt x="31" y="239" on="0"/>
        <pt x="25" y="233" on="1"/>
        <pt x="32" y="264" on="0"/>
        <pt x="61" y="277" on="1"/>
        <pt x="61" y="558" on="1"/>
        <pt x="61" y="586" on="0"/>
        <pt x="81" y="636" on="0"/>
        <pt x="102" y="656" on="1"/>
        <pt x="125" y="679" on="0"/>
        <pt x="203" y="700" on="0"/>
        <pt x="253" y="700" on="1"/>
        <pt x="383" y="700" on="1"/>
        <pt x="433" y="700" on="0"/>
        <pt x="511" y="679" on="0"/>
        <pt x="534" y="656" on="1"/>
        <pt x="555" y="636" on="0"/>
        <pt x="575" y="586" on="0"/>
        <pt x="575" y="558" on="1"/>
        <pt x="575" y="278" on="1"/>
        <pt x="589" y="272" on="0"/>
        <pt x="608" y="247" on="0"/>
        <pt x="611" y="233" on="1"/>
        <pt x="605" y="239" on="0"/>
        <pt x="596" y="239" on="1"/>
        <pt x="586" y="239" on="0"/>
        <pt x="575" y="227" on="0"/>
        <pt x="575" y="218" on="1"/>
        <pt x="575" y="142" on="1"/>
        <pt x="575" y="114" on="0"/>
        <pt x="555" y="64" on="0"/>
        <pt x="534" y="44" on="1"/>
        <pt x="520" y="30" on="0"/>
        <pt x="472" y="9" on="0"/>
        <pt x="446" y="4" on="1"/>
        <pt x="499" y="-76" on="1"/>
        <pt x="417" y="-128" on="1"/>
      </contour>
      <contour>
        <pt x="403" y="540" on="1"/>
        <pt x="403" y="547" on="0"/>
        <pt x="400" y="569" on="0"/>
        <pt x="394" y="577" on="1"/>
        <pt x="386" y="589" on="0"/>
        <pt x="363" y="600" on="0"/>
        <pt x="343" y="600" on="1"/>
        <pt x="298" y="600" on="1"/>
        <pt x="258" y="600" on="0"/>
        <pt x="242" y="577" on="1"/>
        <pt x="236" y="569" on="0"/>
        <pt x="233" y="547" on="0"/>
        <pt x="233" y="540" on="1"/>
        <pt x="233" y="277" on="1"/>
        <pt x="247" y="271" on="0"/>
        <pt x="266" y="247" on="0"/>
        <pt x="269" y="233" on="1"/>
        <pt x="263" y="239" on="0"/>
        <pt x="254" y="239" on="1"/>
        <pt x="244" y="239" on="0"/>
        <pt x="233" y="227" on="0"/>
        <pt x="233" y="218" on="1"/>
        <pt x="233" y="160" on="1"/>
        <pt x="233" y="153" on="0"/>
        <pt x="236" y="131" on="0"/>
        <pt x="242" y="123" on="1"/>
        <pt x="247" y="117" on="0"/>
        <pt x="260" y="108" on="0"/>
        <pt x="268" y="105" on="1"/>
        <pt x="302" y="126" on="1"/>
        <pt x="350" y="156" on="1"/>
        <pt x="380" y="109" on="1"/>
        <pt x="389" y="115" on="0"/>
        <pt x="395" y="123" on="1"/>
        <pt x="401" y="131" on="0"/>
        <pt x="403" y="153" on="0"/>
        <pt x="403" y="160" on="1"/>
        <pt x="403" y="218" on="1"/>
        <pt x="403" y="227" on="0"/>
        <pt x="392" y="239" on="0"/>
        <pt x="382" y="239" on="1"/>
        <pt x="373" y="239" on="0"/>
        <pt x="367" y="233" on="1"/>
        <pt x="370" y="247" on="0"/>
        <pt x="389" y="272" on="0"/>
        <pt x="403" y="278" on="1"/>
      </contour>
    </TTGlyph>
    <TTGlyph name="R" xMin="25" yMin="0" xMax="558" yMax="700">
      <contour>
        <pt x="327" y="179" on="1"/>
        <pt x="319" y="183" on="0"/>
        <pt x="304" y="183" on="1"/>
        <pt x="233" y="183" on="1"/>
        <pt x="233" y="0" on="1"/>
        <pt x="61" y="0" on="1"/>
        <pt x="61" y="218" on="1"/>
        <pt x="61" y="227" on="0"/>
        <pt x="50" y="239" on="0"/>
        <pt x="40" y="239" on="1"/>
        <pt x="31" y="239" on="0"/>
        <pt x="25" y="233" on="1"/>
        <pt x="28" y="247" on="0"/>
        <pt x="47" y="272" on="0"/>
        <pt x="61" y="278" on="1"/>
        <pt x="61" y="700" on="1"/>
        <pt x="348" y="700" on="1"/>
        <pt x="398" y="700" on="0"/>
        <pt x="455" y="684" on="0"/>
        <pt x="478" y="664" on="1"/>
        <pt x="493" y="652" on="0"/>
        <pt x="511" y="621" on="0"/>
        <pt x="521" y="590" on="0"/>
        <pt x="525" y="561" on="0"/>
        <pt x="525" y="551" on="1"/>
        <pt x="525" y="352" on="1"/>
        <pt x="548" y="343" on="0"/>
        <pt x="558" y="320" on="1"/>
        <pt x="557" y="321" on="0"/>
        <pt x="555" y="322" on="1"/>
        <pt x="551" y="324" on="0"/>
        <pt x="546" y="324" on="1"/>
        <pt x="537" y="324" on="0"/>
        <pt x="525" y="311" on="0"/>
        <pt x="525" y="302" on="1"/>
        <pt x="525" y="287" on="0"/>
        <pt x="523" y="264" on="0"/>
        <pt x="516" y="244" on="0"/>
        <pt x="503" y="227" on="0"/>
        <pt x="493" y="217" on="1"/>
        <pt x="505" y="207" on="0"/>
        <pt x="525" y="168" on="0"/>
        <pt x="525" y="135" on="1"/>
        <pt x="525" y="0" on="1"/>
        <pt x="353" y="0" on="1"/>
        <pt x="353" y="131" on="1"/>
        <pt x="353" y="168" on="0"/>
      </contour>
      <contour>
        <pt x="331" y="282" on="1"/>
        <pt x="340" y="282" on="0"/>
        <pt x="353" y="293" on="0"/>
        <pt x="353" y="302" on="1"/>
        <pt x="353" y="311" on="0"/>
        <pt x="340" y="324" on="0"/>
        <pt x="331" y="324" on="1"/>
        <pt x="327" y="324" on="0"/>
        <pt x="323" y="322" on="1"/>
        <pt x="321" y="321" on="0"/>
        <pt x="320" y="320" on="1"/>
        <pt x="331" y="343" on="0"/>
        <pt x="353" y="352" on="1"/>
        <pt x="353" y="551" on="1"/>
        <pt x="353" y="557" on="0"/>
        <pt x="350" y="579" on="0"/>
        <pt x="342" y="587" on="1"/>
        <pt x="334" y="595" on="0"/>
        <pt x="315" y="600" on="0"/>
        <pt x="303" y="600" on="1"/>
        <pt x="233" y="600" on="1"/>
        <pt x="233" y="282" on="1"/>
      </contour>
    </TTGlyph>
    <TTGlyph name="S" xMin="35" yMin="0" xMax="535" yMax="700">
      <contour>
        <pt x="535" y="233" on="1"/>
        <pt x="529" y="239" on="0"/>
        <pt x="520" y="239" on="1"/>
        <pt x="510" y="239" on="0"/>
        <pt x="499" y="227" on="0"/>
        <pt x="499" y="218" on="1"/>
        <pt x="499" y="150" on="1"/>
        <pt x="499" y="139" on="0"/>
        <pt x="495" y="111" on="0"/>
        <pt x="485" y="80" on="0"/>
        <pt x="467" y="49" on="0"/>
        <pt x="452" y="37" on="1"/>
        <pt x="429" y="17" on="0"/>
        <pt x="368" y="0" on="0"/>
        <pt x="317" y="0" on="1"/>
        <pt x="217" y="0" on="1"/>
        <pt x="166" y="0" on="0"/>
        <pt x="105" y="17" on="0"/>
        <pt x="82" y="37" on="1"/>
        <pt x="67" y="49" on="0"/>
        <pt x="49" y="80" on="0"/>
        <pt x="39" y="111" on="0"/>
        <pt x="35" y="139" on="0"/>
        <pt x="35" y="150" on="1"/>
        <pt x="35" y="217" on="1"/>
        <pt x="207" y="217" on="1"/>
        <pt x="207" y="150" on="1"/>
        <pt x="207" y="144" on="0"/>
        <pt x="210" y="122" on="0"/>
        <pt x="218" y="114" on="1"/>
        <pt x="226" y="106" on="0"/>
        <pt x="253" y="100" on="0"/>
        <pt x="267" y="100" on="1"/>
        <pt x="281" y="100" on="0"/>
        <pt x="308" y="106" on="0"/>
        <pt x="316" y="114" on="1"/>
        <pt x="324" y="122" on="0"/>
        <pt x="327" y="144" on="0"/>
        <pt x="327" y="150" on="1"/>
        <pt x="327" y="218" on="1"/>
        <pt x="327" y="227" on="0"/>
        <pt x="316" y="239" on="0"/>
        <pt x="306" y="239" on="1"/>
        <pt x="297" y="239" on="0"/>
        <pt x="291" y="233" on="1"/>
        <pt x="293" y="247" on="0"/>
        <pt x="312" y="270" on="0"/>
        <pt x="325" y="277" on="1"/>
        <pt x="325" y="285" on="1"/>
        <pt x="325" y="291" on="0"/>
        <pt x="321" y="305" on="0"/>
        <pt x="316" y="310" on="1"/>
        <pt x="313" y="312" on="0"/>
        <pt x="297" y="323" on="0"/>
        <pt x="277" y="323" on="1"/>
        <pt x="162" y="323" on="1"/>
        <pt x="136" y="323" on="0"/>
        <pt x="93" y="332" on="0"/>
        <pt x="74" y="346" on="1"/>
        <pt x="55" y="361" on="0"/>
        <pt x="35" y="405" on="0"/>
        <pt x="35" y="442" on="1"/>
        <pt x="35" y="553" on="1"/>
        <pt x="35" y="584" on="0"/>
        <pt x="56" y="639" on="0"/>
        <pt x="82" y="663" on="1"/>
        <pt x="107" y="684" on="0"/>
        <pt x="166" y="700" on="0"/>
        <pt x="207" y="700" on="1"/>
        <pt x="317" y="700" on="1"/>
        <pt x="368" y="700" on="0"/>
        <pt x="429" y="683" on="0"/>
        <pt x="452" y="663" on="1"/>
        <pt x="466" y="651" on="0"/>
        <pt x="484" y="621" on="0"/>
        <pt x="495" y="591" on="0"/>
        <pt x="499" y="563" on="0"/>
        <pt x="499" y="553" on="1"/>
        <pt x="499" y="498" on="1"/>
        <pt x="327" y="498" on="1"/>
        <pt x="327" y="550" on="1"/>
        <pt x="327" y="556" on="0"/>
        <pt x="324" y="578" on="0"/>
        <pt x="316" y="586" on="1"/>
        <pt x="308" y="594" on="0"/>
        <pt x="281" y="600" on="0"/>
        <pt x="267" y="600" on="1"/>
        <pt x="253" y="600" on="0"/>
        <pt x="226" y="594" on="0"/>
        <pt x="218" y="586" on="1"/>
        <pt x="210" y="578" on="0"/>
        <pt x="207" y="556" on="0"/>
        <pt x="207" y="550" on="1"/>
        <pt x="207" y="480" on="1"/>
        <pt x="207" y="469" on="0"/>
        <pt x="212" y="449" on="0"/>
        <pt x="219" y="441" on="1"/>
        <pt x="230" y="430" on="0"/>
        <pt x="253" y="424" on="0"/>
        <pt x="263" y="424" on="1"/>
        <pt x="367" y="424" on="1"/>
        <pt x="402" y="424" on="0"/>
        <pt x="448" y="413" on="0"/>
        <pt x="463" y="402" on="1"/>
        <pt x="479" y="391" on="0"/>
        <pt x="499" y="358" on="0"/>
        <pt x="499" y="337" on="1"/>
        <pt x="499" y="278" on="1"/>
        <pt x="513" y="272" on="0"/>
        <pt x="532" y="247" on="0"/>
      </contour>
    </TTGlyph>
    <TTGlyph name="T" xMin="25" yMin="0" xMax="488" yMax="690">
      <contour>
        <pt x="488" y="690" on="1"/>
        <pt x="488" y="590" on="1"/>
        <pt x="338" y="590" on="1"/>
        <pt x="338" y="278" on="1"/>
        <pt x="352" y="272" on="0"/>
        <pt x="371" y="248" on="0"/>
        <pt x="374" y="233" on="1"/>
        <pt x="368" y="239" on="0"/>
        <pt x="359" y="239" on="1"/>
        <pt x="349" y="239" on="0"/>
        <pt x="338" y="227" on="0"/>
        <pt x="338" y="218" on="1"/>
        <pt x="338" y="0" on="1"/>
        <pt x="166" y="0" on="1"/>
        <pt x="166" y="218" on="1"/>
        <pt x="166" y="227" on="0"/>
        <pt x="155" y="239" on="0"/>
        <pt x="145" y="239" on="1"/>
        <pt x="136" y="239" on="0"/>
        <pt x="130" y="233" on="1"/>
        <pt x="133" y="248" on="0"/>
        <pt x="152" y="272" on="0"/>
        <pt x="166" y="278" on="1"/>
        <pt x="166" y="590" on="1"/>
        <pt x="25" y="590" on="1"/>
        <pt x="25" y="690" on="1"/>
      </contour>
    </TTGlyph>
    <TTGlyph name="U" xMin="25" yMin="0" xMax="561" yMax="690">
      <contour>
        <pt x="61" y="690" on="1"/>
        <pt x="233" y="690" on="1"/>
        <pt x="233" y="278" on="1"/>
        <pt x="247" y="271" on="0"/>
        <pt x="266" y="248" on="0"/>
        <pt x="269" y="233" on="1"/>
        <pt x="263" y="239" on="0"/>
        <pt x="254" y="239" on="1"/>
        <pt x="244" y="239" on="0"/>
        <pt x="233" y="227" on="0"/>
        <pt x="233" y="218" on="1"/>
        <pt x="233" y="160" on="1"/>
        <pt x="233" y="153" on="0"/>
        <pt x="236" y="131" on="0"/>
        <pt x="242" y="123" on="1"/>
        <pt x="250" y="111" on="0"/>
        <pt x="280" y="100" on="0"/>
        <pt x="292" y="100" on="1"/>
        <pt x="299" y="100" on="1"/>
        <pt x="308" y="100" on="0"/>
        <pt x="336" y="111" on="0"/>
        <pt x="344" y="123" on="1"/>
        <pt x="350" y="131" on="0"/>
        <pt x="353" y="153" on="0"/>
        <pt x="353" y="160" on="1"/>
        <pt x="353" y="218" on="1"/>
        <pt x="353" y="227" on="0"/>
        <pt x="342" y="239" on="0"/>
        <pt x="332" y="239" on="1"/>
        <pt x="323" y="239" on="0"/>
        <pt x="317" y="233" on="1"/>
        <pt x="320" y="247" on="0"/>
        <pt x="339" y="272" on="0"/>
        <pt x="353" y="278" on="1"/>
        <pt x="353" y="690" on="1"/>
        <pt x="525" y="690" on="1"/>
        <pt x="525" y="278" on="1"/>
        <pt x="539" y="272" on="0"/>
        <pt x="558" y="247" on="0"/>
        <pt x="561" y="233" on="1"/>
        <pt x="555" y="239" on="0"/>
        <pt x="546" y="239" on="1"/>
        <pt x="536" y="239" on="0"/>
        <pt x="525" y="227" on="0"/>
        <pt x="525" y="218" on="1"/>
        <pt x="525" y="152" on="1"/>
        <pt x="525" y="120" on="0"/>
        <pt x="504" y="64" on="0"/>
        <pt x="484" y="44" on="1"/>
        <pt x="461" y="21" on="0"/>
        <pt x="383" y="0" on="0"/>
        <pt x="333" y="0" on="1"/>
        <pt x="253" y="0" on="1"/>
        <pt x="203" y="0" on="0"/>
        <pt x="125" y="21" on="0"/>
        <pt x="102" y="44" on="1"/>
        <pt x="81" y="64" on="0"/>
        <pt x="61" y="114" on="0"/>
        <pt x="61" y="142" on="1"/>
        <pt x="61" y="219" on="1"/>
        <pt x="61" y="228" on="0"/>
        <pt x="50" y="240" on="0"/>
        <pt x="40" y="240" on="1"/>
        <pt x="31" y="240" on="0"/>
        <pt x="25" y="234" on="1"/>
        <pt x="28" y="248" on="0"/>
        <pt x="47" y="271" on="0"/>
        <pt x="61" y="278" on="1"/>
      </contour>
    </TTGlyph>
    <TTGlyph name="V" xMin="35" yMin="0" xMax="521" yMax="690">
      <contour>
        <pt x="80" y="192" on="1"/>
        <pt x="79" y="194" on="0"/>
        <pt x="78" y="197" on="1"/>
        <pt x="77" y="199" on="0"/>
        <pt x="77" y="206" on="0"/>
        <pt x="77" y="209" on="1"/>
        <pt x="77" y="228" on="0"/>
        <pt x="90" y="244" on="1"/>
        <pt x="35" y="389" on="1"/>
        <pt x="35" y="690" on="1"/>
        <pt x="207" y="690" on="1"/>
        <pt x="207" y="414" on="1"/>
        <pt x="231" y="326" on="1"/>
        <pt x="250" y="326" on="0"/>
        <pt x="269" y="307" on="0"/>
        <pt x="269" y="295" on="1"/>
        <pt x="258" y="295" on="0"/>
        <pt x="251" y="277" on="0"/>
        <pt x="254" y="268" on="1"/>
        <pt x="278" y="198" on="1"/>
        <pt x="302" y="268" on="1"/>
        <pt x="305" y="277" on="0"/>
        <pt x="298" y="295" on="0"/>
        <pt x="287" y="295" on="1"/>
        <pt x="287" y="307" on="0"/>
        <pt x="306" y="326" on="0"/>
        <pt x="325" y="326" on="1"/>
        <pt x="349" y="414" on="1"/>
        <pt x="349" y="690" on="1"/>
        <pt x="521" y="690" on="1"/>
        <pt x="521" y="389" on="1"/>
        <pt x="466" y="244" on="1"/>
        <pt x="479" y="228" on="0"/>
        <pt x="479" y="209" on="1"/>
        <pt x="479" y="203" on="0"/>
        <pt x="477" y="197" on="1"/>
        <pt x="476" y="194" on="0"/>
        <pt x="476" y="192" on="1"/>
        <pt x="475" y="194" on="0"/>
        <pt x="466" y="205" on="0"/>
        <pt x="457" y="205" on="1"/>
        <pt x="447" y="205" on="0"/>
        <pt x="440" y="195" on="0"/>
        <pt x="438" y="190" on="1"/>
        <pt x="372" y="0" on="1"/>
        <pt x="184" y="0" on="1"/>
        <pt x="117" y="193" on="1"/>
        <pt x="115" y="198" on="0"/>
        <pt x="107" y="205" on="0"/>
        <pt x="99" y="205" on="1"/>
        <pt x="90" y="205" on="0"/>
        <pt x="81" y="194" on="0"/>
      </contour>
    </TTGlyph>
    <TTGlyph name="W" xMin="25" yMin="0" xMax="853" yMax="690">
      <contour>
        <pt x="61" y="218" on="1"/>
        <pt x="61" y="227" on="0"/>
        <pt x="50" y="239" on="0"/>
        <pt x="40" y="239" on="1"/>
        <pt x="31" y="239" on="0"/>
        <pt x="25" y="233" on="1"/>
        <pt x="27" y="248" on="0"/>
        <pt x="47" y="272" on="0"/>
        <pt x="61" y="278" on="1"/>
        <pt x="61" y="690" on="1"/>
        <pt x="233" y="690" on="1"/>
        <pt x="233" y="278" on="1"/>
        <pt x="247" y="272" on="0"/>
        <pt x="266" y="247" on="0"/>
        <pt x="269" y="233" on="1"/>
        <pt x="263" y="239" on="0"/>
        <pt x="254" y="239" on="1"/>
        <pt x="244" y="239" on="0"/>
        <pt x="233" y="227" on="0"/>
        <pt x="233" y="218" on="1"/>
        <pt x="233" y="164" on="1"/>
        <pt x="233" y="158" on="0"/>
        <pt x="234" y="139" on="0"/>
        <pt x="238" y="131" on="1"/>
        <pt x="246" y="116" on="0"/>
        <pt x="271" y="104" on="0"/>
        <pt x="291" y="104" on="1"/>
        <pt x="304" y="104" on="0"/>
        <pt x="324" y="108" on="0"/>
        <pt x="334" y="115" on="1"/>
        <pt x="345" y="123" on="0"/>
        <pt x="353" y="146" on="0"/>
        <pt x="353" y="159" on="1"/>
        <pt x="353" y="218" on="1"/>
        <pt x="353" y="227" on="0"/>
        <pt x="342" y="239" on="0"/>
        <pt x="332" y="239" on="1"/>
        <pt x="323" y="239" on="0"/>
        <pt x="317" y="233" on="1"/>
        <pt x="320" y="249" on="0"/>
        <pt x="338" y="274" on="0"/>
        <pt x="353" y="279" on="1"/>
        <pt x="353" y="690" on="1"/>
        <pt x="525" y="690" on="1"/>
        <pt x="525" y="279" on="1"/>
        <pt x="555" y="267" on="0"/>
        <pt x="561" y="233" on="1"/>
        <pt x="555" y="239" on="0"/>
        <pt x="546" y="239" on="1"/>
        <pt x="536" y="239" on="0"/>
        <pt x="525" y="227" on="0"/>
        <pt x="525" y="218" on="1"/>
        <pt x="525" y="159" on="1"/>
        <pt x="525" y="146" on="0"/>
        <pt x="533" y="123" on="0"/>
        <pt x="544" y="115" on="1"/>
        <pt x="554" y="108" on="0"/>
        <pt x="574" y="104" on="0"/>
        <pt x="587" y="104" on="1"/>
        <pt x="607" y="104" on="0"/>
        <pt x="632" y="116" on="0"/>
        <pt x="640" y="131" on="1"/>
        <pt x="644" y="139" on="0"/>
        <pt x="645" y="158" on="0"/>
        <pt x="645" y="164" on="1"/>
        <pt x="645" y="218" on="1"/>
        <pt x="645" y="227" on="0"/>
        <pt x="634" y="239" on="0"/>
        <pt x="624" y="239" on="1"/>
        <pt x="615" y="239" on="0"/>
        <pt x="609" y="233" on="1"/>
        <pt x="612" y="247" on="0"/>
        <pt x="631" y="272" on="0"/>
        <pt x="645" y="278" on="1"/>
        <pt x="645" y="690" on="1"/>
        <pt x="817" y="690" on="1"/>
        <pt x="817" y="278" on="1"/>
        <pt x="831" y="272" on="0"/>
        <pt x="851" y="248" on="0"/>
        <pt x="853" y="233" on="1"/>
        <pt x="847" y="239" on="0"/>
        <pt x="838" y="239" on="1"/>
        <pt x="828" y="239" on="0"/>
        <pt x="817" y="227" on="0"/>
        <pt x="817" y="218" on="1"/>
        <pt x="817" y="147" on="1"/>
        <pt x="817" y="94" on="0"/>
        <pt x="791" y="60" on="1"/>
        <pt x="778" y="43" on="0"/>
        <pt x="749" y="21" on="0"/>
        <pt x="713" y="6" on="0"/>
        <pt x="666" y="0" on="0"/>
        <pt x="634" y="0" on="1"/>
        <pt x="581" y="0" on="1"/>
        <pt x="545" y="0" on="0"/>
        <pt x="487" y="15" on="0"/>
        <pt x="466" y="39" on="1"/>
        <pt x="452" y="54" on="0"/>
        <pt x="440" y="88" on="0"/>
        <pt x="439" y="102" on="1"/>
        <pt x="437" y="88" on="0"/>
        <pt x="426" y="54" on="0"/>
        <pt x="412" y="39" on="1"/>
        <pt x="391" y="15" on="0"/>
        <pt x="333" y="0" on="0"/>
        <pt x="297" y="0" on="1"/>
        <pt x="244" y="0" on="1"/>
        <pt x="212" y="0" on="0"/>
        <pt x="165" y="6" on="0"/>
        <pt x="129" y="21" on="0"/>
        <pt x="100" y="43" on="0"/>
        <pt x="87" y="60" on="1"/>
        <pt x="61" y="94" on="0"/>
        <pt x="61" y="147" on="1"/>
      </contour>
    </TTGlyph>
    <TTGlyph name="X" xMin="15" yMin="0" xMax="607" yMax="690">
      <contour>
        <pt x="150" y="381" on="1"/>
        <pt x="48" y="690" on="1"/>
        <pt x="239" y="690" on="1"/>
        <pt x="311" y="446" on="1"/>
        <pt x="383" y="690" on="1"/>
        <pt x="574" y="690" on="1"/>
        <pt x="472" y="381" on="1"/>
        <pt x="496" y="313" on="1"/>
        <pt x="495" y="313" on="1"/>
        <pt x="509" y="313" on="0"/>
        <pt x="528" y="303" on="0"/>
        <pt x="536" y="292" on="1"/>
        <pt x="531" y="292" on="1"/>
        <pt x="518" y="292" on="0"/>
        <pt x="509" y="272" on="0"/>
        <pt x="513" y="261" on="1"/>
        <pt x="607" y="0" on="1"/>
        <pt x="423" y="0" on="1"/>
        <pt x="355" y="198" on="1"/>
        <pt x="350" y="212" on="0"/>
        <pt x="335" y="212" on="1"/>
        <pt x="326" y="212" on="0"/>
        <pt x="318" y="205" on="0"/>
        <pt x="317" y="203" on="1"/>
        <pt x="316" y="204" on="0"/>
        <pt x="316" y="205" on="1"/>
        <pt x="316" y="210" on="1"/>
        <pt x="316" y="234" on="0"/>
        <pt x="332" y="252" on="1"/>
        <pt x="311" y="311" on="1"/>
        <pt x="290" y="252" on="1"/>
        <pt x="306" y="234" on="0"/>
        <pt x="306" y="210" on="1"/>
        <pt x="306" y="208" on="0"/>
        <pt x="305" y="206" on="0"/>
        <pt x="305" y="205" on="1"/>
        <pt x="305" y="203" on="1"/>
        <pt x="304" y="205" on="0"/>
        <pt x="296" y="212" on="0"/>
        <pt x="287" y="212" on="1"/>
        <pt x="272" y="212" on="0"/>
        <pt x="267" y="198" on="1"/>
        <pt x="199" y="0" on="1"/>
        <pt x="15" y="0" on="1"/>
        <pt x="109" y="261" on="1"/>
        <pt x="113" y="272" on="0"/>
        <pt x="104" y="292" on="0"/>
        <pt x="91" y="292" on="1"/>
        <pt x="86" y="292" on="1"/>
        <pt x="98" y="313" on="0"/>
        <pt x="126" y="313" on="1"/>
      </contour>
    </TTGlyph>
    <TTGlyph name="Y" xMin="35" yMin="0" xMax="499" yMax="690">
      <contour>
        <pt x="390" y="203" on="1"/>
        <pt x="384" y="209" on="0"/>
        <pt x="375" y="209" on="1"/>
        <pt x="365" y="209" on="0"/>
        <pt x="354" y="197" on="0"/>
        <pt x="354" y="188" on="1"/>
        <pt x="354" y="0" on="1"/>
        <pt x="182" y="0" on="1"/>
        <pt x="182" y="188" on="1"/>
        <pt x="182" y="197" on="0"/>
        <pt x="171" y="209" on="0"/>
        <pt x="161" y="209" on="1"/>
        <pt x="152" y="209" on="0"/>
        <pt x="146" y="203" on="1"/>
        <pt x="146" y="217" on="0"/>
        <pt x="164" y="243" on="0"/>
        <pt x="177" y="248" on="1"/>
        <pt x="140" y="252" on="0"/>
        <pt x="84" y="277" on="0"/>
        <pt x="61" y="306" on="1"/>
        <pt x="44" y="329" on="0"/>
        <pt x="35" y="379" on="0"/>
        <pt x="35" y="405" on="1"/>
        <pt x="35" y="690" on="1"/>
        <pt x="207" y="690" on="1"/>
        <pt x="207" y="410" on="1"/>
        <pt x="207" y="400" on="0"/>
        <pt x="208" y="385" on="0"/>
        <pt x="212" y="377" on="1"/>
        <pt x="229" y="346" on="0"/>
        <pt x="267" y="346" on="1"/>
        <pt x="305" y="346" on="0"/>
        <pt x="322" y="377" on="1"/>
        <pt x="326" y="385" on="0"/>
        <pt x="327" y="401" on="0"/>
        <pt x="327" y="411" on="1"/>
        <pt x="327" y="690" on="1"/>
        <pt x="499" y="690" on="1"/>
        <pt x="499" y="405" on="1"/>
        <pt x="499" y="379" on="0"/>
        <pt x="490" y="329" on="0"/>
        <pt x="473" y="306" on="1"/>
        <pt x="453" y="281" on="0"/>
        <pt x="394" y="252" on="0"/>
        <pt x="359" y="248" on="1"/>
        <pt x="370" y="243" on="0"/>
        <pt x="383" y="229" on="0"/>
        <pt x="386" y="221" on="1"/>
        <pt x="390" y="212" on="0"/>
      </contour>
    </TTGlyph>
    <TTGlyph name="Z" xMin="25" yMin="0" xMax="512" yMax="690">
      <contour>
        <pt x="274" y="590" on="1"/>
        <pt x="47" y="590" on="1"/>
        <pt x="47" y="690" on="1"/>
        <pt x="505" y="690" on="1"/>
        <pt x="319" y="251" on="1"/>
        <pt x="335" y="233" on="0"/>
        <pt x="335" y="210" on="1"/>
        <pt x="335" y="208" on="0"/>
        <pt x="334" y="205" on="0"/>
        <pt x="334" y="204" on="1"/>
        <pt x="334" y="202" on="1"/>
        <pt x="333" y="204" on="0"/>
        <pt x="325" y="212" on="0"/>
        <pt x="316" y="212" on="1"/>
        <pt x="302" y="212" on="0"/>
        <pt x="296" y="198" on="1"/>
        <pt x="254" y="100" on="1"/>
        <pt x="512" y="100" on="1"/>
        <pt x="512" y="0" on="1"/>
        <pt x="25" y="0" on="1"/>
        <pt x="133" y="261" on="1"/>
        <pt x="135" y="267" on="0"/>
        <pt x="135" y="271" on="1"/>
        <pt x="135" y="279" on="0"/>
        <pt x="124" y="292" on="0"/>
        <pt x="115" y="292" on="1"/>
        <pt x="109" y="292" on="1"/>
        <pt x="112" y="298" on="0"/>
        <pt x="118" y="302" on="1"/>
        <pt x="123" y="306" on="0"/>
        <pt x="141" y="313" on="0"/>
        <pt x="155" y="313" on="1"/>
      </contour>
    </TTGlyph>
    <TTGlyph name="a" xMin="25" yMin="-6" xMax="535" yMax="552">
      <contour>
        <pt x="327" y="28" on="1"/>
        <pt x="281" y="-6" on="0"/>
        <pt x="217" y="-6" on="1"/>
        <pt x="189" y="-6" on="0"/>
        <pt x="128" y="9" on="0"/>
        <pt x="101" y="32" on="1"/>
        <pt x="83" y="47" on="0"/>
        <pt x="63" y="80" on="0"/>
        <pt x="52" y="111" on="0"/>
        <pt x="49" y="140" on="0"/>
        <pt x="49" y="151" on="1"/>
        <pt x="49" y="232" on="1"/>
        <pt x="49" y="241" on="0"/>
        <pt x="38" y="253" on="0"/>
        <pt x="25" y="253" on="1"/>
        <pt x="35" y="264" on="0"/>
        <pt x="67" y="275" on="0"/>
        <pt x="87" y="275" on="1"/>
        <pt x="93" y="283" on="0"/>
        <pt x="116" y="305" on="0"/>
        <pt x="152" y="326" on="0"/>
        <pt x="202" y="340" on="0"/>
        <pt x="235" y="340" on="1"/>
        <pt x="258" y="340" on="0"/>
        <pt x="293" y="337" on="0"/>
        <pt x="304" y="335" on="1"/>
        <pt x="317" y="333" on="0"/>
        <pt x="327" y="331" on="1"/>
        <pt x="327" y="393" on="1"/>
        <pt x="327" y="408" on="0"/>
        <pt x="317" y="429" on="0"/>
        <pt x="311" y="435" on="1"/>
        <pt x="294" y="452" on="0"/>
        <pt x="267" y="452" on="1"/>
        <pt x="76" y="452" on="1"/>
        <pt x="76" y="552" on="1"/>
        <pt x="316" y="552" on="1"/>
        <pt x="367" y="552" on="0"/>
        <pt x="428" y="535" on="0"/>
        <pt x="452" y="515" on="1"/>
        <pt x="467" y="503" on="0"/>
        <pt x="485" y="472" on="0"/>
        <pt x="495" y="441" on="0"/>
        <pt x="499" y="412" on="0"/>
        <pt x="499" y="402" on="1"/>
        <pt x="499" y="278" on="1"/>
        <pt x="513" y="272" on="0"/>
        <pt x="531" y="247" on="0"/>
        <pt x="535" y="233" on="1"/>
        <pt x="529" y="239" on="0"/>
        <pt x="519" y="239" on="1"/>
        <pt x="510" y="239" on="0"/>
        <pt x="499" y="227" on="0"/>
        <pt x="499" y="218" on="1"/>
        <pt x="499" y="0" on="1"/>
        <pt x="327" y="0" on="1"/>
      </contour>
      <contour>
        <pt x="224" y="204" on="1"/>
        <pt x="253" y="189" on="0"/>
        <pt x="253" y="155" on="1"/>
        <pt x="253" y="143" on="0"/>
        <pt x="249" y="134" on="1"/>
        <pt x="247" y="148" on="0"/>
        <pt x="235" y="148" on="1"/>
        <pt x="227" y="148" on="0"/>
        <pt x="220" y="138" on="0"/>
        <pt x="220" y="131" on="1"/>
        <pt x="220" y="116" on="0"/>
        <pt x="231" y="108" on="1"/>
        <pt x="235" y="105" on="0"/>
        <pt x="240" y="103" on="1"/>
        <pt x="250" y="98" on="0"/>
        <pt x="267" y="98" on="1"/>
        <pt x="295" y="98" on="0"/>
        <pt x="327" y="135" on="0"/>
        <pt x="327" y="160" on="1"/>
        <pt x="327" y="206" on="1"/>
        <pt x="327" y="228" on="0"/>
        <pt x="311" y="237" on="1"/>
        <pt x="299" y="240" on="0"/>
        <pt x="281" y="240" on="1"/>
        <pt x="255" y="240" on="0"/>
        <pt x="227" y="220" on="0"/>
      </contour>
    </TTGlyph>
    <TTGlyph name="ampersand" xMin="25" yMin="-125" xMax="700" yMax="700">
      <contour>
        <pt x="61" y="317" on="1"/>
        <pt x="61" y="338" on="0"/>
        <pt x="75" y="368" on="0"/>
        <pt x="87" y="379" on="1"/>
        <pt x="96" y="387" on="0"/>
        <pt x="117" y="398" on="0"/>
        <pt x="123" y="400" on="1"/>
        <pt x="100" y="409" on="0"/>
        <pt x="75" y="433" on="0"/>
        <pt x="63" y="457" on="0"/>
        <pt x="61" y="477" on="0"/>
        <pt x="61" y="482" on="1"/>
        <pt x="61" y="589" on="1"/>
        <pt x="61" y="629" on="0"/>
        <pt x="88" y="670" on="0"/>
        <pt x="99" y="678" on="1"/>
        <pt x="113" y="688" on="0"/>
        <pt x="151" y="700" on="0"/>
        <pt x="180" y="700" on="1"/>
        <pt x="406" y="700" on="1"/>
        <pt x="435" y="700" on="0"/>
        <pt x="474" y="688" on="0"/>
        <pt x="488" y="678" on="1"/>
        <pt x="499" y="670" on="0"/>
        <pt x="525" y="627" on="0"/>
        <pt x="525" y="589" on="1"/>
        <pt x="525" y="477" on="1"/>
        <pt x="525" y="445" on="0"/>
        <pt x="509" y="413" on="0"/>
        <pt x="486" y="402" on="1"/>
        <pt x="385" y="360" on="1"/>
        <pt x="411" y="317" on="1"/>
        <pt x="426" y="317" on="0"/>
        <pt x="449" y="309" on="0"/>
        <pt x="460" y="296" on="1"/>
        <pt x="458" y="297" on="0"/>
        <pt x="454" y="297" on="1"/>
        <pt x="445" y="297" on="0"/>
        <pt x="433" y="285" on="0"/>
        <pt x="433" y="277" on="1"/>
        <pt x="433" y="270" on="0"/>
        <pt x="436" y="266" on="1"/>
        <pt x="485" y="193" on="1"/>
        <pt x="596" y="309" on="1"/>
        <pt x="700" y="209" on="1"/>
        <pt x="565" y="74" on="1"/>
        <pt x="645" y="-44" on="1"/>
        <pt x="498" y="-125" on="1"/>
        <pt x="413" y="0" on="1"/>
        <pt x="194" y="0" on="1"/>
        <pt x="159" y="0" on="0"/>
        <pt x="114" y="11" on="0"/>
        <pt x="99" y="22" on="1"/>
        <pt x="76" y="38" on="0"/>
        <pt x="61" y="86" on="0"/>
        <pt x="61" y="114" on="1"/>
        <pt x="61" y="211" on="1"/>
        <pt x="61" y="219" on="0"/>
        <pt x="48" y="232" on="0"/>
        <pt x="40" y="232" on="1"/>
        <pt x="31" y="232" on="0"/>
        <pt x="25" y="226" on="1"/>
        <pt x="28" y="241" on="0"/>
        <pt x="47" y="265" on="0"/>
        <pt x="61" y="271" on="1"/>
      </contour>
      <contour>
        <pt x="240" y="466" on="1"/>
        <pt x="245" y="458" on="0"/>
        <pt x="267" y="442" on="0"/>
        <pt x="283" y="442" on="1"/>
        <pt x="302" y="442" on="0"/>
        <pt x="337" y="448" on="0"/>
        <pt x="347" y="461" on="1"/>
        <pt x="353" y="468" on="0"/>
        <pt x="353" y="483" on="1"/>
        <pt x="353" y="564" on="1"/>
        <pt x="353" y="571" on="0"/>
        <pt x="347" y="587" on="0"/>
        <pt x="339" y="592" on="1"/>
        <pt x="329" y="598" on="0"/>
        <pt x="313" y="598" on="1"/>
        <pt x="271" y="598" on="1"/>
        <pt x="256" y="598" on="0"/>
        <pt x="247" y="592" on="1"/>
        <pt x="233" y="582" on="0"/>
        <pt x="233" y="563" on="1"/>
        <pt x="233" y="494" on="1"/>
        <pt x="233" y="488" on="0"/>
        <pt x="235" y="473" on="0"/>
      </contour>
      <contour>
        <pt x="244" y="113" on="1"/>
        <pt x="250" y="107" on="0"/>
        <pt x="270" y="100" on="0"/>
        <pt x="288" y="100" on="1"/>
        <pt x="344" y="100" on="1"/>
        <pt x="273" y="203" on="1"/>
        <pt x="269" y="208" on="0"/>
        <pt x="261" y="213" on="0"/>
        <pt x="257" y="215" on="1"/>
        <pt x="253" y="217" on="0"/>
        <pt x="249" y="217" on="1"/>
        <pt x="233" y="217" on="1"/>
        <pt x="233" y="152" on="1"/>
        <pt x="233" y="141" on="0"/>
        <pt x="237" y="121" on="0"/>
      </contour>
    </TTGlyph>
    <TTGlyph name="asciicircum" xMin="35" yMin="618" xMax="347" yMax="870">
      <contour>
        <pt x="347" y="618" on="1"/>
        <pt x="263" y="618" on="1"/>
        <pt x="191" y="791" on="1"/>
        <pt x="119" y="618" on="1"/>
        <pt x="35" y="618" on="1"/>
        <pt x="145" y="870" on="1"/>
        <pt x="237" y="870" on="1"/>
      </contour>
    </TTGlyph>
    <TTGlyph name="asciitilde" xMin="35" yMin="298" xMax="436" yMax="453">
      <contour>
        <pt x="291" y="409" on="1"/>
        <pt x="305" y="409" on="0"/>
        <pt x="318" y="415" on="0"/>
        <pt x="323" y="419" on="1"/>
        <pt x="335" y="431" on="0"/>
        <pt x="335" y="453" on="1"/>
        <pt x="436" y="453" on="1"/>
        <pt x="436" y="424" on="0"/>
        <pt x="426" y="375" on="0"/>
        <pt x="409" y="355" on="1"/>
        <pt x="395" y="338" on="0"/>
        <pt x="341" y="311" on="0"/>
        <pt x="302" y="311" on="1"/>
        <pt x="282" y="311" on="0"/>
        <pt x="249" y="321" on="0"/>
        <pt x="220" y="332" on="0"/>
        <pt x="194" y="342" on="0"/>
        <pt x="180" y="342" on="1"/>
        <pt x="166" y="342" on="0"/>
        <pt x="153" y="336" on="0"/>
        <pt x="148" y="332" on="1"/>
        <pt x="134" y="318" on="0"/>
        <pt x="134" y="298" on="1"/>
        <pt x="35" y="298" on="1"/>
        <pt x="35" y="333" on="0"/>
        <pt x="47" y="377" on="0"/>
        <pt x="62" y="396" on="1"/>
        <pt x="76" y="413" on="0"/>
        <pt x="130" y="440" on="0"/>
        <pt x="169" y="440" on="1"/>
        <pt x="189" y="440" on="0"/>
        <pt x="222" y="430" on="0"/>
        <pt x="251" y="419" on="0"/>
        <pt x="277" y="409" on="0"/>
      </contour>
    </TTGlyph>
    <TTGlyph name="asterisk" xMin="25" yMin="362" xMax="377" yMax="699">
      <contour>
        <pt x="250" y="596" on="1"/>
        <pt x="346" y="629" on="1"/>
        <pt x="377" y="540" on="1"/>
        <pt x="277" y="504" on="1"/>
        <pt x="346" y="423" on="1"/>
        <pt x="269" y="362" on="1"/>
        <pt x="201" y="448" on="1"/>
        <pt x="133" y="362" on="1"/>
        <pt x="56" y="423" on="1"/>
        <pt x="125" y="504" on="1"/>
        <pt x="25" y="540" on="1"/>
        <pt x="56" y="629" on="1"/>
        <pt x="152" y="596" on="1"/>
        <pt x="152" y="699" on="1"/>
        <pt x="250" y="699" on="1"/>
      </contour>
    </TTGlyph>
    <TTGlyph name="at" xMin="25" yMin="-163" xMax="877" yMax="704">
      <contour>
        <pt x="489" y="292" on="1"/>
        <pt x="489" y="347" on="1"/>
        <pt x="489" y="356" on="0"/>
        <pt x="486" y="377" on="0"/>
        <pt x="477" y="394" on="0"/>
        <pt x="460" y="405" on="0"/>
        <pt x="447" y="405" on="1"/>
        <pt x="440" y="405" on="0"/>
        <pt x="431" y="402" on="0"/>
        <pt x="428" y="400" on="1"/>
        <pt x="424" y="397" on="0"/>
        <pt x="421" y="395" on="1"/>
        <pt x="413" y="387" on="0"/>
        <pt x="413" y="373" on="1"/>
        <pt x="413" y="292" on="1"/>
        <pt x="434" y="282" on="0"/>
        <pt x="439" y="259" on="1"/>
        <pt x="434" y="264" on="0"/>
        <pt x="428" y="264" on="1"/>
        <pt x="422" y="264" on="0"/>
        <pt x="413" y="254" on="0"/>
        <pt x="413" y="249" on="1"/>
        <pt x="413" y="183" on="1"/>
        <pt x="413" y="177" on="0"/>
        <pt x="416" y="163" on="0"/>
        <pt x="420" y="158" on="1"/>
        <pt x="430" y="147" on="0"/>
        <pt x="446" y="147" on="1"/>
        <pt x="466" y="147" on="0"/>
        <pt x="489" y="173" on="0"/>
        <pt x="489" y="191" on="1"/>
        <pt x="489" y="249" on="1"/>
        <pt x="489" y="254" on="0"/>
        <pt x="480" y="264" on="0"/>
        <pt x="474" y="264" on="1"/>
        <pt x="468" y="264" on="0"/>
        <pt x="463" y="259" on="1"/>
        <pt x="468" y="282" on="0"/>
      </contour>
      <contour>
        <pt x="327" y="100" on="1"/>
        <pt x="307" y="118" on="0"/>
        <pt x="288" y="175" on="0"/>
        <pt x="288" y="196" on="1"/>
        <pt x="288" y="249" on="1"/>
        <pt x="288" y="254" on="0"/>
        <pt x="279" y="264" on="0"/>
        <pt x="273" y="264" on="1"/>
        <pt x="267" y="264" on="0"/>
        <pt x="262" y="259" on="1"/>
        <pt x="267" y="283" on="0"/>
        <pt x="288" y="292" on="1"/>
        <pt x="288" y="351" on="1"/>
        <pt x="288" y="415" on="0"/>
        <pt x="325" y="450" on="1"/>
        <pt x="339" y="462" on="0"/>
        <pt x="384" y="480" on="0"/>
        <pt x="414" y="480" on="1"/>
        <pt x="457" y="480" on="0"/>
        <pt x="489" y="459" on="1"/>
        <pt x="489" y="475" on="1"/>
        <pt x="614" y="475" on="1"/>
        <pt x="614" y="292" on="1"/>
        <pt x="635" y="283" on="0"/>
        <pt x="640" y="259" on="1"/>
        <pt x="635" y="264" on="0"/>
        <pt x="629" y="264" on="1"/>
        <pt x="623" y="264" on="0"/>
        <pt x="614" y="254" on="0"/>
        <pt x="614" y="249" on="1"/>
        <pt x="614" y="190" on="1"/>
        <pt x="614" y="170" on="0"/>
        <pt x="647" y="145" on="0"/>
        <pt x="669" y="145" on="1"/>
        <pt x="686" y="145" on="0"/>
        <pt x="716" y="161" on="0"/>
        <pt x="725" y="175" on="1"/>
        <pt x="734" y="190" on="0"/>
        <pt x="739" y="233" on="0"/>
        <pt x="739" y="248" on="1"/>
        <pt x="739" y="256" on="0"/>
        <pt x="729" y="267" on="0"/>
        <pt x="721" y="267" on="1"/>
        <pt x="714" y="267" on="0"/>
        <pt x="710" y="264" on="1"/>
        <pt x="715" y="286" on="0"/>
        <pt x="736" y="296" on="1"/>
        <pt x="738" y="296" on="0"/>
        <pt x="740" y="298" on="0"/>
        <pt x="742" y="298" on="1"/>
        <pt x="742" y="339" on="0"/>
        <pt x="727" y="419" on="0"/>
        <pt x="697" y="489" on="0"/>
        <pt x="650" y="546" on="0"/>
        <pt x="619" y="565" on="1"/>
        <pt x="556" y="603" on="0"/>
        <pt x="468" y="606" on="1"/>
        <pt x="460" y="606" on="1"/>
        <pt x="415" y="605" on="0"/>
        <pt x="335" y="588" on="0"/>
        <pt x="303" y="568" on="1"/>
        <pt x="269" y="548" on="0"/>
        <pt x="218" y="489" on="0"/>
        <pt x="184" y="417" on="0"/>
        <pt x="167" y="337" on="0"/>
        <pt x="167" y="298" on="1"/>
        <pt x="191" y="290" on="0"/>
        <pt x="196" y="264" on="1"/>
        <pt x="193" y="267" on="0"/>
        <pt x="188" y="267" on="1"/>
        <pt x="180" y="267" on="0"/>
        <pt x="169" y="260" on="0"/>
        <pt x="169" y="248" on="1"/>
        <pt x="169" y="227" on="0"/>
        <pt x="180" y="156" on="0"/>
        <pt x="208" y="77" on="0"/>
        <pt x="258" y="3" on="0"/>
        <pt x="296" y="-21" on="1"/>
        <pt x="328" y="-41" on="0"/>
        <pt x="401" y="-64" on="0"/>
        <pt x="446" y="-65" on="1"/>
        <pt x="464" y="-65" on="1"/>
        <pt x="551" y="-62" on="0"/>
        <pt x="614" y="-24" on="1"/>
        <pt x="666" y="12" on="0"/>
        <pt x="695" y="53" on="1"/>
        <pt x="777" y="-1" on="1"/>
        <pt x="766" y="-20" on="0"/>
        <pt x="727" y="-65" on="0"/>
        <pt x="707" y="-81" on="1"/>
        <pt x="684" y="-101" on="0"/>
        <pt x="624" y="-131" on="0"/>
        <pt x="559" y="-152" on="0"/>
        <pt x="492" y="-163" on="0"/>
        <pt x="461" y="-163" on="1"/>
        <pt x="445" y="-163" on="1"/>
        <pt x="384" y="-162" on="0"/>
        <pt x="255" y="-124" on="0"/>
        <pt x="202" y="-81" on="1"/>
        <pt x="160" y="-48" on="0"/>
        <pt x="103" y="34" on="0"/>
        <pt x="67" y="121" on="0"/>
        <pt x="51" y="207" on="0"/>
        <pt x="51" y="245" on="1"/>
        <pt x="51" y="267" on="0"/>
        <pt x="35" y="267" on="1"/>
        <pt x="29" y="267" on="0"/>
        <pt x="25" y="263" on="1"/>
        <pt x="27" y="272" on="0"/>
        <pt x="38" y="290" on="0"/>
        <pt x="49" y="296" on="1"/>
        <pt x="49" y="353" on="0"/>
        <pt x="77" y="455" on="0"/>
        <pt x="122" y="540" on="0"/>
        <pt x="179" y="605" on="0"/>
        <pt x="208" y="626" on="1"/>
        <pt x="265" y="668" on="0"/>
        <pt x="398" y="703" on="0"/>
        <pt x="459" y="704" on="1"/>
        <pt x="465" y="704" on="1"/>
        <pt x="527" y="703" on="0"/>
        <pt x="657" y="669" on="0"/>
        <pt x="715" y="624" on="1"/>
        <pt x="746" y="601" on="0"/>
        <pt x="799" y="532" on="0"/>
        <pt x="837" y="447" on="0"/>
        <pt x="859" y="348" on="0"/>
        <pt x="859" y="296" on="1"/>
        <pt x="867" y="291" on="0"/>
        <pt x="877" y="273" on="0"/>
        <pt x="877" y="264" on="1"/>
        <pt x="872" y="267" on="0"/>
        <pt x="867" y="267" on="1"/>
        <pt x="861" y="267" on="0"/>
        <pt x="854" y="260" on="0"/>
        <pt x="852" y="249" on="1"/>
        <pt x="850" y="234" on="0"/>
        <pt x="843" y="201" on="0"/>
        <pt x="832" y="166" on="0"/>
        <pt x="814" y="133" on="0"/>
        <pt x="801" y="119" on="1"/>
        <pt x="783" y="96" on="0"/>
        <pt x="714" y="65" on="0"/>
        <pt x="667" y="65" on="1"/>
        <pt x="632" y="65" on="0"/>
        <pt x="574" y="93" on="0"/>
        <pt x="552" y="117" on="1"/>
        <pt x="528" y="91" on="0"/>
        <pt x="461" y="65" on="0"/>
        <pt x="423" y="65" on="1"/>
        <pt x="383" y="65" on="0"/>
        <pt x="338" y="89" on="0"/>
      </contour>
    </TTGlyph>
    <TTGlyph name="b" xMin="25" yMin="-6" xMax="561" yMax="700">
      <contour>
        <pt x="61" y="700" on="1"/>
        <pt x="233" y="700" on="1"/>
        <pt x="233" y="524" on="1"/>
        <pt x="257" y="538" on="0"/>
        <pt x="315" y="558" on="0"/>
        <pt x="351" y="558" on="1"/>
        <pt x="393" y="558" on="0"/>
        <pt x="459" y="531" on="0"/>
        <pt x="474" y="517" on="1"/>
        <pt x="497" y="497" on="0"/>
        <pt x="525" y="450" on="0"/>
        <pt x="525" y="412" on="1"/>
        <pt x="525" y="278" on="1"/>
        <pt x="539" y="271" on="0"/>
        <pt x="558" y="248" on="0"/>
        <pt x="561" y="233" on="1"/>
        <pt x="555" y="239" on="0"/>
        <pt x="545" y="239" on="1"/>
        <pt x="536" y="239" on="0"/>
        <pt x="525" y="227" on="0"/>
        <pt x="525" y="218" on="1"/>
        <pt x="525" y="138" on="1"/>
        <pt x="525" y="109" on="0"/>
        <pt x="499" y="56" on="0"/>
        <pt x="474" y="35" on="1"/>
        <pt x="459" y="21" on="0"/>
        <pt x="393" y="-6" on="0"/>
        <pt x="351" y="-6" on="1"/>
        <pt x="311" y="-6" on="0"/>
        <pt x="255" y="16" on="0"/>
        <pt x="233" y="35" on="1"/>
        <pt x="233" y="0" on="1"/>
        <pt x="61" y="0" on="1"/>
        <pt x="61" y="218" on="1"/>
        <pt x="61" y="227" on="0"/>
        <pt x="50" y="239" on="0"/>
        <pt x="41" y="239" on="1"/>
        <pt x="31" y="239" on="0"/>
        <pt x="25" y="233" on="1"/>
        <pt x="28" y="247" on="0"/>
        <pt x="47" y="271" on="0"/>
        <pt x="61" y="278" on="1"/>
      </contour>
      <contour>
        <pt x="353" y="401" on="1"/>
        <pt x="353" y="425" on="0"/>
        <pt x="338" y="439" on="1"/>
        <pt x="332" y="444" on="0"/>
        <pt x="314" y="454" on="0"/>
        <pt x="294" y="454" on="1"/>
        <pt x="268" y="454" on="0"/>
        <pt x="233" y="424" on="0"/>
        <pt x="233" y="402" on="1"/>
        <pt x="233" y="278" on="1"/>
        <pt x="247" y="271" on="0"/>
        <pt x="266" y="248" on="0"/>
        <pt x="269" y="233" on="1"/>
        <pt x="263" y="239" on="0"/>
        <pt x="253" y="239" on="1"/>
        <pt x="244" y="239" on="0"/>
        <pt x="233" y="227" on="0"/>
        <pt x="233" y="218" on="1"/>
        <pt x="233" y="158" on="1"/>
        <pt x="233" y="150" on="0"/>
        <pt x="242" y="129" on="0"/>
        <pt x="259" y="111" on="0"/>
        <pt x="284" y="98" on="0"/>
        <pt x="299" y="98" on="1"/>
        <pt x="315" y="98" on="0"/>
        <pt x="335" y="105" on="0"/>
        <pt x="342" y="111" on="1"/>
        <pt x="349" y="118" on="0"/>
        <pt x="353" y="133" on="0"/>
        <pt x="353" y="145" on="1"/>
        <pt x="353" y="218" on="1"/>
        <pt x="353" y="227" on="0"/>
        <pt x="342" y="239" on="0"/>
        <pt x="333" y="239" on="1"/>
        <pt x="322" y="239" on="0"/>
        <pt x="318" y="233" on="1"/>
        <pt x="324" y="264" on="0"/>
        <pt x="353" y="278" on="1"/>
      </contour>
    </TTGlyph>
    <TTGlyph name="backslash" xMin="25" yMin="0" xMax="430" yMax="700">
      <contour>
        <pt x="158" y="700" on="1"/>
        <pt x="158" y="700" on="0"/>
        <pt x="170" y="668" on="0"/>
        <pt x="191" y="615" on="0"/>
        <pt x="217" y="547" on="0"/>
        <pt x="231" y="512" on="1"/>
        <pt x="264" y="429" on="0"/>
        <pt x="304" y="325" on="1"/>
        <pt x="327" y="325" on="0"/>
        <pt x="339" y="305" on="1"/>
        <pt x="337" y="306" on="0"/>
        <pt x="334" y="306" on="1"/>
        <pt x="326" y="306" on="0"/>
        <pt x="317" y="297" on="0"/>
        <pt x="317" y="291" on="1"/>
        <pt x="317" y="288" on="1"/>
        <pt x="317" y="287" on="0"/>
        <pt x="318" y="286" on="1"/>
        <pt x="430" y="0" on="1"/>
        <pt x="297" y="0" on="1"/>
        <pt x="207" y="237" on="1"/>
        <pt x="203" y="247" on="0"/>
        <pt x="194" y="247" on="1"/>
        <pt x="184" y="247" on="0"/>
        <pt x="178" y="238" on="1"/>
        <pt x="178" y="245" on="1"/>
        <pt x="178" y="263" on="0"/>
        <pt x="190" y="278" on="1"/>
        <pt x="25" y="700" on="1"/>
      </contour>
    </TTGlyph>
    <TTGlyph name="bar" xMin="35" yMin="-63" xMax="217" yMax="700">
      <contour>
        <pt x="62" y="700" on="1"/>
        <pt x="190" y="700" on="1"/>
        <pt x="190" y="193" on="1"/>
        <pt x="212" y="184" on="0"/>
        <pt x="217" y="159" on="1"/>
        <pt x="213" y="163" on="0"/>
        <pt x="206" y="163" on="1"/>
        <pt x="190" y="163" on="0"/>
        <pt x="190" y="148" on="1"/>
        <pt x="190" y="-63" on="1"/>
        <pt x="62" y="-63" on="1"/>
        <pt x="62" y="148" on="1"/>
        <pt x="62" y="163" on="0"/>
        <pt x="46" y="163" on="1"/>
        <pt x="39" y="163" on="0"/>
        <pt x="35" y="159" on="1"/>
        <pt x="40" y="184" on="0"/>
        <pt x="62" y="193" on="1"/>
      </contour>
    </TTGlyph>
    <TTGlyph name="braceleft" xMin="25" yMin="-5" xMax="275" yMax="705">
      <contour>
        <pt x="25" y="380" on="1"/>
        <pt x="36" y="386" on="0"/>
        <pt x="62" y="413" on="0"/>
        <pt x="62" y="442" on="1"/>
        <pt x="62" y="595" on="1"/>
        <pt x="62" y="621" on="0"/>
        <pt x="80" y="659" on="0"/>
        <pt x="96" y="673" on="1"/>
        <pt x="117" y="693" on="0"/>
        <pt x="172" y="705" on="0"/>
        <pt x="200" y="705" on="1"/>
        <pt x="224" y="705" on="0"/>
        <pt x="258" y="701" on="0"/>
        <pt x="275" y="698" on="1"/>
        <pt x="259" y="698" on="1"/>
        <pt x="275" y="698" on="1"/>
        <pt x="234" y="693" on="0"/>
        <pt x="187" y="642" on="0"/>
        <pt x="187" y="602" on="1"/>
        <pt x="187" y="441" on="1"/>
        <pt x="187" y="416" on="0"/>
        <pt x="167" y="400" on="1"/>
        <pt x="156" y="392" on="0"/>
        <pt x="121" y="381" on="0"/>
        <pt x="95" y="380" on="1"/>
        <pt x="144" y="377" on="0"/>
        <pt x="167" y="360" on="1"/>
        <pt x="187" y="344" on="0"/>
        <pt x="187" y="319" on="1"/>
        <pt x="187" y="222" on="1"/>
        <pt x="205" y="213" on="0"/>
        <pt x="212" y="190" on="1"/>
        <pt x="208" y="194" on="0"/>
        <pt x="201" y="194" on="1"/>
        <pt x="196" y="194" on="0"/>
        <pt x="186" y="186" on="0"/>
        <pt x="186" y="181" on="1"/>
        <pt x="186" y="98" on="1"/>
        <pt x="186" y="58" on="0"/>
        <pt x="234" y="7" on="0"/>
        <pt x="275" y="2" on="1"/>
        <pt x="259" y="2" on="1"/>
        <pt x="275" y="2" on="1"/>
        <pt x="258" y="-1" on="0"/>
        <pt x="224" y="-5" on="0"/>
        <pt x="200" y="-5" on="1"/>
        <pt x="172" y="-5" on="0"/>
        <pt x="117" y="8" on="0"/>
        <pt x="96" y="27" on="1"/>
        <pt x="62" y="56" on="0"/>
        <pt x="62" y="102" on="1"/>
        <pt x="62" y="179" on="1"/>
        <pt x="62" y="185" on="0"/>
        <pt x="54" y="194" on="0"/>
        <pt x="48" y="194" on="1"/>
        <pt x="43" y="194" on="0"/>
        <pt x="37" y="190" on="1"/>
        <pt x="43" y="213" on="0"/>
        <pt x="62" y="222" on="1"/>
        <pt x="62" y="298" on="1"/>
        <pt x="62" y="318" on="1"/>
        <pt x="62" y="347" on="0"/>
        <pt x="36" y="374" on="0"/>
      </contour>
    </TTGlyph>
    <TTGlyph name="braceright" xMin="25" yMin="-5" xMax="275" yMax="705">
      <contour>
        <pt x="204" y="27" on="1"/>
        <pt x="183" y="8" on="0"/>
        <pt x="128" y="-5" on="0"/>
        <pt x="100" y="-5" on="1"/>
        <pt x="76" y="-5" on="0"/>
        <pt x="42" y="-1" on="0"/>
        <pt x="25" y="2" on="1"/>
        <pt x="66" y="7" on="0"/>
        <pt x="114" y="58" on="0"/>
        <pt x="114" y="98" on="1"/>
        <pt x="114" y="181" on="1"/>
        <pt x="114" y="186" on="0"/>
        <pt x="104" y="194" on="0"/>
        <pt x="99" y="194" on="1"/>
        <pt x="92" y="194" on="0"/>
        <pt x="88" y="190" on="1"/>
        <pt x="94" y="213" on="0"/>
        <pt x="113" y="222" on="1"/>
        <pt x="113" y="319" on="1"/>
        <pt x="113" y="344" on="0"/>
        <pt x="133" y="360" on="1"/>
        <pt x="155" y="377" on="0"/>
        <pt x="205" y="380" on="1"/>
        <pt x="179" y="381" on="0"/>
        <pt x="144" y="392" on="0"/>
        <pt x="133" y="400" on="1"/>
        <pt x="113" y="416" on="0"/>
        <pt x="113" y="441" on="1"/>
        <pt x="113" y="602" on="1"/>
        <pt x="113" y="642" on="0"/>
        <pt x="66" y="693" on="0"/>
        <pt x="25" y="698" on="1"/>
        <pt x="42" y="701" on="0"/>
        <pt x="76" y="705" on="0"/>
        <pt x="100" y="705" on="1"/>
        <pt x="128" y="705" on="0"/>
        <pt x="183" y="693" on="0"/>
        <pt x="204" y="673" on="1"/>
        <pt x="220" y="659" on="0"/>
        <pt x="238" y="621" on="0"/>
        <pt x="238" y="595" on="1"/>
        <pt x="238" y="442" on="1"/>
        <pt x="238" y="413" on="0"/>
        <pt x="264" y="386" on="0"/>
        <pt x="275" y="380" on="1"/>
        <pt x="264" y="374" on="0"/>
        <pt x="238" y="347" on="0"/>
        <pt x="238" y="318" on="1"/>
        <pt x="238" y="222" on="1"/>
        <pt x="256" y="213" on="0"/>
        <pt x="263" y="190" on="1"/>
        <pt x="257" y="194" on="0"/>
        <pt x="252" y="194" on="1"/>
        <pt x="246" y="194" on="0"/>
        <pt x="238" y="185" on="0"/>
        <pt x="238" y="179" on="1"/>
        <pt x="238" y="102" on="1"/>
        <pt x="238" y="56" on="0"/>
      </contour>
    </TTGlyph>
    <TTGlyph name="bracketleft" xMin="25" yMin="0" xMax="270" yMax="700">
      <contour>
        <pt x="50" y="700" on="1"/>
        <pt x="269" y="700" on="1"/>
        <pt x="269" y="600" on="1"/>
        <pt x="173" y="600" on="1"/>
        <pt x="173" y="299" on="1"/>
        <pt x="183" y="294" on="0"/>
        <pt x="196" y="277" on="0"/>
        <pt x="198" y="266" on="1"/>
        <pt x="194" y="270" on="0"/>
        <pt x="187" y="270" on="1"/>
        <pt x="181" y="270" on="0"/>
        <pt x="173" y="261" on="0"/>
        <pt x="173" y="255" on="1"/>
        <pt x="173" y="100" on="1"/>
        <pt x="270" y="100" on="1"/>
        <pt x="270" y="0" on="1"/>
        <pt x="50" y="0" on="1"/>
        <pt x="50" y="255" on="1"/>
        <pt x="50" y="261" on="0"/>
        <pt x="42" y="270" on="0"/>
        <pt x="36" y="270" on="1"/>
        <pt x="29" y="270" on="0"/>
        <pt x="25" y="266" on="1"/>
        <pt x="30" y="289" on="0"/>
        <pt x="50" y="298" on="1"/>
      </contour>
    </TTGlyph>
    <TTGlyph name="bracketright" xMin="25" yMin="0" xMax="270" yMax="700">
      <contour>
        <pt x="122" y="600" on="1"/>
        <pt x="26" y="600" on="1"/>
        <pt x="26" y="700" on="1"/>
        <pt x="245" y="700" on="1"/>
        <pt x="245" y="297" on="1"/>
        <pt x="265" y="288" on="0"/>
        <pt x="270" y="265" on="1"/>
        <pt x="266" y="269" on="0"/>
        <pt x="259" y="269" on="1"/>
        <pt x="253" y="269" on="0"/>
        <pt x="245" y="260" on="0"/>
        <pt x="245" y="254" on="1"/>
        <pt x="245" y="0" on="1"/>
        <pt x="25" y="0" on="1"/>
        <pt x="25" y="100" on="1"/>
        <pt x="122" y="100" on="1"/>
        <pt x="122" y="254" on="1"/>
        <pt x="122" y="260" on="0"/>
        <pt x="114" y="269" on="0"/>
        <pt x="108" y="269" on="1"/>
        <pt x="101" y="269" on="0"/>
        <pt x="97" y="265" on="1"/>
        <pt x="99" y="276" on="0"/>
        <pt x="112" y="293" on="0"/>
        <pt x="122" y="298" on="1"/>
      </contour>
    </TTGlyph>
    <TTGlyph name="bullet" xMin="35" yMin="222" xMax="237" yMax="424">
      <contour>
        <pt x="64" y="395" on="1"/>
        <pt x="93" y="424" on="0"/>
        <pt x="136" y="424" on="1"/>
        <pt x="155" y="424" on="0"/>
        <pt x="193" y="410" on="0"/>
        <pt x="207" y="395" on="1"/>
        <pt x="237" y="363" on="0"/>
        <pt x="237" y="323" on="1"/>
        <pt x="237" y="304" on="0"/>
        <pt x="221" y="266" on="0"/>
        <pt x="207" y="252" on="1"/>
        <pt x="193" y="238" on="0"/>
        <pt x="155" y="222" on="0"/>
        <pt x="136" y="222" on="1"/>
        <pt x="96" y="222" on="0"/>
        <pt x="64" y="252" on="1"/>
        <pt x="49" y="266" on="0"/>
        <pt x="35" y="304" on="0"/>
        <pt x="35" y="323" on="1"/>
        <pt x="35" y="366" on="0"/>
      </contour>
    </TTGlyph>
    <TTGlyph name="c" xMin="25" yMin="0" xMax="412" yMax="552">
      <contour>
        <pt x="61" y="402" on="1"/>
        <pt x="61" y="432" on="0"/>
        <pt x="82" y="493" on="0"/>
        <pt x="108" y="515" on="1"/>
        <pt x="132" y="535" on="0"/>
        <pt x="193" y="552" on="0"/>
        <pt x="244" y="552" on="1"/>
        <pt x="412" y="552" on="1"/>
        <pt x="412" y="452" on="1"/>
        <pt x="293" y="452" on="1"/>
        <pt x="282" y="452" on="0"/>
        <pt x="257" y="443" on="0"/>
        <pt x="249" y="435" on="1"/>
        <pt x="241" y="428" on="0"/>
        <pt x="233" y="408" on="0"/>
        <pt x="233" y="398" on="1"/>
        <pt x="233" y="278" on="1"/>
        <pt x="247" y="272" on="0"/>
        <pt x="266" y="247" on="0"/>
        <pt x="269" y="233" on="1"/>
        <pt x="263" y="239" on="0"/>
        <pt x="253" y="239" on="1"/>
        <pt x="244" y="239" on="0"/>
        <pt x="233" y="227" on="0"/>
        <pt x="233" y="218" on="1"/>
        <pt x="233" y="154" on="1"/>
        <pt x="233" y="144" on="0"/>
        <pt x="241" y="124" on="0"/>
        <pt x="249" y="117" on="1"/>
        <pt x="266" y="100" on="0"/>
        <pt x="293" y="100" on="1"/>
        <pt x="412" y="100" on="1"/>
        <pt x="412" y="0" on="1"/>
        <pt x="244" y="0" on="1"/>
        <pt x="193" y="0" on="0"/>
        <pt x="132" y="17" on="0"/>
        <pt x="108" y="37" on="1"/>
        <pt x="82" y="59" on="0"/>
        <pt x="61" y="120" on="0"/>
        <pt x="61" y="150" on="1"/>
        <pt x="61" y="218" on="1"/>
        <pt x="61" y="227" on="0"/>
        <pt x="50" y="239" on="0"/>
        <pt x="41" y="239" on="1"/>
        <pt x="31" y="239" on="0"/>
        <pt x="25" y="233" on="1"/>
        <pt x="29" y="247" on="0"/>
        <pt x="47" y="272" on="0"/>
        <pt x="61" y="278" on="1"/>
      </contour>
    </TTGlyph>
    <TTGlyph name="colon" xMin="35" yMin="100" xMax="201" yMax="542">
      <contour>
        <pt x="59" y="124" on="1"/>
        <pt x="35" y="148" on="0"/>
        <pt x="35" y="183" on="1"/>
        <pt x="35" y="199" on="0"/>
        <pt x="47" y="230" on="0"/>
        <pt x="59" y="242" on="1"/>
        <pt x="83" y="266" on="0"/>
        <pt x="118" y="266" on="1"/>
        <pt x="134" y="266" on="0"/>
        <pt x="165" y="254" on="0"/>
        <pt x="177" y="242" on="1"/>
        <pt x="201" y="218" on="0"/>
        <pt x="201" y="183" on="1"/>
        <pt x="201" y="167" on="0"/>
        <pt x="189" y="136" on="0"/>
        <pt x="177" y="124" on="1"/>
        <pt x="153" y="100" on="0"/>
        <pt x="118" y="100" on="1"/>
        <pt x="102" y="100" on="0"/>
        <pt x="71" y="112" on="0"/>
      </contour>
      <contour>
        <pt x="59" y="400" on="1"/>
        <pt x="35" y="424" on="0"/>
        <pt x="35" y="459" on="1"/>
        <pt x="35" y="475" on="0"/>
        <pt x="47" y="506" on="0"/>
        <pt x="59" y="518" on="1"/>
        <pt x="83" y="542" on="0"/>
        <pt x="118" y="542" on="1"/>
        <pt x="134" y="542" on="0"/>
        <pt x="165" y="530" on="0"/>
        <pt x="177" y="518" on="1"/>
        <pt x="201" y="494" on="0"/>
        <pt x="201" y="459" on="1"/>
        <pt x="201" y="443" on="0"/>
        <pt x="189" y="412" on="0"/>
        <pt x="177" y="400" on="1"/>
        <pt x="153" y="376" on="0"/>
        <pt x="118" y="376" on="1"/>
        <pt x="102" y="376" on="0"/>
        <pt x="71" y="388" on="0"/>
      </contour>
    </TTGlyph>
    <TTGlyph name="comma" xMin="25" yMin="-111" xMax="197" yMax="164">
      <contour>
        <pt x="110" y="0" on="1"/>
        <pt x="93" y="0" on="0"/>
        <pt x="61" y="10" on="0"/>
        <pt x="49" y="22" on="1"/>
        <pt x="25" y="46" on="0"/>
        <pt x="25" y="81" on="1"/>
        <pt x="25" y="97" on="0"/>
        <pt x="37" y="128" on="0"/>
        <pt x="49" y="140" on="1"/>
        <pt x="73" y="164" on="0"/>
        <pt x="108" y="164" on="1"/>
        <pt x="124" y="164" on="0"/>
        <pt x="155" y="152" on="0"/>
        <pt x="167" y="140" on="1"/>
        <pt x="183" y="124" on="0"/>
        <pt x="197" y="84" on="0"/>
        <pt x="197" y="64" on="1"/>
        <pt x="197" y="3" on="0"/>
        <pt x="123" y="-91" on="0"/>
        <pt x="61" y="-111" on="1"/>
        <pt x="71" y="-105" on="1"/>
        <pt x="61" y="-111" on="1"/>
        <pt x="88" y="-85" on="0"/>
        <pt x="120" y="-34" on="0"/>
        <pt x="120" y="0" on="1"/>
      </contour>
    </TTGlyph>
    <TTGlyph name="d" xMin="25" yMin="-6" xMax="561" yMax="700">
      <contour>
        <pt x="112" y="517" on="1"/>
        <pt x="127" y="531" on="0"/>
        <pt x="193" y="558" on="0"/>
        <pt x="235" y="558" on="1"/>
        <pt x="271" y="558" on="0"/>
        <pt x="330" y="538" on="0"/>
        <pt x="353" y="524" on="1"/>
        <pt x="353" y="700" on="1"/>
        <pt x="525" y="700" on="1"/>
        <pt x="525" y="278" on="1"/>
        <pt x="539" y="272" on="0"/>
        <pt x="557" y="247" on="0"/>
        <pt x="561" y="233" on="1"/>
        <pt x="555" y="239" on="0"/>
        <pt x="545" y="239" on="1"/>
        <pt x="536" y="239" on="0"/>
        <pt x="525" y="227" on="0"/>
        <pt x="525" y="218" on="1"/>
        <pt x="525" y="0" on="1"/>
        <pt x="353" y="0" on="1"/>
        <pt x="353" y="35" on="1"/>
        <pt x="331" y="16" on="0"/>
        <pt x="275" y="-6" on="0"/>
        <pt x="235" y="-6" on="1"/>
        <pt x="193" y="-6" on="0"/>
        <pt x="127" y="21" on="0"/>
        <pt x="112" y="35" on="1"/>
        <pt x="87" y="56" on="0"/>
        <pt x="61" y="109" on="0"/>
        <pt x="61" y="138" on="1"/>
        <pt x="61" y="218" on="1"/>
        <pt x="61" y="227" on="0"/>
        <pt x="50" y="239" on="0"/>
        <pt x="41" y="239" on="1"/>
        <pt x="31" y="239" on="0"/>
        <pt x="25" y="233" on="1"/>
        <pt x="28" y="248" on="0"/>
        <pt x="47" y="271" on="0"/>
        <pt x="61" y="278" on="1"/>
        <pt x="61" y="402" on="1"/>
        <pt x="61" y="440" on="0"/>
        <pt x="89" y="497" on="0"/>
      </contour>
      <contour>
        <pt x="353" y="218" on="1"/>
        <pt x="353" y="227" on="0"/>
        <pt x="342" y="239" on="0"/>
        <pt x="333" y="239" on="1"/>
        <pt x="323" y="239" on="0"/>
        <pt x="317" y="233" on="1"/>
        <pt x="320" y="248" on="0"/>
        <pt x="339" y="271" on="0"/>
        <pt x="353" y="278" on="1"/>
        <pt x="353" y="402" on="1"/>
        <pt x="353" y="424" on="0"/>
        <pt x="318" y="454" on="0"/>
        <pt x="292" y="454" on="1"/>
        <pt x="272" y="454" on="0"/>
        <pt x="254" y="444" on="0"/>
        <pt x="248" y="439" on="1"/>
        <pt x="233" y="425" on="0"/>
        <pt x="233" y="401" on="1"/>
        <pt x="233" y="278" on="1"/>
        <pt x="262" y="265" on="0"/>
        <pt x="268" y="233" on="1"/>
        <pt x="263" y="239" on="0"/>
        <pt x="253" y="239" on="1"/>
        <pt x="244" y="239" on="0"/>
        <pt x="233" y="227" on="0"/>
        <pt x="233" y="218" on="1"/>
        <pt x="233" y="145" on="1"/>
        <pt x="233" y="133" on="0"/>
        <pt x="237" y="118" on="0"/>
        <pt x="244" y="111" on="1"/>
        <pt x="251" y="105" on="0"/>
        <pt x="271" y="98" on="0"/>
        <pt x="287" y="98" on="1"/>
        <pt x="302" y="98" on="0"/>
        <pt x="327" y="111" on="0"/>
        <pt x="344" y="129" on="0"/>
        <pt x="353" y="150" on="0"/>
        <pt x="353" y="158" on="1"/>
      </contour>
    </TTGlyph>
    <TTGlyph name="dollar" xMin="35" yMin="-74" xMax="587" yMax="777">
      <contour>
        <pt x="368" y="700" on="1"/>
        <pt x="400" y="700" on="0"/>
        <pt x="447" y="694" on="0"/>
        <pt x="483" y="679" on="0"/>
        <pt x="512" y="656" on="0"/>
        <pt x="525" y="640" on="1"/>
        <pt x="539" y="624" on="0"/>
        <pt x="551" y="581" on="0"/>
        <pt x="551" y="561" on="1"/>
        <pt x="551" y="478" on="1"/>
        <pt x="379" y="478" on="1"/>
        <pt x="379" y="548" on="1"/>
        <pt x="379" y="559" on="0"/>
        <pt x="374" y="569" on="1"/>
        <pt x="369" y="578" on="0"/>
        <pt x="356" y="590" on="0"/>
        <pt x="350" y="593" on="1"/>
        <pt x="343" y="597" on="0"/>
        <pt x="335" y="598" on="1"/>
        <pt x="335" y="424" on="1"/>
        <pt x="419" y="424" on="1"/>
        <pt x="454" y="424" on="0"/>
        <pt x="500" y="413" on="0"/>
        <pt x="515" y="402" on="1"/>
        <pt x="531" y="391" on="0"/>
        <pt x="551" y="357" on="0"/>
        <pt x="551" y="337" on="1"/>
        <pt x="551" y="275" on="1"/>
        <pt x="565" y="269" on="0"/>
        <pt x="583" y="244" on="0"/>
        <pt x="587" y="230" on="1"/>
        <pt x="581" y="236" on="0"/>
        <pt x="572" y="236" on="1"/>
        <pt x="562" y="236" on="0"/>
        <pt x="551" y="224" on="0"/>
        <pt x="551" y="215" on="1"/>
        <pt x="551" y="150" on="1"/>
        <pt x="551" y="115" on="0"/>
        <pt x="529" y="60" on="0"/>
        <pt x="504" y="37" on="1"/>
        <pt x="481" y="17" on="0"/>
        <pt x="419" y="0" on="0"/>
        <pt x="368" y="0" on="1"/>
        <pt x="335" y="0" on="1"/>
        <pt x="335" y="-74" on="1"/>
        <pt x="251" y="-74" on="1"/>
        <pt x="251" y="0" on="1"/>
        <pt x="218" y="0" on="1"/>
        <pt x="167" y="0" on="0"/>
        <pt x="105" y="17" on="0"/>
        <pt x="82" y="37" on="1"/>
        <pt x="57" y="60" on="0"/>
        <pt x="35" y="115" on="0"/>
        <pt x="35" y="150" on="1"/>
        <pt x="35" y="221" on="1"/>
        <pt x="207" y="221" on="1"/>
        <pt x="207" y="161" on="1"/>
        <pt x="207" y="133" on="0"/>
        <pt x="223" y="117" on="1"/>
        <pt x="235" y="105" on="0"/>
        <pt x="251" y="102" on="1"/>
        <pt x="251" y="323" on="1"/>
        <pt x="158" y="323" on="1"/>
        <pt x="126" y="323" on="0"/>
        <pt x="90" y="335" on="0"/>
        <pt x="75" y="346" on="1"/>
        <pt x="55" y="363" on="0"/>
        <pt x="36" y="408" on="0"/>
        <pt x="36" y="432" on="1"/>
        <pt x="36" y="554" on="1"/>
        <pt x="36" y="577" on="0"/>
        <pt x="48" y="622" on="0"/>
        <pt x="62" y="640" on="1"/>
        <pt x="75" y="656" on="0"/>
        <pt x="104" y="679" on="0"/>
        <pt x="140" y="694" on="0"/>
        <pt x="187" y="700" on="0"/>
        <pt x="219" y="700" on="1"/>
        <pt x="251" y="700" on="1"/>
        <pt x="251" y="777" on="1"/>
        <pt x="335" y="777" on="1"/>
        <pt x="335" y="700" on="1"/>
      </contour>
      <contour>
        <pt x="343" y="230" on="1"/>
        <pt x="348" y="259" on="0"/>
        <pt x="377" y="274" on="1"/>
        <pt x="377" y="282" on="1"/>
        <pt x="377" y="288" on="0"/>
        <pt x="372" y="304" on="0"/>
        <pt x="367" y="309" on="1"/>
        <pt x="354" y="322" on="0"/>
        <pt x="335" y="323" on="1"/>
        <pt x="335" y="102" on="1"/>
        <pt x="351" y="105" on="0"/>
        <pt x="363" y="117" on="1"/>
        <pt x="379" y="133" on="0"/>
        <pt x="379" y="161" on="1"/>
        <pt x="379" y="215" on="1"/>
        <pt x="379" y="224" on="0"/>
        <pt x="368" y="236" on="0"/>
        <pt x="358" y="236" on="1"/>
        <pt x="349" y="236" on="0"/>
      </contour>
      <contour>
        <pt x="251" y="598" on="1"/>
        <pt x="241" y="596" on="0"/>
        <pt x="220" y="582" on="0"/>
        <pt x="213" y="569" on="1"/>
        <pt x="208" y="559" on="0"/>
        <pt x="208" y="546" on="1"/>
        <pt x="208" y="474" on="1"/>
        <pt x="208" y="456" on="0"/>
        <pt x="220" y="441" on="1"/>
        <pt x="228" y="433" on="0"/>
        <pt x="245" y="426" on="0"/>
        <pt x="251" y="425" on="1"/>
      </contour>
    </TTGlyph>
    <TTGlyph name="e" xMin="26" yMin="0" xMax="525" yMax="559">
      <contour>
        <pt x="354" y="333" on="1"/>
        <pt x="354" y="412" on="1"/>
        <pt x="354" y="435" on="0"/>
        <pt x="346" y="446" on="1"/>
        <pt x="339" y="455" on="0"/>
        <pt x="324" y="461" on="0"/>
        <pt x="316" y="461" on="1"/>
        <pt x="273" y="461" on="1"/>
        <pt x="265" y="461" on="0"/>
        <pt x="248" y="455" on="0"/>
        <pt x="241" y="446" on="1"/>
        <pt x="233" y="435" on="0"/>
        <pt x="233" y="412" on="1"/>
        <pt x="233" y="333" on="1"/>
      </contour>
      <contour>
        <pt x="270" y="233" on="1"/>
        <pt x="264" y="239" on="0"/>
        <pt x="254" y="239" on="1"/>
        <pt x="245" y="239" on="0"/>
        <pt x="234" y="227" on="0"/>
        <pt x="234" y="218" on="1"/>
        <pt x="234" y="154" on="1"/>
        <pt x="234" y="144" on="0"/>
        <pt x="242" y="124" on="0"/>
        <pt x="250" y="117" on="1"/>
        <pt x="267" y="100" on="0"/>
        <pt x="294" y="100" on="1"/>
        <pt x="512" y="100" on="1"/>
        <pt x="512" y="0" on="1"/>
        <pt x="245" y="0" on="1"/>
        <pt x="194" y="0" on="0"/>
        <pt x="133" y="17" on="0"/>
        <pt x="109" y="37" on="1"/>
        <pt x="83" y="59" on="0"/>
        <pt x="62" y="120" on="0"/>
        <pt x="62" y="150" on="1"/>
        <pt x="62" y="218" on="1"/>
        <pt x="62" y="227" on="0"/>
        <pt x="51" y="239" on="0"/>
        <pt x="42" y="239" on="1"/>
        <pt x="32" y="239" on="0"/>
        <pt x="26" y="233" on="1"/>
        <pt x="29" y="247" on="0"/>
        <pt x="48" y="272" on="0"/>
        <pt x="62" y="278" on="1"/>
        <pt x="62" y="422" on="1"/>
        <pt x="62" y="449" on="0"/>
        <pt x="87" y="502" on="0"/>
        <pt x="109" y="521" on="1"/>
        <pt x="132" y="541" on="0"/>
        <pt x="189" y="559" on="0"/>
        <pt x="211" y="559" on="1"/>
        <pt x="376" y="559" on="1"/>
        <pt x="398" y="559" on="0"/>
        <pt x="454" y="541" on="0"/>
        <pt x="477" y="521" on="1"/>
        <pt x="499" y="502" on="0"/>
        <pt x="525" y="449" on="0"/>
        <pt x="525" y="422" on="1"/>
        <pt x="525" y="233" on="1"/>
      </contour>
    </TTGlyph>
    <TTGlyph name="eight" xMin="25" yMin="0" xMax="561" yMax="700">
      <contour>
        <pt x="79" y="360" on="1"/>
        <pt x="98" y="380" on="0"/>
        <pt x="136" y="392" on="0"/>
        <pt x="144" y="393" on="1"/>
        <pt x="147" y="393" on="0"/>
        <pt x="135" y="396" on="0"/>
        <pt x="114" y="403" on="0"/>
        <pt x="88" y="415" on="0"/>
        <pt x="79" y="426" on="1"/>
        <pt x="68" y="437" on="0"/>
        <pt x="61" y="469" on="0"/>
        <pt x="61" y="480" on="1"/>
        <pt x="61" y="589" on="1"/>
        <pt x="61" y="629" on="0"/>
        <pt x="87" y="670" on="0"/>
        <pt x="98" y="678" on="1"/>
        <pt x="112" y="688" on="0"/>
        <pt x="151" y="700" on="0"/>
        <pt x="180" y="700" on="1"/>
        <pt x="406" y="700" on="1"/>
        <pt x="435" y="700" on="0"/>
        <pt x="474" y="688" on="0"/>
        <pt x="488" y="678" on="1"/>
        <pt x="499" y="670" on="0"/>
        <pt x="525" y="629" on="0"/>
        <pt x="525" y="589" on="1"/>
        <pt x="525" y="480" on="1"/>
        <pt x="525" y="469" on="0"/>
        <pt x="518" y="437" on="0"/>
        <pt x="507" y="426" on="1"/>
        <pt x="488" y="406" on="0"/>
        <pt x="450" y="394" on="0"/>
        <pt x="442" y="393" on="1"/>
        <pt x="449" y="392" on="0"/>
        <pt x="487" y="381" on="0"/>
        <pt x="507" y="360" on="1"/>
        <pt x="519" y="345" on="0"/>
        <pt x="525" y="314" on="0"/>
        <pt x="525" y="302" on="1"/>
        <pt x="525" y="278" on="1"/>
        <pt x="539" y="272" on="0"/>
        <pt x="557" y="247" on="0"/>
        <pt x="561" y="233" on="1"/>
        <pt x="555" y="239" on="0"/>
        <pt x="546" y="239" on="1"/>
        <pt x="536" y="239" on="0"/>
        <pt x="525" y="227" on="0"/>
        <pt x="525" y="218" on="1"/>
        <pt x="525" y="150" on="1"/>
        <pt x="525" y="139" on="0"/>
        <pt x="521" y="111" on="0"/>
        <pt x="511" y="80" on="0"/>
        <pt x="493" y="49" on="0"/>
        <pt x="478" y="37" on="1"/>
        <pt x="455" y="17" on="0"/>
        <pt x="394" y="0" on="0"/>
        <pt x="343" y="0" on="1"/>
        <pt x="243" y="0" on="1"/>
        <pt x="192" y="0" on="0"/>
        <pt x="131" y="17" on="0"/>
        <pt x="108" y="37" on="1"/>
        <pt x="93" y="49" on="0"/>
        <pt x="75" y="80" on="0"/>
        <pt x="65" y="111" on="0"/>
        <pt x="61" y="139" on="0"/>
        <pt x="61" y="150" on="1"/>
        <pt x="61" y="218" on="1"/>
        <pt x="61" y="227" on="0"/>
        <pt x="50" y="239" on="0"/>
        <pt x="40" y="239" on="1"/>
        <pt x="31" y="239" on="0"/>
        <pt x="25" y="233" on="1"/>
        <pt x="28" y="247" on="0"/>
        <pt x="47" y="271" on="0"/>
        <pt x="61" y="278" on="1"/>
        <pt x="61" y="302" on="1"/>
        <pt x="61" y="314" on="0"/>
        <pt x="67" y="345" on="0"/>
      </contour>
      <contour>
        <pt x="345" y="326" on="1"/>
        <pt x="335" y="338" on="0"/>
        <pt x="321" y="341" on="1"/>
        <pt x="314" y="343" on="0"/>
        <pt x="307" y="343" on="1"/>
        <pt x="282" y="343" on="1"/>
        <pt x="274" y="343" on="0"/>
        <pt x="266" y="341" on="1"/>
        <pt x="259" y="339" on="0"/>
        <pt x="246" y="332" on="0"/>
        <pt x="241" y="326" on="1"/>
        <pt x="238" y="322" on="0"/>
        <pt x="235" y="313" on="0"/>
        <pt x="234" y="308" on="1"/>
        <pt x="233" y="303" on="0"/>
        <pt x="233" y="296" on="1"/>
        <pt x="233" y="278" on="1"/>
        <pt x="247" y="272" on="0"/>
        <pt x="266" y="247" on="0"/>
        <pt x="269" y="233" on="1"/>
        <pt x="263" y="239" on="0"/>
        <pt x="254" y="239" on="1"/>
        <pt x="244" y="239" on="0"/>
        <pt x="233" y="227" on="0"/>
        <pt x="233" y="218" on="1"/>
        <pt x="233" y="150" on="1"/>
        <pt x="233" y="144" on="0"/>
        <pt x="236" y="122" on="0"/>
        <pt x="244" y="114" on="1"/>
        <pt x="252" y="106" on="0"/>
        <pt x="279" y="100" on="0"/>
        <pt x="293" y="100" on="1"/>
        <pt x="307" y="100" on="0"/>
        <pt x="334" y="106" on="0"/>
        <pt x="342" y="114" on="1"/>
        <pt x="350" y="122" on="0"/>
        <pt x="353" y="144" on="0"/>
        <pt x="353" y="150" on="1"/>
        <pt x="353" y="218" on="1"/>
        <pt x="353" y="227" on="0"/>
        <pt x="342" y="239" on="0"/>
        <pt x="332" y="239" on="1"/>
        <pt x="323" y="239" on="0"/>
        <pt x="317" y="233" on="1"/>
        <pt x="319" y="247" on="0"/>
        <pt x="339" y="272" on="0"/>
        <pt x="353" y="278" on="1"/>
        <pt x="353" y="297" on="1"/>
        <pt x="353" y="303" on="0"/>
        <pt x="352" y="308" on="1"/>
        <pt x="351" y="313" on="0"/>
        <pt x="348" y="322" on="0"/>
      </contour>
      <contour>
        <pt x="241" y="460" on="1"/>
        <pt x="249" y="449" on="0"/>
        <pt x="272" y="443" on="0"/>
        <pt x="282" y="443" on="1"/>
        <pt x="304" y="443" on="1"/>
        <pt x="313" y="443" on="0"/>
        <pt x="337" y="449" on="0"/>
        <pt x="345" y="460" on="1"/>
        <pt x="351" y="468" on="0"/>
        <pt x="353" y="487" on="0"/>
        <pt x="353" y="497" on="1"/>
        <pt x="353" y="566" on="1"/>
        <pt x="353" y="581" on="0"/>
        <pt x="339" y="591" on="1"/>
        <pt x="326" y="599" on="0"/>
        <pt x="299" y="599" on="1"/>
        <pt x="287" y="599" on="1"/>
        <pt x="260" y="599" on="0"/>
        <pt x="247" y="591" on="1"/>
        <pt x="233" y="581" on="0"/>
        <pt x="233" y="566" on="1"/>
        <pt x="233" y="497" on="1"/>
        <pt x="233" y="487" on="0"/>
        <pt x="235" y="469" on="0"/>
      </contour>
    </TTGlyph>
    <TTGlyph name="equal" xMin="35" yMin="180" xMax="335" yMax="457">
      <contour>
        <pt x="335" y="180" on="1"/>
        <pt x="35" y="180" on="1"/>
        <pt x="35" y="280" on="1"/>
        <pt x="335" y="280" on="1"/>
      </contour>
      <contour>
        <pt x="335" y="357" on="1"/>
        <pt x="35" y="357" on="1"/>
        <pt x="35" y="457" on="1"/>
        <pt x="335" y="457" on="1"/>
      </contour>
    </TTGlyph>
    <TTGlyph name="exclam" xMin="25" yMin="-5" xMax="227" yMax="700">
      <contour>
        <pt x="41" y="424" on="1"/>
        <pt x="41" y="700" on="1"/>
        <pt x="213" y="700" on="1"/>
        <pt x="213" y="424" on="1"/>
        <pt x="169" y="271" on="1"/>
        <pt x="85" y="271" on="1"/>
      </contour>
      <contour>
        <pt x="54" y="168" on="1"/>
        <pt x="83" y="197" on="0"/>
        <pt x="126" y="197" on="1"/>
        <pt x="145" y="197" on="0"/>
        <pt x="183" y="183" on="0"/>
        <pt x="197" y="168" on="1"/>
        <pt x="227" y="136" on="0"/>
        <pt x="227" y="96" on="1"/>
        <pt x="227" y="77" on="0"/>
        <pt x="211" y="39" on="0"/>
        <pt x="197" y="25" on="1"/>
        <pt x="183" y="11" on="0"/>
        <pt x="145" y="-5" on="0"/>
        <pt x="126" y="-5" on="1"/>
        <pt x="86" y="-5" on="0"/>
        <pt x="54" y="25" on="1"/>
        <pt x="39" y="39" on="0"/>
        <pt x="25" y="77" on="0"/>
        <pt x="25" y="96" on="1"/>
        <pt x="25" y="139" on="0"/>
      </contour>
    </TTGlyph>
    <TTGlyph name="f" xMin="35" yMin="0" xMax="442" yMax="720">
      <contour>
        <pt x="112" y="452" on="1"/>
        <pt x="35" y="452" on="1"/>
        <pt x="35" y="552" on="1"/>
        <pt x="112" y="552" on="1"/>
        <pt x="112" y="570" on="1"/>
        <pt x="112" y="600" on="0"/>
        <pt x="133" y="661" on="0"/>
        <pt x="159" y="683" on="1"/>
        <pt x="183" y="703" on="0"/>
        <pt x="244" y="720" on="0"/>
        <pt x="295" y="720" on="1"/>
        <pt x="442" y="720" on="1"/>
        <pt x="442" y="620" on="1"/>
        <pt x="344" y="620" on="1"/>
        <pt x="333" y="620" on="0"/>
        <pt x="308" y="611" on="0"/>
        <pt x="300" y="603" on="1"/>
        <pt x="292" y="596" on="0"/>
        <pt x="284" y="576" on="0"/>
        <pt x="284" y="566" on="1"/>
        <pt x="284" y="552" on="1"/>
        <pt x="409" y="552" on="1"/>
        <pt x="409" y="452" on="1"/>
        <pt x="284" y="452" on="1"/>
        <pt x="284" y="278" on="1"/>
        <pt x="298" y="272" on="0"/>
        <pt x="316" y="247" on="0"/>
        <pt x="320" y="233" on="1"/>
        <pt x="314" y="239" on="0"/>
        <pt x="304" y="239" on="1"/>
        <pt x="295" y="239" on="0"/>
        <pt x="284" y="227" on="0"/>
        <pt x="284" y="218" on="1"/>
        <pt x="284" y="0" on="1"/>
        <pt x="112" y="0" on="1"/>
        <pt x="112" y="218" on="1"/>
        <pt x="112" y="227" on="0"/>
        <pt x="101" y="239" on="0"/>
        <pt x="92" y="239" on="1"/>
        <pt x="82" y="239" on="0"/>
        <pt x="76" y="233" on="1"/>
        <pt x="79" y="247" on="0"/>
        <pt x="98" y="272" on="0"/>
        <pt x="112" y="278" on="1"/>
      </contour>
    </TTGlyph>
    <TTGlyph name="five" xMin="35" yMin="0" xMax="535" yMax="690">
      <contour>
        <pt x="327" y="330" on="1"/>
        <pt x="327" y="352" on="0"/>
        <pt x="316" y="363" on="1"/>
        <pt x="304" y="375" on="0"/>
        <pt x="281" y="375" on="1"/>
        <pt x="264" y="375" on="1"/>
        <pt x="236" y="375" on="0"/>
        <pt x="207" y="354" on="0"/>
        <pt x="207" y="329" on="1"/>
        <pt x="207" y="277" on="1"/>
        <pt x="35" y="277" on="1"/>
        <pt x="35" y="690" on="1"/>
        <pt x="486" y="690" on="1"/>
        <pt x="486" y="590" on="1"/>
        <pt x="207" y="590" on="1"/>
        <pt x="207" y="452" on="1"/>
        <pt x="235" y="467" on="0"/>
        <pt x="295" y="480" on="0"/>
        <pt x="325" y="480" on="1"/>
        <pt x="367" y="480" on="0"/>
        <pt x="433" y="453" on="0"/>
        <pt x="448" y="439" on="1"/>
        <pt x="499" y="394" on="0"/>
        <pt x="499" y="313" on="1"/>
        <pt x="499" y="278" on="1"/>
        <pt x="513" y="271" on="0"/>
        <pt x="532" y="247" on="0"/>
        <pt x="535" y="233" on="1"/>
        <pt x="529" y="239" on="0"/>
        <pt x="520" y="239" on="1"/>
        <pt x="510" y="239" on="0"/>
        <pt x="499" y="227" on="0"/>
        <pt x="499" y="218" on="1"/>
        <pt x="499" y="150" on="1"/>
        <pt x="499" y="139" on="0"/>
        <pt x="495" y="111" on="0"/>
        <pt x="485" y="80" on="0"/>
        <pt x="467" y="49" on="0"/>
        <pt x="452" y="37" on="1"/>
        <pt x="429" y="17" on="0"/>
        <pt x="368" y="0" on="0"/>
        <pt x="317" y="0" on="1"/>
        <pt x="217" y="0" on="1"/>
        <pt x="166" y="0" on="0"/>
        <pt x="105" y="17" on="0"/>
        <pt x="82" y="37" on="1"/>
        <pt x="53" y="62" on="0"/>
        <pt x="35" y="129" on="0"/>
        <pt x="35" y="158" on="1"/>
        <pt x="35" y="189" on="1"/>
        <pt x="207" y="189" on="1"/>
        <pt x="207" y="158" on="1"/>
        <pt x="207" y="144" on="0"/>
        <pt x="210" y="122" on="0"/>
        <pt x="218" y="114" on="1"/>
        <pt x="226" y="106" on="0"/>
        <pt x="253" y="100" on="0"/>
        <pt x="267" y="100" on="1"/>
        <pt x="281" y="100" on="0"/>
        <pt x="308" y="106" on="0"/>
        <pt x="316" y="114" on="1"/>
        <pt x="324" y="123" on="0"/>
        <pt x="327" y="142" on="0"/>
        <pt x="327" y="150" on="1"/>
        <pt x="327" y="218" on="1"/>
        <pt x="327" y="228" on="0"/>
        <pt x="315" y="239" on="0"/>
        <pt x="306" y="239" on="1"/>
        <pt x="297" y="239" on="0"/>
        <pt x="291" y="233" on="1"/>
        <pt x="293" y="247" on="0"/>
        <pt x="313" y="272" on="0"/>
        <pt x="327" y="278" on="1"/>
      </contour>
    </TTGlyph>
    <TTGlyph name="four" xMin="35" yMin="0" xMax="576" yMax="690">
      <contour>
        <pt x="498" y="0" on="1"/>
        <pt x="326" y="0" on="1"/>
        <pt x="326" y="92" on="1"/>
        <pt x="35" y="92" on="1"/>
        <pt x="35" y="190" on="1"/>
        <pt x="326" y="690" on="1"/>
        <pt x="498" y="690" on="1"/>
        <pt x="498" y="279" on="1"/>
        <pt x="512" y="272" on="0"/>
        <pt x="531" y="249" on="0"/>
        <pt x="534" y="234" on="1"/>
        <pt x="528" y="240" on="0"/>
        <pt x="519" y="240" on="1"/>
        <pt x="513" y="240" on="0"/>
        <pt x="498" y="230" on="0"/>
        <pt x="498" y="218" on="1"/>
        <pt x="498" y="190" on="1"/>
        <pt x="576" y="190" on="1"/>
        <pt x="576" y="92" on="1"/>
        <pt x="498" y="92" on="1"/>
      </contour>
      <contour>
        <pt x="326" y="219" on="1"/>
        <pt x="326" y="227" on="0"/>
        <pt x="316" y="240" on="0"/>
        <pt x="305" y="240" on="1"/>
        <pt x="296" y="240" on="0"/>
        <pt x="290" y="234" on="1"/>
        <pt x="293" y="249" on="0"/>
        <pt x="312" y="273" on="0"/>
        <pt x="326" y="279" on="1"/>
        <pt x="325" y="417" on="1"/>
        <pt x="187" y="190" on="1"/>
        <pt x="326" y="190" on="1"/>
      </contour>
    </TTGlyph>
    <TTGlyph name="g" xMin="25" yMin="-209" xMax="561" yMax="552">
      <contour>
        <pt x="61" y="406" on="1"/>
        <pt x="61" y="436" on="0"/>
        <pt x="89" y="496" on="0"/>
        <pt x="112" y="513" on="1"/>
        <pt x="138" y="536" on="0"/>
        <pt x="200" y="552" on="0"/>
        <pt x="222" y="552" on="1"/>
        <pt x="313" y="552" on="1"/>
        <pt x="313" y="454" on="1"/>
        <pt x="277" y="454" on="1"/>
        <pt x="268" y="454" on="0"/>
        <pt x="250" y="448" on="0"/>
        <pt x="244" y="441" on="1"/>
        <pt x="233" y="428" on="0"/>
        <pt x="233" y="408" on="1"/>
        <pt x="233" y="278" on="1"/>
        <pt x="262" y="265" on="0"/>
        <pt x="268" y="233" on="1"/>
        <pt x="263" y="239" on="0"/>
        <pt x="253" y="239" on="1"/>
        <pt x="244" y="239" on="0"/>
        <pt x="233" y="227" on="0"/>
        <pt x="233" y="218" on="1"/>
        <pt x="233" y="145" on="1"/>
        <pt x="233" y="133" on="0"/>
        <pt x="237" y="118" on="0"/>
        <pt x="244" y="111" on="1"/>
        <pt x="249" y="106" on="0"/>
        <pt x="267" y="98" on="0"/>
        <pt x="287" y="98" on="1"/>
        <pt x="304" y="98" on="0"/>
        <pt x="329" y="112" on="0"/>
        <pt x="345" y="132" on="0"/>
        <pt x="353" y="152" on="0"/>
        <pt x="353" y="158" on="1"/>
        <pt x="353" y="218" on="1"/>
        <pt x="353" y="227" on="0"/>
        <pt x="342" y="239" on="0"/>
        <pt x="333" y="239" on="1"/>
        <pt x="323" y="239" on="0"/>
        <pt x="317" y="233" on="1"/>
        <pt x="319" y="247" on="0"/>
        <pt x="339" y="273" on="0"/>
        <pt x="353" y="278" on="1"/>
        <pt x="353" y="552" on="1"/>
        <pt x="525" y="552" on="1"/>
        <pt x="525" y="278" on="1"/>
        <pt x="539" y="272" on="0"/>
        <pt x="557" y="247" on="0"/>
        <pt x="561" y="233" on="1"/>
        <pt x="555" y="239" on="0"/>
        <pt x="545" y="239" on="1"/>
        <pt x="536" y="239" on="0"/>
        <pt x="525" y="227" on="0"/>
        <pt x="525" y="218" on="1"/>
        <pt x="525" y="-59" on="1"/>
        <pt x="525" y="-89" on="0"/>
        <pt x="504" y="-150" on="0"/>
        <pt x="478" y="-172" on="1"/>
        <pt x="454" y="-192" on="0"/>
        <pt x="393" y="-209" on="0"/>
        <pt x="342" y="-209" on="1"/>
        <pt x="108" y="-209" on="1"/>
        <pt x="108" y="-109" on="1"/>
        <pt x="293" y="-109" on="1"/>
        <pt x="320" y="-109" on="0"/>
        <pt x="337" y="-92" on="1"/>
        <pt x="345" y="-85" on="0"/>
        <pt x="353" y="-65" on="0"/>
        <pt x="353" y="-55" on="1"/>
        <pt x="353" y="35" on="1"/>
        <pt x="331" y="16" on="0"/>
        <pt x="275" y="-6" on="0"/>
        <pt x="235" y="-6" on="1"/>
        <pt x="193" y="-6" on="0"/>
        <pt x="127" y="21" on="0"/>
        <pt x="112" y="35" on="1"/>
        <pt x="87" y="56" on="0"/>
        <pt x="61" y="109" on="0"/>
        <pt x="61" y="138" on="1"/>
        <pt x="61" y="218" on="1"/>
        <pt x="61" y="227" on="0"/>
        <pt x="50" y="239" on="0"/>
        <pt x="41" y="239" on="1"/>
        <pt x="31" y="239" on="0"/>
        <pt x="25" y="233" on="1"/>
        <pt x="28" y="248" on="0"/>
        <pt x="47" y="271" on="0"/>
        <pt x="61" y="278" on="1"/>
      </contour>
    </TTGlyph>
    <TTGlyph name="greater" xMin="35" yMin="181" xMax="337" yMax="494">
      <contour>
        <pt x="337" y="384" on="1"/>
        <pt x="337" y="291" on="1"/>
        <pt x="64" y="181" on="1"/>
        <pt x="35" y="255" on="1"/>
        <pt x="241" y="337" on="1"/>
        <pt x="35" y="421" on="1"/>
        <pt x="64" y="494" on="1"/>
      </contour>
    </TTGlyph>
    <TTGlyph name="h" xMin="25" yMin="0" xMax="561" yMax="700">
      <contour>
        <pt x="353" y="401" on="1"/>
        <pt x="353" y="425" on="0"/>
        <pt x="338" y="439" on="1"/>
        <pt x="332" y="444" on="0"/>
        <pt x="314" y="454" on="0"/>
        <pt x="294" y="454" on="1"/>
        <pt x="268" y="454" on="0"/>
        <pt x="233" y="424" on="0"/>
        <pt x="233" y="402" on="1"/>
        <pt x="233" y="278" on="1"/>
        <pt x="247" y="272" on="0"/>
        <pt x="266" y="248" on="0"/>
        <pt x="269" y="233" on="1"/>
        <pt x="263" y="239" on="0"/>
        <pt x="253" y="239" on="1"/>
        <pt x="244" y="239" on="0"/>
        <pt x="233" y="227" on="0"/>
        <pt x="233" y="218" on="1"/>
        <pt x="233" y="0" on="1"/>
        <pt x="61" y="0" on="1"/>
        <pt x="61" y="218" on="1"/>
        <pt x="61" y="227" on="0"/>
        <pt x="50" y="239" on="0"/>
        <pt x="41" y="239" on="1"/>
        <pt x="31" y="239" on="0"/>
        <pt x="25" y="233" on="1"/>
        <pt x="28" y="248" on="0"/>
        <pt x="47" y="272" on="0"/>
        <pt x="61" y="278" on="1"/>
        <pt x="61" y="700" on="1"/>
        <pt x="233" y="700" on="1"/>
        <pt x="233" y="524" on="1"/>
        <pt x="257" y="538" on="0"/>
        <pt x="315" y="558" on="0"/>
        <pt x="351" y="558" on="1"/>
        <pt x="393" y="558" on="0"/>
        <pt x="459" y="531" on="0"/>
        <pt x="474" y="517" on="1"/>
        <pt x="497" y="497" on="0"/>
        <pt x="525" y="450" on="0"/>
        <pt x="525" y="412" on="1"/>
        <pt x="525" y="278" on="1"/>
        <pt x="539" y="272" on="0"/>
        <pt x="558" y="248" on="0"/>
        <pt x="561" y="233" on="1"/>
        <pt x="555" y="239" on="0"/>
        <pt x="545" y="239" on="1"/>
        <pt x="536" y="239" on="0"/>
        <pt x="525" y="227" on="0"/>
        <pt x="525" y="218" on="1"/>
        <pt x="525" y="0" on="1"/>
        <pt x="353" y="0" on="1"/>
        <pt x="353" y="218" on="1"/>
        <pt x="353" y="227" on="0"/>
        <pt x="342" y="239" on="0"/>
        <pt x="333" y="239" on="1"/>
        <pt x="323" y="239" on="0"/>
        <pt x="317" y="233" on="1"/>
        <pt x="320" y="247" on="0"/>
        <pt x="338" y="271" on="0"/>
        <pt x="353" y="278" on="1"/>
      </contour>
    </TTGlyph>
    <TTGlyph name="hyphen" xMin="35" yMin="241" xMax="225" yMax="339">
      <contour>
        <pt x="225" y="241" on="1"/>
        <pt x="35" y="241" on="1"/>
        <pt x="35" y="339" on="1"/>
        <pt x="225" y="339" on="1"/>
      </contour>
    </TTGlyph>
    <TTGlyph name="i" xMin="25" yMin="0" xMax="269" yMax="700">
      <contour>
        <pt x="61" y="278" on="1"/>
        <pt x="47" y="271" on="0"/>
        <pt x="27" y="247" on="0"/>
        <pt x="25" y="233" on="1"/>
        <pt x="31" y="239" on="0"/>
        <pt x="41" y="239" on="1"/>
        <pt x="50" y="239" on="0"/>
        <pt x="61" y="227" on="0"/>
        <pt x="61" y="218" on="1"/>
        <pt x="61" y="0" on="1"/>
        <pt x="233" y="0" on="1"/>
        <pt x="233" y="218" on="1"/>
        <pt x="233" y="227" on="0"/>
        <pt x="244" y="239" on="0"/>
        <pt x="253" y="239" on="1"/>
        <pt x="263" y="239" on="0"/>
        <pt x="269" y="233" on="1"/>
        <pt x="266" y="248" on="0"/>
        <pt x="247" y="272" on="0"/>
        <pt x="233" y="278" on="1"/>
        <pt x="233" y="542" on="1"/>
        <pt x="61" y="542" on="1"/>
        <pt x="61" y="280" on="1"/>
      </contour>
      <contour>
        <pt x="233" y="600" on="1"/>
        <pt x="61" y="600" on="1"/>
        <pt x="61" y="700" on="1"/>
        <pt x="233" y="700" on="1"/>
      </contour>
    </TTGlyph>
    <TTGlyph name="j" xMin="-90" yMin="-209" xMax="276" yMax="700">
      <contour>
        <pt x="-90" y="-109" on="1"/>
        <pt x="-90" y="-209" on="1"/>
        <pt x="57" y="-209" on="1"/>
        <pt x="108" y="-209" on="0"/>
        <pt x="169" y="-192" on="0"/>
        <pt x="193" y="-172" on="1"/>
        <pt x="219" y="-150" on="0"/>
        <pt x="240" y="-89" on="0"/>
        <pt x="240" y="-59" on="1"/>
        <pt x="240" y="218" on="1"/>
        <pt x="240" y="227" on="0"/>
        <pt x="251" y="239" on="0"/>
        <pt x="260" y="239" on="1"/>
        <pt x="270" y="239" on="0"/>
        <pt x="276" y="233" on="1"/>
        <pt x="272" y="247" on="0"/>
        <pt x="254" y="272" on="0"/>
        <pt x="240" y="278" on="1"/>
        <pt x="240" y="542" on="1"/>
        <pt x="68" y="542" on="1"/>
        <pt x="68" y="278" on="1"/>
        <pt x="54" y="272" on="0"/>
        <pt x="34" y="247" on="0"/>
        <pt x="32" y="233" on="1"/>
        <pt x="38" y="239" on="0"/>
        <pt x="48" y="239" on="1"/>
        <pt x="57" y="239" on="0"/>
        <pt x="68" y="227" on="0"/>
        <pt x="68" y="218" on="1"/>
        <pt x="68" y="-55" on="1"/>
        <pt x="68" y="-65" on="0"/>
        <pt x="60" y="-85" on="0"/>
        <pt x="52" y="-92" on="1"/>
        <pt x="35" y="-109" on="0"/>
        <pt x="8" y="-109" on="1"/>
      </contour>
      <contour>
        <pt x="240" y="600" on="1"/>
        <pt x="68" y="600" on="1"/>
        <pt x="68" y="700" on="1"/>
        <pt x="240" y="700" on="1"/>
      </contour>
    </TTGlyph>
    <TTGlyph name="k" xMin="25" yMin="0" xMax="575" yMax="700">
      <contour>
        <pt x="61" y="700" on="1"/>
        <pt x="233" y="700" on="1"/>
        <pt x="233" y="278" on="1"/>
        <pt x="373" y="552" on="1"/>
        <pt x="553" y="552" on="1"/>
        <pt x="430" y="309" on="1"/>
        <pt x="437" y="307" on="0"/>
        <pt x="452" y="293" on="0"/>
        <pt x="456" y="285" on="1"/>
        <pt x="450" y="285" on="1"/>
        <pt x="441" y="285" on="0"/>
        <pt x="428" y="272" on="0"/>
        <pt x="428" y="264" on="1"/>
        <pt x="428" y="258" on="0"/>
        <pt x="430" y="254" on="1"/>
        <pt x="575" y="0" on="1"/>
        <pt x="385" y="0" on="1"/>
        <pt x="273" y="198" on="1"/>
        <pt x="265" y="213" on="0"/>
        <pt x="251" y="213" on="1"/>
        <pt x="246" y="213" on="0"/>
        <pt x="236" y="208" on="0"/>
        <pt x="233" y="203" on="1"/>
        <pt x="233" y="0" on="1"/>
        <pt x="61" y="0" on="1"/>
        <pt x="61" y="218" on="1"/>
        <pt x="61" y="227" on="0"/>
        <pt x="50" y="239" on="0"/>
        <pt x="41" y="239" on="1"/>
        <pt x="31" y="239" on="0"/>
        <pt x="25" y="233" on="1"/>
        <pt x="31" y="264" on="0"/>
        <pt x="61" y="278" on="1"/>
      </contour>
    </TTGlyph>
    <TTGlyph name="l" xMin="25" yMin="0" xMax="306" yMax="700">
      <contour>
        <pt x="233" y="278" on="1"/>
        <pt x="247" y="272" on="0"/>
        <pt x="266" y="247" on="0"/>
        <pt x="269" y="233" on="1"/>
        <pt x="263" y="239" on="0"/>
        <pt x="253" y="239" on="1"/>
        <pt x="244" y="239" on="0"/>
        <pt x="233" y="227" on="0"/>
        <pt x="233" y="218" on="1"/>
        <pt x="233" y="144" on="1"/>
        <pt x="233" y="134" on="0"/>
        <pt x="241" y="114" on="0"/>
        <pt x="249" y="107" on="1"/>
        <pt x="255" y="102" on="0"/>
        <pt x="268" y="100" on="0"/>
        <pt x="273" y="100" on="1"/>
        <pt x="306" y="100" on="1"/>
        <pt x="306" y="0" on="1"/>
        <pt x="206" y="0" on="1"/>
        <pt x="171" y="0" on="0"/>
        <pt x="123" y="14" on="0"/>
        <pt x="108" y="27" on="1"/>
        <pt x="82" y="49" on="0"/>
        <pt x="61" y="110" on="0"/>
        <pt x="61" y="140" on="1"/>
        <pt x="61" y="218" on="1"/>
        <pt x="61" y="227" on="0"/>
        <pt x="50" y="239" on="0"/>
        <pt x="41" y="239" on="1"/>
        <pt x="31" y="239" on="0"/>
        <pt x="25" y="233" on="1"/>
        <pt x="28" y="247" on="0"/>
        <pt x="47" y="272" on="0"/>
        <pt x="61" y="278" on="1"/>
        <pt x="61" y="700" on="1"/>
        <pt x="233" y="700" on="1"/>
      </contour>
    </TTGlyph>
    <TTGlyph name="less" xMin="35" yMin="181" xMax="337" yMax="494">
      <contour>
        <pt x="308" y="494" on="1"/>
        <pt x="337" y="421" on="1"/>
        <pt x="131" y="337" on="1"/>
        <pt x="337" y="255" on="1"/>
        <pt x="308" y="181" on="1"/>
        <pt x="35" y="291" on="1"/>
        <pt x="35" y="384" on="1"/>
      </contour>
    </TTGlyph>
    <TTGlyph name="m" xMin="25" yMin="0" xMax="853" yMax="552">
      <contour>
        <pt x="353" y="406" on="1"/>
        <pt x="353" y="412" on="0"/>
        <pt x="351" y="418" on="1"/>
        <pt x="348" y="430" on="0"/>
        <pt x="335" y="441" on="1"/>
        <pt x="329" y="446" on="0"/>
        <pt x="315" y="450" on="0"/>
        <pt x="310" y="451" on="1"/>
        <pt x="304" y="452" on="0"/>
        <pt x="298" y="452" on="1"/>
        <pt x="282" y="452" on="1"/>
        <pt x="267" y="452" on="0"/>
        <pt x="248" y="443" on="0"/>
        <pt x="243" y="438" on="1"/>
        <pt x="236" y="432" on="0"/>
        <pt x="233" y="416" on="0"/>
        <pt x="233" y="411" on="1"/>
        <pt x="233" y="278" on="1"/>
        <pt x="247" y="272" on="0"/>
        <pt x="265" y="247" on="0"/>
        <pt x="269" y="233" on="1"/>
        <pt x="267" y="234" on="0"/>
        <pt x="265" y="236" on="1"/>
        <pt x="263" y="237" on="0"/>
        <pt x="258" y="239" on="0"/>
        <pt x="254" y="239" on="1"/>
        <pt x="246" y="239" on="0"/>
        <pt x="238" y="232" on="0"/>
        <pt x="236" y="228" on="1"/>
        <pt x="233" y="224" on="0"/>
        <pt x="233" y="218" on="1"/>
        <pt x="233" y="0" on="1"/>
        <pt x="61" y="0" on="1"/>
        <pt x="61" y="218" on="1"/>
        <pt x="61" y="224" on="0"/>
        <pt x="58" y="228" on="1"/>
        <pt x="56" y="232" on="0"/>
        <pt x="48" y="239" on="0"/>
        <pt x="40" y="239" on="1"/>
        <pt x="37" y="239" on="0"/>
        <pt x="31" y="237" on="0"/>
        <pt x="29" y="236" on="1"/>
        <pt x="26" y="234" on="0"/>
        <pt x="25" y="233" on="1"/>
        <pt x="28" y="248" on="0"/>
        <pt x="47" y="271" on="0"/>
        <pt x="61" y="278" on="1"/>
        <pt x="61" y="389" on="1"/>
        <pt x="61" y="391" on="0"/>
        <pt x="63" y="416" on="0"/>
        <pt x="73" y="452" on="0"/>
        <pt x="94" y="494" on="0"/>
        <pt x="114" y="512" on="1"/>
        <pt x="141" y="537" on="0"/>
        <pt x="204" y="552" on="0"/>
        <pt x="223" y="552" on="1"/>
        <pt x="317" y="552" on="1"/>
        <pt x="333" y="551" on="0"/>
        <pt x="351" y="547" on="1"/>
        <pt x="365" y="543" on="0"/>
        <pt x="399" y="527" on="0"/>
        <pt x="413" y="513" on="1"/>
        <pt x="423" y="502" on="0"/>
        <pt x="434" y="480" on="0"/>
        <pt x="436" y="472" on="1"/>
        <pt x="439" y="462" on="0"/>
        <pt x="439" y="453" on="1"/>
        <pt x="439" y="462" on="0"/>
        <pt x="442" y="472" on="1"/>
        <pt x="444" y="480" on="0"/>
        <pt x="455" y="502" on="0"/>
        <pt x="465" y="513" on="1"/>
        <pt x="479" y="527" on="0"/>
        <pt x="511" y="543" on="0"/>
        <pt x="526" y="547" on="1"/>
        <pt x="543" y="551" on="0"/>
        <pt x="561" y="552" on="1"/>
        <pt x="655" y="552" on="1"/>
        <pt x="674" y="552" on="0"/>
        <pt x="737" y="537" on="0"/>
        <pt x="764" y="512" on="1"/>
        <pt x="784" y="494" on="0"/>
        <pt x="805" y="452" on="0"/>
        <pt x="815" y="416" on="0"/>
        <pt x="817" y="391" on="0"/>
        <pt x="817" y="389" on="1"/>
        <pt x="817" y="278" on="1"/>
        <pt x="831" y="272" on="0"/>
        <pt x="849" y="247" on="0"/>
        <pt x="853" y="233" on="1"/>
        <pt x="852" y="234" on="0"/>
        <pt x="849" y="236" on="1"/>
        <pt x="847" y="237" on="0"/>
        <pt x="841" y="239" on="0"/>
        <pt x="838" y="239" on="1"/>
        <pt x="830" y="239" on="0"/>
        <pt x="822" y="232" on="0"/>
        <pt x="820" y="228" on="1"/>
        <pt x="817" y="224" on="0"/>
        <pt x="817" y="218" on="1"/>
        <pt x="817" y="0" on="1"/>
        <pt x="645" y="0" on="1"/>
        <pt x="645" y="218" on="1"/>
        <pt x="645" y="224" on="0"/>
        <pt x="642" y="228" on="1"/>
        <pt x="640" y="232" on="0"/>
        <pt x="632" y="239" on="0"/>
        <pt x="624" y="239" on="1"/>
        <pt x="620" y="239" on="0"/>
        <pt x="615" y="237" on="0"/>
        <pt x="613" y="236" on="1"/>
        <pt x="610" y="234" on="0"/>
        <pt x="609" y="233" on="1"/>
        <pt x="616" y="267" on="0"/>
        <pt x="645" y="278" on="1"/>
        <pt x="645" y="411" on="1"/>
        <pt x="645" y="413" on="0"/>
        <pt x="642" y="431" on="0"/>
        <pt x="635" y="438" on="1"/>
        <pt x="630" y="443" on="0"/>
        <pt x="611" y="452" on="0"/>
        <pt x="596" y="452" on="1"/>
        <pt x="580" y="452" on="1"/>
        <pt x="573" y="452" on="0"/>
        <pt x="567" y="451" on="1"/>
        <pt x="554" y="449" on="0"/>
        <pt x="543" y="441" on="1"/>
        <pt x="530" y="430" on="0"/>
        <pt x="527" y="418" on="1"/>
        <pt x="525" y="412" on="0"/>
        <pt x="525" y="406" on="1"/>
        <pt x="525" y="278" on="1"/>
        <pt x="539" y="272" on="0"/>
        <pt x="557" y="247" on="0"/>
        <pt x="561" y="233" on="1"/>
        <pt x="559" y="234" on="0"/>
        <pt x="557" y="236" on="1"/>
        <pt x="555" y="237" on="0"/>
        <pt x="550" y="239" on="0"/>
        <pt x="546" y="239" on="1"/>
        <pt x="538" y="239" on="0"/>
        <pt x="530" y="232" on="0"/>
        <pt x="528" y="228" on="1"/>
        <pt x="525" y="224" on="0"/>
        <pt x="525" y="218" on="1"/>
        <pt x="525" y="0" on="1"/>
        <pt x="353" y="0" on="1"/>
        <pt x="353" y="218" on="1"/>
        <pt x="353" y="224" on="0"/>
        <pt x="350" y="228" on="1"/>
        <pt x="348" y="232" on="0"/>
        <pt x="340" y="239" on="0"/>
        <pt x="332" y="239" on="1"/>
        <pt x="328" y="239" on="0"/>
        <pt x="323" y="237" on="0"/>
        <pt x="321" y="236" on="1"/>
        <pt x="318" y="234" on="0"/>
        <pt x="317" y="233" on="1"/>
        <pt x="320" y="248" on="0"/>
        <pt x="339" y="272" on="0"/>
        <pt x="353" y="278" on="1"/>
      </contour>
    </TTGlyph>
    <TTGlyph name="minus" xMin="35" yMin="241" xMax="345" yMax="339">
      <contour>
        <pt x="345" y="241" on="1"/>
        <pt x="35" y="241" on="1"/>
        <pt x="35" y="339" on="1"/>
        <pt x="345" y="339" on="1"/>
      </contour>
    </TTGlyph>
    <TTGlyph name="n" xMin="25" yMin="0" xMax="561" yMax="552">
      <contour>
        <pt x="61" y="389" on="1"/>
        <pt x="61" y="391" on="0"/>
        <pt x="63" y="416" on="0"/>
        <pt x="73" y="452" on="0"/>
        <pt x="94" y="494" on="0"/>
        <pt x="114" y="512" on="1"/>
        <pt x="141" y="537" on="0"/>
        <pt x="204" y="552" on="0"/>
        <pt x="223" y="552" on="1"/>
        <pt x="363" y="552" on="1"/>
        <pt x="382" y="552" on="0"/>
        <pt x="445" y="537" on="0"/>
        <pt x="472" y="512" on="1"/>
        <pt x="492" y="494" on="0"/>
        <pt x="513" y="452" on="0"/>
        <pt x="523" y="416" on="0"/>
        <pt x="525" y="391" on="0"/>
        <pt x="525" y="389" on="1"/>
        <pt x="525" y="278" on="1"/>
        <pt x="539" y="271" on="0"/>
        <pt x="558" y="248" on="0"/>
        <pt x="561" y="233" on="1"/>
        <pt x="559" y="234" on="0"/>
        <pt x="557" y="236" on="1"/>
        <pt x="555" y="237" on="0"/>
        <pt x="550" y="239" on="0"/>
        <pt x="546" y="239" on="1"/>
        <pt x="538" y="239" on="0"/>
        <pt x="530" y="232" on="0"/>
        <pt x="528" y="228" on="1"/>
        <pt x="525" y="224" on="0"/>
        <pt x="525" y="218" on="1"/>
        <pt x="525" y="0" on="1"/>
        <pt x="353" y="0" on="1"/>
        <pt x="353" y="218" on="1"/>
        <pt x="353" y="224" on="0"/>
        <pt x="350" y="228" on="1"/>
        <pt x="348" y="232" on="0"/>
        <pt x="340" y="239" on="0"/>
        <pt x="332" y="239" on="1"/>
        <pt x="328" y="239" on="0"/>
        <pt x="323" y="237" on="0"/>
        <pt x="321" y="236" on="1"/>
        <pt x="318" y="234" on="0"/>
        <pt x="317" y="233" on="1"/>
        <pt x="320" y="249" on="0"/>
        <pt x="340" y="273" on="0"/>
        <pt x="353" y="278" on="1"/>
        <pt x="353" y="411" on="1"/>
        <pt x="352" y="414" on="0"/>
        <pt x="352" y="418" on="1"/>
        <pt x="351" y="421" on="0"/>
        <pt x="351" y="427" on="0"/>
        <pt x="349" y="430" on="1"/>
        <pt x="348" y="432" on="1"/>
        <pt x="347" y="433" on="0"/>
        <pt x="345" y="436" on="0"/>
        <pt x="343" y="438" on="1"/>
        <pt x="338" y="443" on="0"/>
        <pt x="319" y="452" on="0"/>
        <pt x="304" y="452" on="1"/>
        <pt x="282" y="452" on="1"/>
        <pt x="267" y="452" on="0"/>
        <pt x="249" y="444" on="0"/>
        <pt x="243" y="438" on="1"/>
        <pt x="235" y="430" on="0"/>
        <pt x="233" y="413" on="0"/>
        <pt x="233" y="411" on="1"/>
        <pt x="233" y="278" on="1"/>
        <pt x="247" y="272" on="0"/>
        <pt x="265" y="247" on="0"/>
        <pt x="269" y="233" on="1"/>
        <pt x="268" y="234" on="0"/>
        <pt x="265" y="236" on="1"/>
        <pt x="263" y="237" on="0"/>
        <pt x="257" y="239" on="0"/>
        <pt x="254" y="239" on="1"/>
        <pt x="246" y="239" on="0"/>
        <pt x="238" y="232" on="0"/>
        <pt x="236" y="228" on="1"/>
        <pt x="233" y="224" on="0"/>
        <pt x="233" y="218" on="1"/>
        <pt x="233" y="0" on="1"/>
        <pt x="61" y="0" on="1"/>
        <pt x="61" y="218" on="1"/>
        <pt x="61" y="224" on="0"/>
        <pt x="58" y="228" on="1"/>
        <pt x="56" y="232" on="0"/>
        <pt x="48" y="239" on="0"/>
        <pt x="40" y="239" on="1"/>
        <pt x="36" y="239" on="0"/>
        <pt x="31" y="237" on="0"/>
        <pt x="29" y="236" on="1"/>
        <pt x="26" y="234" on="0"/>
        <pt x="25" y="233" on="1"/>
        <pt x="28" y="247" on="0"/>
        <pt x="46" y="272" on="0"/>
        <pt x="61" y="278" on="1"/>
      </contour>
    </TTGlyph>
    <TTGlyph name="nine" xMin="35" yMin="0" xMax="535" yMax="701">
      <contour>
        <pt x="499" y="150" on="1"/>
        <pt x="499" y="139" on="0"/>
        <pt x="495" y="111" on="0"/>
        <pt x="485" y="80" on="0"/>
        <pt x="467" y="49" on="0"/>
        <pt x="452" y="37" on="1"/>
        <pt x="429" y="17" on="0"/>
        <pt x="368" y="0" on="0"/>
        <pt x="317" y="0" on="1"/>
        <pt x="217" y="0" on="1"/>
        <pt x="166" y="0" on="0"/>
        <pt x="105" y="17" on="0"/>
        <pt x="82" y="37" on="1"/>
        <pt x="67" y="49" on="0"/>
        <pt x="49" y="80" on="0"/>
        <pt x="39" y="111" on="0"/>
        <pt x="35" y="139" on="0"/>
        <pt x="35" y="150" on="1"/>
        <pt x="35" y="217" on="1"/>
        <pt x="207" y="217" on="1"/>
        <pt x="207" y="150" on="1"/>
        <pt x="207" y="144" on="0"/>
        <pt x="210" y="122" on="0"/>
        <pt x="218" y="114" on="1"/>
        <pt x="226" y="106" on="0"/>
        <pt x="253" y="100" on="0"/>
        <pt x="267" y="100" on="1"/>
        <pt x="281" y="100" on="0"/>
        <pt x="308" y="106" on="0"/>
        <pt x="316" y="114" on="1"/>
        <pt x="324" y="122" on="0"/>
        <pt x="327" y="144" on="0"/>
        <pt x="327" y="150" on="1"/>
        <pt x="327" y="218" on="1"/>
        <pt x="327" y="227" on="0"/>
        <pt x="316" y="239" on="0"/>
        <pt x="306" y="239" on="1"/>
        <pt x="297" y="239" on="0"/>
        <pt x="291" y="233" on="1"/>
        <pt x="293" y="247" on="0"/>
        <pt x="313" y="272" on="0"/>
        <pt x="327" y="278" on="1"/>
        <pt x="327" y="301" on="1"/>
        <pt x="217" y="301" on="1"/>
        <pt x="166" y="301" on="0"/>
        <pt x="105" y="318" on="0"/>
        <pt x="82" y="338" on="1"/>
        <pt x="67" y="350" on="0"/>
        <pt x="49" y="381" on="0"/>
        <pt x="39" y="412" on="0"/>
        <pt x="35" y="440" on="0"/>
        <pt x="35" y="451" on="1"/>
        <pt x="35" y="551" on="1"/>
        <pt x="35" y="561" on="0"/>
        <pt x="39" y="590" on="0"/>
        <pt x="49" y="621" on="0"/>
        <pt x="67" y="652" on="0"/>
        <pt x="82" y="664" on="1"/>
        <pt x="105" y="684" on="0"/>
        <pt x="166" y="701" on="0"/>
        <pt x="217" y="701" on="1"/>
        <pt x="317" y="701" on="1"/>
        <pt x="368" y="701" on="0"/>
        <pt x="429" y="684" on="0"/>
        <pt x="452" y="664" on="1"/>
        <pt x="467" y="652" on="0"/>
        <pt x="485" y="621" on="0"/>
        <pt x="495" y="590" on="0"/>
        <pt x="499" y="561" on="0"/>
        <pt x="499" y="551" on="1"/>
        <pt x="499" y="278" on="1"/>
        <pt x="513" y="272" on="0"/>
        <pt x="531" y="247" on="0"/>
        <pt x="535" y="233" on="1"/>
        <pt x="529" y="239" on="0"/>
        <pt x="520" y="239" on="1"/>
        <pt x="510" y="239" on="0"/>
        <pt x="499" y="227" on="0"/>
        <pt x="499" y="218" on="1"/>
      </contour>
      <contour>
        <pt x="207" y="451" on="1"/>
        <pt x="207" y="445" on="0"/>
        <pt x="210" y="423" on="0"/>
        <pt x="218" y="415" on="1"/>
        <pt x="225" y="407" on="0"/>
        <pt x="246" y="402" on="0"/>
        <pt x="258" y="401" on="1"/>
        <pt x="327" y="401" on="1"/>
        <pt x="327" y="551" on="1"/>
        <pt x="327" y="557" on="0"/>
        <pt x="324" y="579" on="0"/>
        <pt x="316" y="587" on="1"/>
        <pt x="308" y="595" on="0"/>
        <pt x="281" y="601" on="0"/>
        <pt x="267" y="601" on="1"/>
        <pt x="253" y="601" on="0"/>
        <pt x="226" y="595" on="0"/>
        <pt x="218" y="587" on="1"/>
        <pt x="210" y="579" on="0"/>
        <pt x="207" y="557" on="0"/>
        <pt x="207" y="551" on="1"/>
      </contour>
    </TTGlyph>
    <TTGlyph name="numbersign" xMin="25" yMin="0" xMax="787" yMax="701">
      <contour>
        <pt x="263" y="419" on="1"/>
        <pt x="140" y="419" on="1"/>
        <pt x="180" y="517" on="1"/>
        <pt x="301" y="517" on="1"/>
        <pt x="372" y="701" on="1"/>
        <pt x="505" y="701" on="1"/>
        <pt x="433" y="517" on="1"/>
        <pt x="527" y="517" on="1"/>
        <pt x="598" y="701" on="1"/>
        <pt x="731" y="701" on="1"/>
        <pt x="659" y="517" on="1"/>
        <pt x="787" y="517" on="1"/>
        <pt x="751" y="419" on="1"/>
        <pt x="620" y="419" on="1"/>
        <pt x="567" y="279" on="1"/>
        <pt x="579" y="264" on="0"/>
        <pt x="579" y="246" on="1"/>
        <pt x="579" y="239" on="1"/>
        <pt x="573" y="248" on="0"/>
        <pt x="563" y="248" on="1"/>
        <pt x="554" y="248" on="0"/>
        <pt x="550" y="238" on="1"/>
        <pt x="543" y="219" on="1"/>
        <pt x="672" y="219" on="1"/>
        <pt x="636" y="121" on="1"/>
        <pt x="505" y="121" on="1"/>
        <pt x="459" y="0" on="1"/>
        <pt x="326" y="0" on="1"/>
        <pt x="373" y="121" on="1"/>
        <pt x="279" y="121" on="1"/>
        <pt x="233" y="0" on="1"/>
        <pt x="100" y="0" on="1"/>
        <pt x="147" y="121" on="1"/>
        <pt x="25" y="121" on="1"/>
        <pt x="65" y="219" on="1"/>
        <pt x="186" y="219" on="1"/>
        <pt x="213" y="287" on="1"/>
        <pt x="213" y="289" on="1"/>
        <pt x="213" y="290" on="0"/>
        <pt x="214" y="291" on="0"/>
        <pt x="214" y="292" on="1"/>
        <pt x="214" y="298" on="0"/>
        <pt x="205" y="307" on="0"/>
        <pt x="197" y="307" on="1"/>
        <pt x="194" y="307" on="0"/>
        <pt x="192" y="306" on="1"/>
        <pt x="197" y="316" on="0"/>
        <pt x="216" y="326" on="0"/>
        <pt x="227" y="326" on="1"/>
      </contour>
      <contour>
        <pt x="418" y="306" on="1"/>
        <pt x="430" y="326" on="0"/>
        <pt x="453" y="326" on="1"/>
        <pt x="489" y="419" on="1"/>
        <pt x="394" y="419" on="1"/>
        <pt x="341" y="279" on="1"/>
        <pt x="353" y="264" on="0"/>
        <pt x="353" y="246" on="1"/>
        <pt x="353" y="239" on="1"/>
        <pt x="347" y="248" on="0"/>
        <pt x="337" y="248" on="1"/>
        <pt x="328" y="248" on="0"/>
        <pt x="324" y="238" on="1"/>
        <pt x="317" y="219" on="1"/>
        <pt x="412" y="219" on="1"/>
        <pt x="439" y="287" on="1"/>
        <pt x="439" y="289" on="1"/>
        <pt x="439" y="290" on="0"/>
        <pt x="440" y="291" on="0"/>
        <pt x="440" y="292" on="1"/>
        <pt x="440" y="298" on="0"/>
        <pt x="431" y="307" on="0"/>
        <pt x="423" y="307" on="1"/>
        <pt x="420" y="307" on="0"/>
      </contour>
    </TTGlyph>
    <TTGlyph name="o" xMin="25" yMin="0" xMax="561" yMax="552">
      <contour>
        <pt x="61" y="405" on="1"/>
        <pt x="61" y="431" on="0"/>
        <pt x="81" y="491" on="0"/>
        <pt x="108" y="515" on="1"/>
        <pt x="132" y="535" on="0"/>
        <pt x="193" y="552" on="0"/>
        <pt x="244" y="552" on="1"/>
        <pt x="342" y="552" on="1"/>
        <pt x="393" y="552" on="0"/>
        <pt x="454" y="535" on="0"/>
        <pt x="478" y="515" on="1"/>
        <pt x="506" y="489" on="0"/>
        <pt x="525" y="425" on="0"/>
        <pt x="525" y="405" on="1"/>
        <pt x="525" y="278" on="1"/>
        <pt x="539" y="272" on="0"/>
        <pt x="557" y="247" on="0"/>
        <pt x="561" y="233" on="1"/>
        <pt x="555" y="239" on="0"/>
        <pt x="545" y="239" on="1"/>
        <pt x="536" y="239" on="0"/>
        <pt x="525" y="227" on="0"/>
        <pt x="525" y="218" on="1"/>
        <pt x="525" y="150" on="1"/>
        <pt x="525" y="120" on="0"/>
        <pt x="504" y="59" on="0"/>
        <pt x="478" y="37" on="1"/>
        <pt x="454" y="17" on="0"/>
        <pt x="393" y="0" on="0"/>
        <pt x="342" y="0" on="1"/>
        <pt x="244" y="0" on="1"/>
        <pt x="193" y="0" on="0"/>
        <pt x="132" y="17" on="0"/>
        <pt x="108" y="37" on="1"/>
        <pt x="82" y="59" on="0"/>
        <pt x="61" y="120" on="0"/>
        <pt x="61" y="150" on="1"/>
        <pt x="61" y="218" on="1"/>
        <pt x="61" y="227" on="0"/>
        <pt x="50" y="239" on="0"/>
        <pt x="41" y="239" on="1"/>
        <pt x="31" y="239" on="0"/>
        <pt x="25" y="233" on="1"/>
        <pt x="28" y="247" on="0"/>
        <pt x="46" y="271" on="0"/>
        <pt x="61" y="278" on="1"/>
      </contour>
      <contour>
        <pt x="353" y="392" on="1"/>
        <pt x="353" y="401" on="0"/>
        <pt x="349" y="424" on="0"/>
        <pt x="337" y="435" on="1"/>
        <pt x="320" y="452" on="0"/>
        <pt x="293" y="452" on="1"/>
        <pt x="266" y="452" on="0"/>
        <pt x="249" y="435" on="1"/>
        <pt x="238" y="424" on="0"/>
        <pt x="233" y="401" on="0"/>
        <pt x="233" y="392" on="1"/>
        <pt x="233" y="278" on="1"/>
        <pt x="247" y="272" on="0"/>
        <pt x="266" y="247" on="0"/>
        <pt x="269" y="233" on="1"/>
        <pt x="263" y="239" on="0"/>
        <pt x="253" y="239" on="1"/>
        <pt x="244" y="239" on="0"/>
        <pt x="233" y="227" on="0"/>
        <pt x="233" y="218" on="1"/>
        <pt x="233" y="154" on="1"/>
        <pt x="233" y="144" on="0"/>
        <pt x="241" y="124" on="0"/>
        <pt x="249" y="117" on="1"/>
        <pt x="266" y="100" on="0"/>
        <pt x="293" y="100" on="1"/>
        <pt x="320" y="100" on="0"/>
        <pt x="337" y="117" on="1"/>
        <pt x="345" y="124" on="0"/>
        <pt x="353" y="144" on="0"/>
        <pt x="353" y="154" on="1"/>
        <pt x="353" y="218" on="1"/>
        <pt x="353" y="227" on="0"/>
        <pt x="342" y="239" on="0"/>
        <pt x="333" y="239" on="1"/>
        <pt x="323" y="239" on="0"/>
        <pt x="317" y="233" on="1"/>
        <pt x="320" y="247" on="0"/>
        <pt x="338" y="271" on="0"/>
        <pt x="353" y="278" on="1"/>
      </contour>
    </TTGlyph>
    <TTGlyph name="one" xMin="25" yMin="0" xMax="294" yMax="690">
      <contour>
        <pt x="86" y="219" on="1"/>
        <pt x="86" y="225" on="0"/>
        <pt x="83" y="229" on="1"/>
        <pt x="81" y="233" on="0"/>
        <pt x="73" y="240" on="0"/>
        <pt x="65" y="240" on="1"/>
        <pt x="56" y="240" on="0"/>
        <pt x="50" y="234" on="1"/>
        <pt x="53" y="249" on="0"/>
        <pt x="72" y="273" on="0"/>
        <pt x="86" y="279" on="1"/>
        <pt x="86" y="590" on="1"/>
        <pt x="25" y="590" on="1"/>
        <pt x="25" y="690" on="1"/>
        <pt x="258" y="690" on="1"/>
        <pt x="258" y="279" on="1"/>
        <pt x="272" y="272" on="0"/>
        <pt x="291" y="249" on="0"/>
        <pt x="294" y="234" on="1"/>
        <pt x="288" y="240" on="0"/>
        <pt x="279" y="240" on="1"/>
        <pt x="271" y="240" on="0"/>
        <pt x="263" y="233" on="0"/>
        <pt x="261" y="229" on="1"/>
        <pt x="258" y="225" on="0"/>
        <pt x="258" y="219" on="1"/>
        <pt x="258" y="0" on="1"/>
        <pt x="86" y="0" on="1"/>
      </contour>
    </TTGlyph>
    <TTGlyph name="p" xMin="25" yMin="-209" xMax="561" yMax="552">
      <contour>
        <pt x="61" y="552" on="1"/>
        <pt x="396" y="552" on="1"/>
        <pt x="409" y="552" on="0"/>
        <pt x="460" y="540" on="0"/>
        <pt x="483" y="518" on="1"/>
        <pt x="506" y="495" on="0"/>
        <pt x="525" y="450" on="0"/>
        <pt x="525" y="417" on="1"/>
        <pt x="525" y="278" on="1"/>
        <pt x="539" y="271" on="0"/>
        <pt x="558" y="248" on="0"/>
        <pt x="561" y="233" on="1"/>
        <pt x="555" y="239" on="0"/>
        <pt x="545" y="239" on="1"/>
        <pt x="536" y="239" on="0"/>
        <pt x="525" y="227" on="0"/>
        <pt x="525" y="218" on="1"/>
        <pt x="525" y="138" on="1"/>
        <pt x="525" y="109" on="0"/>
        <pt x="499" y="56" on="0"/>
        <pt x="474" y="35" on="1"/>
        <pt x="459" y="21" on="0"/>
        <pt x="393" y="-6" on="0"/>
        <pt x="351" y="-6" on="1"/>
        <pt x="311" y="-6" on="0"/>
        <pt x="255" y="16" on="0"/>
        <pt x="233" y="35" on="1"/>
        <pt x="233" y="-209" on="1"/>
        <pt x="61" y="-209" on="1"/>
        <pt x="61" y="218" on="1"/>
        <pt x="61" y="227" on="0"/>
        <pt x="49" y="239" on="0"/>
        <pt x="40" y="239" on="1"/>
        <pt x="29" y="239" on="0"/>
        <pt x="25" y="233" on="1"/>
        <pt x="28" y="247" on="0"/>
        <pt x="47" y="272" on="0"/>
        <pt x="61" y="278" on="1"/>
      </contour>
      <contour>
        <pt x="353" y="218" on="1"/>
        <pt x="353" y="227" on="0"/>
        <pt x="342" y="239" on="0"/>
        <pt x="333" y="239" on="1"/>
        <pt x="322" y="239" on="0"/>
        <pt x="318" y="233" on="1"/>
        <pt x="320" y="247" on="0"/>
        <pt x="338" y="271" on="0"/>
        <pt x="353" y="278" on="1"/>
        <pt x="353" y="413" on="1"/>
        <pt x="353" y="428" on="0"/>
        <pt x="345" y="439" on="1"/>
        <pt x="333" y="452" on="0"/>
        <pt x="315" y="452" on="1"/>
        <pt x="233" y="452" on="1"/>
        <pt x="233" y="278" on="1"/>
        <pt x="247" y="271" on="0"/>
        <pt x="266" y="248" on="0"/>
        <pt x="269" y="233" on="1"/>
        <pt x="268" y="233" on="1"/>
        <pt x="262" y="239" on="0"/>
        <pt x="252" y="239" on="1"/>
        <pt x="243" y="239" on="0"/>
        <pt x="232" y="227" on="0"/>
        <pt x="233" y="218" on="1"/>
        <pt x="233" y="158" on="1"/>
        <pt x="233" y="150" on="0"/>
        <pt x="242" y="129" on="0"/>
        <pt x="259" y="111" on="0"/>
        <pt x="283" y="98" on="0"/>
        <pt x="299" y="98" on="1"/>
        <pt x="316" y="98" on="0"/>
        <pt x="334" y="105" on="0"/>
        <pt x="342" y="111" on="1"/>
        <pt x="349" y="118" on="0"/>
        <pt x="353" y="136" on="0"/>
        <pt x="353" y="145" on="1"/>
      </contour>
    </TTGlyph>
    <TTGlyph name="parenleft" xMin="25" yMin="-123" xMax="302" yMax="729">
      <contour>
        <pt x="218" y="240" on="1"/>
        <pt x="213" y="244" on="0"/>
        <pt x="207" y="244" on="1"/>
        <pt x="201" y="244" on="0"/>
        <pt x="192" y="235" on="0"/>
        <pt x="192" y="227" on="1"/>
        <pt x="192" y="203" on="0"/>
        <pt x="212" y="128" on="0"/>
        <pt x="244" y="49" on="0"/>
        <pt x="283" y="-21" on="0"/>
        <pt x="302" y="-39" on="1"/>
        <pt x="223" y="-123" on="1"/>
        <pt x="187" y="-95" on="0"/>
        <pt x="129" y="-14" on="0"/>
        <pt x="87" y="79" on="0"/>
        <pt x="61" y="177" on="0"/>
        <pt x="56" y="223" on="1"/>
        <pt x="54" y="244" on="0"/>
        <pt x="36" y="244" on="1"/>
        <pt x="30" y="244" on="0"/>
        <pt x="25" y="240" on="1"/>
        <pt x="25" y="265" on="0"/>
        <pt x="46" y="276" on="1"/>
        <pt x="46" y="359" on="0"/>
        <pt x="64" y="485" on="0"/>
        <pt x="103" y="589" on="0"/>
        <pt x="164" y="681" on="0"/>
        <pt x="207" y="729" on="1"/>
        <pt x="291" y="647" on="1"/>
        <pt x="260" y="608" on="0"/>
        <pt x="219" y="531" on="0"/>
        <pt x="195" y="444" on="0"/>
        <pt x="185" y="343" on="0"/>
        <pt x="185" y="279" on="1"/>
        <pt x="199" y="275" on="0"/>
        <pt x="216" y="254" on="0"/>
      </contour>
    </TTGlyph>
    <TTGlyph name="parenright" xMin="25" yMin="-123" xMax="302" yMax="729">
      <contour>
        <pt x="302" y="240" on="1"/>
        <pt x="297" y="244" on="0"/>
        <pt x="291" y="244" on="1"/>
        <pt x="272" y="244" on="0"/>
        <pt x="271" y="223" on="1"/>
        <pt x="266" y="177" on="0"/>
        <pt x="240" y="79" on="0"/>
        <pt x="198" y="-14" on="0"/>
        <pt x="140" y="-95" on="0"/>
        <pt x="104" y="-123" on="1"/>
        <pt x="25" y="-39" on="1"/>
        <pt x="44" y="-21" on="0"/>
        <pt x="83" y="49" on="0"/>
        <pt x="115" y="128" on="0"/>
        <pt x="135" y="203" on="0"/>
        <pt x="135" y="227" on="1"/>
        <pt x="135" y="235" on="0"/>
        <pt x="126" y="244" on="0"/>
        <pt x="120" y="244" on="1"/>
        <pt x="114" y="244" on="0"/>
        <pt x="109" y="240" on="1"/>
        <pt x="112" y="253" on="0"/>
        <pt x="128" y="276" on="0"/>
        <pt x="142" y="279" on="1"/>
        <pt x="142" y="343" on="0"/>
        <pt x="132" y="444" on="0"/>
        <pt x="108" y="531" on="0"/>
        <pt x="67" y="608" on="0"/>
        <pt x="36" y="647" on="1"/>
        <pt x="120" y="729" on="1"/>
        <pt x="163" y="681" on="0"/>
        <pt x="224" y="589" on="0"/>
        <pt x="263" y="485" on="0"/>
        <pt x="281" y="359" on="0"/>
        <pt x="281" y="276" on="1"/>
        <pt x="302" y="265" on="0"/>
      </contour>
    </TTGlyph>
    <TTGlyph name="percent" xMin="25" yMin="0" xMax="451" yMax="703">
      <contour>
        <pt x="157" y="325" on="1"/>
        <pt x="185" y="396" on="0"/>
        <pt x="238" y="531" on="0"/>
        <pt x="279" y="636" on="0"/>
        <pt x="303" y="700" on="0"/>
        <pt x="303" y="700" on="1"/>
        <pt x="436" y="700" on="1"/>
        <pt x="271" y="278" on="1"/>
        <pt x="283" y="263" on="0"/>
        <pt x="283" y="245" on="1"/>
        <pt x="283" y="238" on="1"/>
        <pt x="277" y="247" on="0"/>
        <pt x="267" y="247" on="1"/>
        <pt x="258" y="247" on="0"/>
        <pt x="254" y="237" on="1"/>
        <pt x="238" y="191" on="0"/>
        <pt x="221" y="147" on="1"/>
        <pt x="207" y="109" on="0"/>
        <pt x="175" y="29" on="0"/>
        <pt x="164" y="0" on="1"/>
        <pt x="31" y="0" on="1"/>
        <pt x="143" y="286" on="1"/>
        <pt x="143" y="288" on="1"/>
        <pt x="143" y="289" on="0"/>
        <pt x="144" y="290" on="0"/>
        <pt x="144" y="291" on="1"/>
        <pt x="144" y="297" on="0"/>
        <pt x="135" y="306" on="0"/>
        <pt x="127" y="306" on="1"/>
        <pt x="124" y="306" on="0"/>
        <pt x="122" y="305" on="1"/>
        <pt x="134" y="325" on="0"/>
      </contour>
      <contour>
        <pt x="309" y="24" on="1"/>
        <pt x="285" y="48" on="0"/>
        <pt x="285" y="83" on="1"/>
        <pt x="285" y="99" on="0"/>
        <pt x="297" y="130" on="0"/>
        <pt x="309" y="142" on="1"/>
        <pt x="333" y="166" on="0"/>
        <pt x="368" y="166" on="1"/>
        <pt x="384" y="166" on="0"/>
        <pt x="415" y="154" on="0"/>
        <pt x="427" y="142" on="1"/>
        <pt x="451" y="118" on="0"/>
        <pt x="451" y="83" on="1"/>
        <pt x="451" y="67" on="0"/>
        <pt x="439" y="36" on="0"/>
        <pt x="427" y="24" on="1"/>
        <pt x="403" y="0" on="0"/>
        <pt x="368" y="0" on="1"/>
        <pt x="352" y="0" on="0"/>
        <pt x="321" y="12" on="0"/>
      </contour>
      <contour>
        <pt x="167" y="679" on="1"/>
        <pt x="191" y="655" on="0"/>
        <pt x="191" y="620" on="1"/>
        <pt x="191" y="604" on="0"/>
        <pt x="179" y="573" on="0"/>
        <pt x="167" y="561" on="1"/>
        <pt x="143" y="537" on="0"/>
        <pt x="108" y="537" on="1"/>
        <pt x="92" y="537" on="0"/>
        <pt x="61" y="549" on="0"/>
        <pt x="49" y="561" on="1"/>
        <pt x="25" y="585" on="0"/>
        <pt x="25" y="620" on="1"/>
        <pt x="25" y="636" on="0"/>
        <pt x="37" y="667" on="0"/>
        <pt x="49" y="679" on="1"/>
        <pt x="73" y="703" on="0"/>
        <pt x="108" y="703" on="1"/>
        <pt x="124" y="703" on="0"/>
        <pt x="155" y="691" on="0"/>
      </contour>
    </TTGlyph>
    <TTGlyph name="period" xMin="25" yMin="0" xMax="191" yMax="166">
      <contour>
        <pt x="49" y="24" on="1"/>
        <pt x="25" y="48" on="0"/>
        <pt x="25" y="83" on="1"/>
        <pt x="25" y="99" on="0"/>
        <pt x="37" y="130" on="0"/>
        <pt x="49" y="142" on="1"/>
        <pt x="73" y="166" on="0"/>
        <pt x="108" y="166" on="1"/>
        <pt x="124" y="166" on="0"/>
        <pt x="155" y="154" on="0"/>
        <pt x="167" y="142" on="1"/>
        <pt x="191" y="118" on="0"/>
        <pt x="191" y="83" on="1"/>
        <pt x="191" y="67" on="0"/>
        <pt x="179" y="36" on="0"/>
        <pt x="167" y="24" on="1"/>
        <pt x="143" y="0" on="0"/>
        <pt x="108" y="0" on="1"/>
        <pt x="92" y="0" on="0"/>
        <pt x="61" y="12" on="0"/>
      </contour>
    </TTGlyph>
    <TTGlyph name="plus" xMin="25" yMin="140" xMax="409" yMax="524">
      <contour>
        <pt x="155" y="283" on="1"/>
        <pt x="25" y="283" on="1"/>
        <pt x="25" y="381" on="1"/>
        <pt x="156" y="381" on="1"/>
        <pt x="156" y="524" on="1"/>
        <pt x="278" y="524" on="1"/>
        <pt x="279" y="381" on="1"/>
        <pt x="409" y="381" on="1"/>
        <pt x="409" y="283" on="1"/>
        <pt x="278" y="283" on="1"/>
        <pt x="278" y="272" on="1"/>
        <pt x="299" y="262" on="0"/>
        <pt x="304" y="240" on="1"/>
        <pt x="300" y="244" on="0"/>
        <pt x="293" y="244" on="1"/>
        <pt x="288" y="244" on="0"/>
        <pt x="278" y="236" on="0"/>
        <pt x="278" y="231" on="1"/>
        <pt x="278" y="140" on="1"/>
        <pt x="154" y="140" on="1"/>
        <pt x="155" y="229" on="1"/>
        <pt x="155" y="235" on="0"/>
        <pt x="146" y="244" on="0"/>
        <pt x="140" y="244" on="1"/>
        <pt x="135" y="244" on="0"/>
        <pt x="129" y="240" on="1"/>
        <pt x="134" y="262" on="0"/>
        <pt x="155" y="272" on="1"/>
      </contour>
    </TTGlyph>
    <TTGlyph name="q" xMin="25" yMin="-209" xMax="561" yMax="552">
      <contour>
        <pt x="353" y="-209" on="1"/>
        <pt x="353" y="35" on="1"/>
        <pt x="331" y="16" on="0"/>
        <pt x="275" y="-6" on="0"/>
        <pt x="235" y="-6" on="1"/>
        <pt x="193" y="-6" on="0"/>
        <pt x="127" y="21" on="0"/>
        <pt x="112" y="35" on="1"/>
        <pt x="87" y="56" on="0"/>
        <pt x="61" y="109" on="0"/>
        <pt x="61" y="138" on="1"/>
        <pt x="61" y="218" on="1"/>
        <pt x="61" y="227" on="0"/>
        <pt x="50" y="239" on="0"/>
        <pt x="41" y="239" on="1"/>
        <pt x="31" y="239" on="0"/>
        <pt x="25" y="233" on="1"/>
        <pt x="28" y="248" on="0"/>
        <pt x="47" y="271" on="0"/>
        <pt x="61" y="278" on="1"/>
        <pt x="61" y="417" on="1"/>
        <pt x="61" y="450" on="0"/>
        <pt x="80" y="495" on="0"/>
        <pt x="103" y="518" on="1"/>
        <pt x="126" y="540" on="0"/>
        <pt x="176" y="552" on="0"/>
        <pt x="190" y="552" on="1"/>
        <pt x="525" y="552" on="1"/>
        <pt x="525" y="278" on="1"/>
        <pt x="539" y="272" on="0"/>
        <pt x="557" y="247" on="0"/>
        <pt x="561" y="233" on="1"/>
        <pt x="556" y="239" on="0"/>
        <pt x="546" y="239" on="1"/>
        <pt x="537" y="239" on="0"/>
        <pt x="525" y="227" on="0"/>
        <pt x="525" y="218" on="1"/>
        <pt x="525" y="-209" on="1"/>
      </contour>
      <contour>
        <pt x="353" y="452" on="1"/>
        <pt x="271" y="452" on="1"/>
        <pt x="253" y="452" on="0"/>
        <pt x="241" y="439" on="1"/>
        <pt x="233" y="428" on="0"/>
        <pt x="233" y="413" on="1"/>
        <pt x="233" y="278" on="1"/>
        <pt x="262" y="265" on="0"/>
        <pt x="268" y="233" on="1"/>
        <pt x="263" y="239" on="0"/>
        <pt x="253" y="239" on="1"/>
        <pt x="244" y="239" on="0"/>
        <pt x="233" y="227" on="0"/>
        <pt x="233" y="218" on="1"/>
        <pt x="233" y="145" on="1"/>
        <pt x="233" y="136" on="0"/>
        <pt x="237" y="118" on="0"/>
        <pt x="244" y="111" on="1"/>
        <pt x="252" y="105" on="0"/>
        <pt x="270" y="98" on="0"/>
        <pt x="287" y="98" on="1"/>
        <pt x="303" y="98" on="0"/>
        <pt x="327" y="111" on="0"/>
        <pt x="344" y="129" on="0"/>
        <pt x="353" y="150" on="0"/>
        <pt x="353" y="158" on="1"/>
        <pt x="353" y="218" on="1"/>
        <pt x="353" y="227" on="0"/>
        <pt x="343" y="239" on="0"/>
        <pt x="334" y="239" on="1"/>
        <pt x="326" y="239" on="0"/>
        <pt x="317" y="233" on="1"/>
        <pt x="320" y="248" on="0"/>
        <pt x="339" y="271" on="0"/>
        <pt x="353" y="278" on="1"/>
      </contour>
    </TTGlyph>
    <TTGlyph name="question" xMin="35" yMin="-5" xMax="510" yMax="700">
      <contour>
        <pt x="326" y="441" on="1"/>
        <pt x="338" y="455" on="0"/>
        <pt x="338" y="472" on="1"/>
        <pt x="338" y="550" on="1"/>
        <pt x="338" y="556" on="0"/>
        <pt x="335" y="578" on="0"/>
        <pt x="327" y="586" on="1"/>
        <pt x="319" y="594" on="0"/>
        <pt x="292" y="600" on="0"/>
        <pt x="278" y="600" on="1"/>
        <pt x="264" y="600" on="0"/>
        <pt x="237" y="594" on="0"/>
        <pt x="229" y="586" on="1"/>
        <pt x="221" y="578" on="0"/>
        <pt x="218" y="556" on="0"/>
        <pt x="218" y="550" on="1"/>
        <pt x="218" y="498" on="1"/>
        <pt x="46" y="498" on="1"/>
        <pt x="46" y="553" on="1"/>
        <pt x="46" y="563" on="0"/>
        <pt x="51" y="591" on="0"/>
        <pt x="61" y="621" on="0"/>
        <pt x="79" y="651" on="0"/>
        <pt x="93" y="663" on="1"/>
        <pt x="116" y="683" on="0"/>
        <pt x="177" y="700" on="0"/>
        <pt x="228" y="700" on="1"/>
        <pt x="328" y="700" on="1"/>
        <pt x="379" y="700" on="0"/>
        <pt x="440" y="683" on="0"/>
        <pt x="463" y="663" on="1"/>
        <pt x="489" y="639" on="0"/>
        <pt x="510" y="584" on="0"/>
        <pt x="510" y="553" on="1"/>
        <pt x="510" y="432" on="1"/>
        <pt x="510" y="402" on="0"/>
        <pt x="490" y="360" on="0"/>
        <pt x="471" y="346" on="1"/>
        <pt x="456" y="335" on="0"/>
        <pt x="423" y="323" on="0"/>
        <pt x="388" y="323" on="1"/>
        <pt x="268" y="323" on="1"/>
        <pt x="250" y="323" on="0"/>
        <pt x="234" y="316" on="0"/>
        <pt x="228" y="310" on="1"/>
        <pt x="220" y="301" on="0"/>
        <pt x="220" y="285" on="1"/>
        <pt x="220" y="249" on="1"/>
        <pt x="46" y="249" on="1"/>
        <pt x="46" y="337" on="1"/>
        <pt x="46" y="358" on="0"/>
        <pt x="66" y="392" on="0"/>
        <pt x="82" y="402" on="1"/>
        <pt x="99" y="413" on="0"/>
        <pt x="143" y="424" on="0"/>
        <pt x="178" y="424" on="1"/>
        <pt x="284" y="424" on="1"/>
        <pt x="312" y="424" on="0"/>
      </contour>
      <contour>
        <pt x="64" y="168" on="1"/>
        <pt x="35" y="139" on="0"/>
        <pt x="35" y="96" on="1"/>
        <pt x="35" y="77" on="0"/>
        <pt x="49" y="39" on="0"/>
        <pt x="64" y="25" on="1"/>
        <pt x="96" y="-5" on="0"/>
        <pt x="136" y="-5" on="1"/>
        <pt x="155" y="-5" on="0"/>
        <pt x="193" y="11" on="0"/>
        <pt x="207" y="25" on="1"/>
        <pt x="221" y="39" on="0"/>
        <pt x="237" y="77" on="0"/>
        <pt x="237" y="96" on="1"/>
        <pt x="237" y="136" on="0"/>
        <pt x="207" y="168" on="1"/>
        <pt x="193" y="183" on="0"/>
        <pt x="155" y="197" on="0"/>
        <pt x="136" y="197" on="1"/>
        <pt x="93" y="197" on="0"/>
      </contour>
    </TTGlyph>
    <TTGlyph name="quotedbl" xMin="25" yMin="425" xMax="439" yMax="700">
      <contour>
        <pt x="110" y="536" on="1"/>
        <pt x="93" y="536" on="0"/>
        <pt x="61" y="546" on="0"/>
        <pt x="49" y="558" on="1"/>
        <pt x="25" y="582" on="0"/>
        <pt x="25" y="617" on="1"/>
        <pt x="25" y="633" on="0"/>
        <pt x="37" y="664" on="0"/>
        <pt x="49" y="676" on="1"/>
        <pt x="73" y="700" on="0"/>
        <pt x="108" y="700" on="1"/>
        <pt x="124" y="700" on="0"/>
        <pt x="155" y="688" on="0"/>
        <pt x="167" y="676" on="1"/>
        <pt x="183" y="660" on="0"/>
        <pt x="197" y="620" on="0"/>
        <pt x="197" y="600" on="1"/>
        <pt x="197" y="539" on="0"/>
        <pt x="123" y="445" on="0"/>
        <pt x="61" y="425" on="1"/>
        <pt x="71" y="430" on="1"/>
        <pt x="61" y="425" on="1"/>
        <pt x="88" y="451" on="0"/>
        <pt x="120" y="502" on="0"/>
        <pt x="120" y="536" on="1"/>
      </contour>
      <contour>
        <pt x="352" y="536" on="1"/>
        <pt x="335" y="536" on="0"/>
        <pt x="303" y="546" on="0"/>
        <pt x="291" y="558" on="1"/>
        <pt x="267" y="582" on="0"/>
        <pt x="267" y="617" on="1"/>
        <pt x="267" y="633" on="0"/>
        <pt x="279" y="664" on="0"/>
        <pt x="291" y="676" on="1"/>
        <pt x="315" y="700" on="0"/>
        <pt x="350" y="700" on="1"/>
        <pt x="366" y="700" on="0"/>
        <pt x="397" y="688" on="0"/>
        <pt x="409" y="676" on="1"/>
        <pt x="425" y="660" on="0"/>
        <pt x="439" y="620" on="0"/>
        <pt x="439" y="600" on="1"/>
        <pt x="439" y="539" on="0"/>
        <pt x="365" y="445" on="0"/>
        <pt x="303" y="425" on="1"/>
        <pt x="313" y="430" on="1"/>
        <pt x="303" y="425" on="1"/>
        <pt x="330" y="451" on="0"/>
        <pt x="362" y="502" on="0"/>
        <pt x="362" y="536" on="1"/>
      </contour>
    </TTGlyph>
    <TTGlyph name="quotedblleft" xMin="35" yMin="424" xMax="449" yMax="699">
      <contour>
        <pt x="364" y="588" on="1"/>
        <pt x="381" y="588" on="0"/>
        <pt x="413" y="578" on="0"/>
        <pt x="425" y="566" on="1"/>
        <pt x="449" y="542" on="0"/>
        <pt x="449" y="507" on="1"/>
        <pt x="449" y="491" on="0"/>
        <pt x="437" y="460" on="0"/>
        <pt x="425" y="448" on="1"/>
        <pt x="401" y="424" on="0"/>
        <pt x="366" y="424" on="1"/>
        <pt x="350" y="424" on="0"/>
        <pt x="319" y="436" on="0"/>
        <pt x="307" y="448" on="1"/>
        <pt x="291" y="464" on="0"/>
        <pt x="277" y="504" on="0"/>
        <pt x="277" y="524" on="1"/>
        <pt x="277" y="585" on="0"/>
        <pt x="351" y="679" on="0"/>
        <pt x="413" y="699" on="1"/>
        <pt x="403" y="693" on="1"/>
        <pt x="413" y="699" on="1"/>
        <pt x="386" y="673" on="0"/>
        <pt x="354" y="622" on="0"/>
        <pt x="354" y="588" on="1"/>
      </contour>
      <contour>
        <pt x="122" y="588" on="1"/>
        <pt x="139" y="588" on="0"/>
        <pt x="171" y="578" on="0"/>
        <pt x="183" y="566" on="1"/>
        <pt x="207" y="542" on="0"/>
        <pt x="207" y="507" on="1"/>
        <pt x="207" y="491" on="0"/>
        <pt x="195" y="460" on="0"/>
        <pt x="183" y="448" on="1"/>
        <pt x="159" y="424" on="0"/>
        <pt x="124" y="424" on="1"/>
        <pt x="108" y="424" on="0"/>
        <pt x="77" y="436" on="0"/>
        <pt x="65" y="448" on="1"/>
        <pt x="49" y="464" on="0"/>
        <pt x="35" y="504" on="0"/>
        <pt x="35" y="524" on="1"/>
        <pt x="35" y="585" on="0"/>
        <pt x="109" y="679" on="0"/>
        <pt x="171" y="699" on="1"/>
        <pt x="161" y="693" on="1"/>
        <pt x="171" y="699" on="1"/>
        <pt x="144" y="673" on="0"/>
        <pt x="112" y="622" on="0"/>
        <pt x="112" y="588" on="1"/>
      </contour>
    </TTGlyph>
    <TTGlyph name="quotedblright" xMin="25" yMin="425" xMax="439" yMax="700">
      <contour>
        <pt x="110" y="536" on="1"/>
        <pt x="93" y="536" on="0"/>
        <pt x="61" y="546" on="0"/>
        <pt x="49" y="558" on="1"/>
        <pt x="25" y="582" on="0"/>
        <pt x="25" y="617" on="1"/>
        <pt x="25" y="633" on="0"/>
        <pt x="37" y="664" on="0"/>
        <pt x="49" y="676" on="1"/>
        <pt x="73" y="700" on="0"/>
        <pt x="108" y="700" on="1"/>
        <pt x="124" y="700" on="0"/>
        <pt x="155" y="688" on="0"/>
        <pt x="167" y="676" on="1"/>
        <pt x="183" y="660" on="0"/>
        <pt x="197" y="620" on="0"/>
        <pt x="197" y="600" on="1"/>
        <pt x="197" y="539" on="0"/>
        <pt x="123" y="445" on="0"/>
        <pt x="61" y="425" on="1"/>
        <pt x="71" y="430" on="1"/>
        <pt x="61" y="425" on="1"/>
        <pt x="88" y="451" on="0"/>
        <pt x="120" y="502" on="0"/>
        <pt x="120" y="536" on="1"/>
      </contour>
      <contour>
        <pt x="352" y="536" on="1"/>
        <pt x="335" y="536" on="0"/>
        <pt x="303" y="546" on="0"/>
        <pt x="291" y="558" on="1"/>
        <pt x="267" y="582" on="0"/>
        <pt x="267" y="617" on="1"/>
        <pt x="267" y="633" on="0"/>
        <pt x="279" y="664" on="0"/>
        <pt x="291" y="676" on="1"/>
        <pt x="315" y="700" on="0"/>
        <pt x="350" y="700" on="1"/>
        <pt x="366" y="700" on="0"/>
        <pt x="397" y="688" on="0"/>
        <pt x="409" y="676" on="1"/>
        <pt x="425" y="660" on="0"/>
        <pt x="439" y="620" on="0"/>
        <pt x="439" y="600" on="1"/>
        <pt x="439" y="539" on="0"/>
        <pt x="365" y="445" on="0"/>
        <pt x="303" y="425" on="1"/>
        <pt x="313" y="430" on="1"/>
        <pt x="303" y="425" on="1"/>
        <pt x="330" y="451" on="0"/>
        <pt x="362" y="502" on="0"/>
        <pt x="362" y="536" on="1"/>
      </contour>
    </TTGlyph>
    <TTGlyph name="quoteleft" xMin="35" yMin="424" xMax="207" yMax="699">
      <contour>
        <pt x="122" y="588" on="1"/>
        <pt x="139" y="588" on="0"/>
        <pt x="171" y="578" on="0"/>
        <pt x="183" y="566" on="1"/>
        <pt x="207" y="542" on="0"/>
        <pt x="207" y="507" on="1"/>
        <pt x="207" y="491" on="0"/>
        <pt x="195" y="460" on="0"/>
        <pt x="183" y="448" on="1"/>
        <pt x="159" y="424" on="0"/>
        <pt x="124" y="424" on="1"/>
        <pt x="108" y="424" on="0"/>
        <pt x="77" y="436" on="0"/>
        <pt x="65" y="448" on="1"/>
        <pt x="49" y="464" on="0"/>
        <pt x="35" y="504" on="0"/>
        <pt x="35" y="524" on="1"/>
        <pt x="35" y="585" on="0"/>
        <pt x="109" y="679" on="0"/>
        <pt x="171" y="699" on="1"/>
        <pt x="161" y="693" on="1"/>
        <pt x="171" y="699" on="1"/>
        <pt x="144" y="673" on="0"/>
        <pt x="112" y="622" on="0"/>
        <pt x="112" y="588" on="1"/>
      </contour>
    </TTGlyph>
    <TTGlyph name="quoteright" xMin="25" yMin="425" xMax="197" yMax="700">
      <contour>
        <pt x="110" y="536" on="1"/>
        <pt x="93" y="536" on="0"/>
        <pt x="61" y="546" on="0"/>
        <pt x="49" y="558" on="1"/>
        <pt x="25" y="582" on="0"/>
        <pt x="25" y="617" on="1"/>
        <pt x="25" y="633" on="0"/>
        <pt x="37" y="664" on="0"/>
        <pt x="49" y="676" on="1"/>
        <pt x="73" y="700" on="0"/>
        <pt x="108" y="700" on="1"/>
        <pt x="124" y="700" on="0"/>
        <pt x="155" y="688" on="0"/>
        <pt x="167" y="676" on="1"/>
        <pt x="183" y="660" on="0"/>
        <pt x="197" y="620" on="0"/>
        <pt x="197" y="600" on="1"/>
        <pt x="197" y="539" on="0"/>
        <pt x="123" y="445" on="0"/>
        <pt x="61" y="425" on="1"/>
        <pt x="71" y="430" on="1"/>
        <pt x="61" y="425" on="1"/>
        <pt x="88" y="451" on="0"/>
        <pt x="120" y="502" on="0"/>
        <pt x="120" y="536" on="1"/>
      </contour>
    </TTGlyph>
    <TTGlyph name="quotesingle" xMin="25" yMin="425" xMax="197" yMax="700">
      <contour>
        <pt x="110" y="536" on="1"/>
        <pt x="93" y="536" on="0"/>
        <pt x="61" y="546" on="0"/>
        <pt x="49" y="558" on="1"/>
        <pt x="25" y="582" on="0"/>
        <pt x="25" y="617" on="1"/>
        <pt x="25" y="633" on="0"/>
        <pt x="37" y="664" on="0"/>
        <pt x="49" y="676" on="1"/>
        <pt x="73" y="700" on="0"/>
        <pt x="108" y="700" on="1"/>
        <pt x="124" y="700" on="0"/>
        <pt x="155" y="688" on="0"/>
        <pt x="167" y="676" on="1"/>
        <pt x="183" y="660" on="0"/>
        <pt x="197" y="620" on="0"/>
        <pt x="197" y="600" on="1"/>
        <pt x="197" y="539" on="0"/>
        <pt x="123" y="445" on="0"/>
        <pt x="61" y="425" on="1"/>
        <pt x="71" y="430" on="1"/>
        <pt x="61" y="425" on="1"/>
        <pt x="88" y="451" on="0"/>
        <pt x="120" y="502" on="0"/>
        <pt x="120" y="536" on="1"/>
      </contour>
    </TTGlyph>
    <TTGlyph name="r" xMin="25" yMin="0" xMax="396" yMax="552">
      <contour>
        <pt x="25" y="233" on="1"/>
        <pt x="28" y="248" on="0"/>
        <pt x="47" y="272" on="0"/>
        <pt x="61" y="278" on="1"/>
        <pt x="61" y="552" on="1"/>
        <pt x="233" y="552" on="1"/>
        <pt x="233" y="505" on="1"/>
        <pt x="257" y="525" on="0"/>
        <pt x="321" y="552" on="0"/>
        <pt x="363" y="552" on="1"/>
        <pt x="396" y="552" on="1"/>
        <pt x="396" y="442" on="1"/>
        <pt x="328" y="442" on="1"/>
        <pt x="290" y="442" on="0"/>
        <pt x="240" y="393" on="0"/>
        <pt x="233" y="357" on="1"/>
        <pt x="233" y="278" on="1"/>
        <pt x="247" y="271" on="0"/>
        <pt x="266" y="248" on="0"/>
        <pt x="269" y="233" on="1"/>
        <pt x="268" y="234" on="0"/>
        <pt x="265" y="236" on="1"/>
        <pt x="263" y="237" on="0"/>
        <pt x="257" y="239" on="0"/>
        <pt x="254" y="239" on="1"/>
        <pt x="246" y="239" on="0"/>
        <pt x="238" y="232" on="0"/>
        <pt x="236" y="228" on="1"/>
        <pt x="233" y="224" on="0"/>
        <pt x="233" y="218" on="1"/>
        <pt x="233" y="0" on="1"/>
        <pt x="61" y="0" on="1"/>
        <pt x="61" y="218" on="1"/>
        <pt x="61" y="224" on="0"/>
        <pt x="58" y="228" on="1"/>
        <pt x="56" y="232" on="0"/>
        <pt x="48" y="239" on="0"/>
        <pt x="40" y="239" on="1"/>
        <pt x="36" y="239" on="0"/>
        <pt x="31" y="237" on="0"/>
        <pt x="29" y="236" on="1"/>
        <pt x="26" y="234" on="0"/>
      </contour>
    </TTGlyph>
    <TTGlyph name="s" xMin="25" yMin="0" xMax="374" yMax="552">
      <contour>
        <pt x="39" y="100" on="1"/>
        <pt x="175" y="100" on="1"/>
        <pt x="195" y="100" on="0"/>
        <pt x="208" y="114" on="1"/>
        <pt x="218" y="126" on="0"/>
        <pt x="218" y="143" on="1"/>
        <pt x="218" y="156" on="0"/>
        <pt x="204" y="181" on="0"/>
        <pt x="186" y="181" on="1"/>
        <pt x="177" y="181" on="0"/>
        <pt x="162" y="171" on="0"/>
        <pt x="159" y="162" on="1"/>
        <pt x="151" y="170" on="0"/>
        <pt x="144" y="187" on="0"/>
        <pt x="144" y="201" on="1"/>
        <pt x="144" y="220" on="0"/>
        <pt x="157" y="235" on="1"/>
        <pt x="152" y="238" on="0"/>
        <pt x="130" y="259" on="0"/>
        <pt x="106" y="283" on="0"/>
        <pt x="85" y="304" on="0"/>
        <pt x="81" y="308" on="1"/>
        <pt x="49" y="341" on="0"/>
        <pt x="25" y="410" on="0"/>
        <pt x="25" y="432" on="1"/>
        <pt x="25" y="455" on="0"/>
        <pt x="38" y="493" on="0"/>
        <pt x="54" y="511" on="1"/>
        <pt x="68" y="527" on="0"/>
        <pt x="119" y="552" on="0"/>
        <pt x="151" y="552" on="1"/>
        <pt x="353" y="552" on="1"/>
        <pt x="353" y="452" on="1"/>
        <pt x="225" y="452" on="1"/>
        <pt x="214" y="452" on="0"/>
        <pt x="193" y="448" on="0"/>
        <pt x="183" y="438" on="1"/>
        <pt x="175" y="428" on="0"/>
        <pt x="175" y="416" on="1"/>
        <pt x="175" y="391" on="0"/>
        <pt x="217" y="356" on="0"/>
        <pt x="244" y="335" on="1"/>
        <pt x="258" y="342" on="0"/>
        <pt x="275" y="342" on="1"/>
        <pt x="304" y="342" on="0"/>
        <pt x="325" y="318" on="1"/>
        <pt x="313" y="318" on="0"/>
        <pt x="302" y="306" on="0"/>
        <pt x="302" y="298" on="1"/>
        <pt x="302" y="286" on="0"/>
        <pt x="314" y="274" on="1"/>
        <pt x="318" y="269" on="0"/>
        <pt x="338" y="246" on="0"/>
        <pt x="359" y="211" on="0"/>
        <pt x="374" y="167" on="0"/>
        <pt x="374" y="143" on="1"/>
        <pt x="374" y="110" on="0"/>
        <pt x="355" y="59" on="0"/>
        <pt x="339" y="41" on="1"/>
        <pt x="324" y="24" on="0"/>
        <pt x="278" y="0" on="0"/>
        <pt x="246" y="0" on="1"/>
        <pt x="39" y="0" on="1"/>
      </contour>
    </TTGlyph>
    <TTGlyph name="semicolon" xMin="35" yMin="-9" xMax="207" yMax="542">
      <contour>
        <pt x="120" y="102" on="1"/>
        <pt x="103" y="102" on="0"/>
        <pt x="71" y="112" on="0"/>
        <pt x="59" y="124" on="1"/>
        <pt x="35" y="148" on="0"/>
        <pt x="35" y="183" on="1"/>
        <pt x="35" y="199" on="0"/>
        <pt x="47" y="230" on="0"/>
        <pt x="59" y="242" on="1"/>
        <pt x="83" y="266" on="0"/>
        <pt x="118" y="266" on="1"/>
        <pt x="134" y="266" on="0"/>
        <pt x="165" y="254" on="0"/>
        <pt x="177" y="242" on="1"/>
        <pt x="193" y="226" on="0"/>
        <pt x="207" y="186" on="0"/>
        <pt x="207" y="166" on="1"/>
        <pt x="207" y="105" on="0"/>
        <pt x="133" y="11" on="0"/>
        <pt x="71" y="-9" on="1"/>
        <pt x="81" y="-3" on="1"/>
        <pt x="71" y="-9" on="1"/>
        <pt x="98" y="17" on="0"/>
        <pt x="130" y="68" on="0"/>
        <pt x="130" y="102" on="1"/>
      </contour>
      <contour>
        <pt x="59" y="400" on="1"/>
        <pt x="35" y="424" on="0"/>
        <pt x="35" y="459" on="1"/>
        <pt x="35" y="475" on="0"/>
        <pt x="47" y="506" on="0"/>
        <pt x="59" y="518" on="1"/>
        <pt x="83" y="542" on="0"/>
        <pt x="118" y="542" on="1"/>
        <pt x="134" y="542" on="0"/>
        <pt x="165" y="530" on="0"/>
        <pt x="177" y="518" on="1"/>
        <pt x="201" y="494" on="0"/>
        <pt x="201" y="459" on="1"/>
        <pt x="201" y="443" on="0"/>
        <pt x="189" y="412" on="0"/>
        <pt x="177" y="400" on="1"/>
        <pt x="153" y="376" on="0"/>
        <pt x="118" y="376" on="1"/>
        <pt x="102" y="376" on="0"/>
        <pt x="71" y="388" on="0"/>
      </contour>
    </TTGlyph>
    <TTGlyph name="seven" xMin="35" yMin="0" xMax="464" yMax="690">
      <contour>
        <pt x="269" y="176" on="1"/>
        <pt x="267" y="171" on="0"/>
        <pt x="263" y="155" on="0"/>
        <pt x="258" y="118" on="0"/>
        <pt x="255" y="54" on="0"/>
        <pt x="255" y="0" on="1"/>
        <pt x="101" y="0" on="1"/>
        <pt x="100" y="47" on="0"/>
        <pt x="103" y="91" on="1"/>
        <pt x="105" y="129" on="0"/>
        <pt x="115" y="209" on="0"/>
        <pt x="124" y="238" on="1"/>
        <pt x="125" y="240" on="0"/>
        <pt x="125" y="245" on="1"/>
        <pt x="125" y="256" on="0"/>
        <pt x="112" y="268" on="0"/>
        <pt x="102" y="268" on="1"/>
        <pt x="96" y="268" on="0"/>
        <pt x="94" y="267" on="1"/>
        <pt x="112" y="289" on="0"/>
        <pt x="137" y="289" on="1"/>
        <pt x="142" y="289" on="1"/>
        <pt x="163" y="363" on="0"/>
        <pt x="227" y="475" on="0"/>
        <pt x="256" y="513" on="1"/>
        <pt x="290" y="558" on="0"/>
        <pt x="327" y="590" on="1"/>
        <pt x="35" y="590" on="1"/>
        <pt x="35" y="690" on="1"/>
        <pt x="464" y="690" on="1"/>
        <pt x="464" y="564" on="1"/>
        <pt x="445" y="552" on="0"/>
        <pt x="391" y="489" on="0"/>
        <pt x="338" y="402" on="0"/>
        <pt x="293" y="297" on="0"/>
        <pt x="283" y="242" on="1"/>
        <pt x="308" y="226" on="0"/>
        <pt x="308" y="194" on="1"/>
        <pt x="308" y="191" on="0"/>
        <pt x="308" y="184" on="0"/>
        <pt x="307" y="181" on="1"/>
        <pt x="301" y="192" on="0"/>
        <pt x="288" y="192" on="1"/>
        <pt x="282" y="192" on="0"/>
        <pt x="271" y="184" on="0"/>
      </contour>
    </TTGlyph>
    <TTGlyph name="six" xMin="25" yMin="0" xMax="561" yMax="700">
      <contour>
        <pt x="61" y="553" on="1"/>
        <pt x="61" y="584" on="0"/>
        <pt x="82" y="639" on="0"/>
        <pt x="108" y="663" on="1"/>
        <pt x="131" y="683" on="0"/>
        <pt x="192" y="700" on="0"/>
        <pt x="243" y="700" on="1"/>
        <pt x="343" y="700" on="1"/>
        <pt x="394" y="700" on="0"/>
        <pt x="455" y="683" on="0"/>
        <pt x="478" y="663" on="1"/>
        <pt x="492" y="651" on="0"/>
        <pt x="510" y="621" on="0"/>
        <pt x="521" y="590" on="0"/>
        <pt x="525" y="562" on="0"/>
        <pt x="525" y="553" on="1"/>
        <pt x="525" y="505" on="1"/>
        <pt x="353" y="505" on="1"/>
        <pt x="353" y="550" on="1"/>
        <pt x="353" y="556" on="0"/>
        <pt x="350" y="578" on="0"/>
        <pt x="342" y="586" on="1"/>
        <pt x="334" y="594" on="0"/>
        <pt x="307" y="600" on="0"/>
        <pt x="293" y="600" on="1"/>
        <pt x="279" y="600" on="0"/>
        <pt x="252" y="594" on="0"/>
        <pt x="244" y="586" on="1"/>
        <pt x="236" y="578" on="0"/>
        <pt x="233" y="556" on="0"/>
        <pt x="233" y="550" on="1"/>
        <pt x="233" y="443" on="1"/>
        <pt x="391" y="443" on="1"/>
        <pt x="426" y="443" on="0"/>
        <pt x="473" y="432" on="0"/>
        <pt x="488" y="421" on="1"/>
        <pt x="512" y="404" on="0"/>
        <pt x="525" y="357" on="0"/>
        <pt x="525" y="330" on="1"/>
        <pt x="525" y="278" on="1"/>
        <pt x="539" y="272" on="0"/>
        <pt x="557" y="247" on="0"/>
        <pt x="561" y="233" on="1"/>
        <pt x="555" y="239" on="0"/>
        <pt x="546" y="239" on="1"/>
        <pt x="536" y="239" on="0"/>
        <pt x="525" y="227" on="0"/>
        <pt x="525" y="218" on="1"/>
        <pt x="525" y="150" on="1"/>
        <pt x="525" y="139" on="0"/>
        <pt x="521" y="111" on="0"/>
        <pt x="511" y="80" on="0"/>
        <pt x="493" y="49" on="0"/>
        <pt x="478" y="37" on="1"/>
        <pt x="455" y="17" on="0"/>
        <pt x="394" y="0" on="0"/>
        <pt x="343" y="0" on="1"/>
        <pt x="243" y="0" on="1"/>
        <pt x="192" y="0" on="0"/>
        <pt x="131" y="17" on="0"/>
        <pt x="108" y="37" on="1"/>
        <pt x="93" y="49" on="0"/>
        <pt x="75" y="80" on="0"/>
        <pt x="65" y="111" on="0"/>
        <pt x="61" y="139" on="0"/>
        <pt x="61" y="150" on="1"/>
        <pt x="61" y="218" on="1"/>
        <pt x="61" y="227" on="0"/>
        <pt x="50" y="239" on="0"/>
        <pt x="40" y="239" on="1"/>
        <pt x="31" y="239" on="0"/>
        <pt x="25" y="233" on="1"/>
        <pt x="28" y="247" on="0"/>
        <pt x="47" y="271" on="0"/>
        <pt x="61" y="278" on="1"/>
      </contour>
      <contour>
        <pt x="353" y="298" on="1"/>
        <pt x="353" y="322" on="0"/>
        <pt x="338" y="334" on="1"/>
        <pt x="326" y="343" on="0"/>
        <pt x="308" y="343" on="1"/>
        <pt x="233" y="343" on="1"/>
        <pt x="233" y="278" on="1"/>
        <pt x="247" y="272" on="0"/>
        <pt x="266" y="247" on="0"/>
        <pt x="269" y="233" on="1"/>
        <pt x="263" y="239" on="0"/>
        <pt x="254" y="239" on="1"/>
        <pt x="244" y="239" on="0"/>
        <pt x="233" y="227" on="0"/>
        <pt x="233" y="218" on="1"/>
        <pt x="233" y="150" on="1"/>
        <pt x="233" y="144" on="0"/>
        <pt x="236" y="122" on="0"/>
        <pt x="244" y="114" on="1"/>
        <pt x="252" y="106" on="0"/>
        <pt x="279" y="100" on="0"/>
        <pt x="293" y="100" on="1"/>
        <pt x="307" y="100" on="0"/>
        <pt x="334" y="106" on="0"/>
        <pt x="342" y="114" on="1"/>
        <pt x="350" y="122" on="0"/>
        <pt x="353" y="144" on="0"/>
        <pt x="353" y="150" on="1"/>
        <pt x="353" y="218" on="1"/>
        <pt x="353" y="227" on="0"/>
        <pt x="342" y="239" on="0"/>
        <pt x="332" y="239" on="1"/>
        <pt x="323" y="239" on="0"/>
        <pt x="317" y="233" on="1"/>
        <pt x="319" y="247" on="0"/>
        <pt x="339" y="272" on="0"/>
        <pt x="353" y="278" on="1"/>
      </contour>
    </TTGlyph>
    <TTGlyph name="slash" xMin="25" yMin="0" xMax="430" yMax="700">
      <contour>
        <pt x="151" y="325" on="1"/>
        <pt x="191" y="429" on="0"/>
        <pt x="224" y="512" on="1"/>
        <pt x="238" y="547" on="0"/>
        <pt x="263" y="615" on="0"/>
        <pt x="274" y="641" on="1"/>
        <pt x="286" y="672" on="0"/>
        <pt x="297" y="700" on="1"/>
        <pt x="430" y="700" on="1"/>
        <pt x="265" y="278" on="1"/>
        <pt x="277" y="263" on="0"/>
        <pt x="277" y="245" on="1"/>
        <pt x="277" y="238" on="1"/>
        <pt x="271" y="247" on="0"/>
        <pt x="261" y="247" on="1"/>
        <pt x="252" y="247" on="0"/>
        <pt x="248" y="237" on="1"/>
        <pt x="158" y="0" on="1"/>
        <pt x="25" y="0" on="1"/>
        <pt x="137" y="286" on="1"/>
        <pt x="137" y="288" on="1"/>
        <pt x="137" y="289" on="0"/>
        <pt x="138" y="290" on="0"/>
        <pt x="138" y="291" on="1"/>
        <pt x="138" y="297" on="0"/>
        <pt x="129" y="306" on="0"/>
        <pt x="121" y="306" on="1"/>
        <pt x="118" y="306" on="0"/>
        <pt x="116" y="305" on="1"/>
        <pt x="128" y="325" on="0"/>
      </contour>
    </TTGlyph>
    <TTGlyph name="t" xMin="25" yMin="0" xMax="380" yMax="700">
      <contour>
        <pt x="317" y="233" on="1"/>
        <pt x="311" y="239" on="0"/>
        <pt x="301" y="239" on="1"/>
        <pt x="292" y="239" on="0"/>
        <pt x="281" y="227" on="0"/>
        <pt x="281" y="218" on="1"/>
        <pt x="281" y="144" on="1"/>
        <pt x="281" y="134" on="0"/>
        <pt x="289" y="114" on="0"/>
        <pt x="297" y="107" on="1"/>
        <pt x="303" y="102" on="0"/>
        <pt x="316" y="100" on="0"/>
        <pt x="321" y="100" on="1"/>
        <pt x="380" y="100" on="1"/>
        <pt x="380" y="0" on="1"/>
        <pt x="254" y="0" on="1"/>
        <pt x="219" y="0" on="0"/>
        <pt x="171" y="14" on="0"/>
        <pt x="156" y="27" on="1"/>
        <pt x="130" y="49" on="0"/>
        <pt x="109" y="110" on="0"/>
        <pt x="109" y="140" on="1"/>
        <pt x="109" y="218" on="1"/>
        <pt x="109" y="227" on="0"/>
        <pt x="98" y="239" on="0"/>
        <pt x="89" y="239" on="1"/>
        <pt x="79" y="239" on="0"/>
        <pt x="73" y="233" on="1"/>
        <pt x="76" y="247" on="0"/>
        <pt x="95" y="272" on="0"/>
        <pt x="109" y="278" on="1"/>
        <pt x="109" y="452" on="1"/>
        <pt x="25" y="452" on="1"/>
        <pt x="25" y="552" on="1"/>
        <pt x="109" y="552" on="1"/>
        <pt x="109" y="700" on="1"/>
        <pt x="281" y="700" on="1"/>
        <pt x="281" y="552" on="1"/>
        <pt x="379" y="552" on="1"/>
        <pt x="379" y="452" on="1"/>
        <pt x="281" y="452" on="1"/>
        <pt x="281" y="278" on="1"/>
        <pt x="295" y="272" on="0"/>
        <pt x="314" y="247" on="0"/>
      </contour>
    </TTGlyph>
    <TTGlyph name="three" xMin="35" yMin="0" xMax="535" yMax="700">
      <contour>
        <pt x="327" y="297" on="1"/>
        <pt x="327" y="305" on="0"/>
        <pt x="324" y="321" on="0"/>
        <pt x="319" y="326" on="1"/>
        <pt x="307" y="343" on="0"/>
        <pt x="278" y="343" on="1"/>
        <pt x="197" y="343" on="1"/>
        <pt x="197" y="443" on="1"/>
        <pt x="274" y="443" on="1"/>
        <pt x="290" y="443" on="0"/>
        <pt x="311" y="450" on="0"/>
        <pt x="319" y="460" on="1"/>
        <pt x="327" y="471" on="0"/>
        <pt x="327" y="491" on="1"/>
        <pt x="327" y="550" on="1"/>
        <pt x="327" y="556" on="0"/>
        <pt x="324" y="578" on="0"/>
        <pt x="316" y="586" on="1"/>
        <pt x="308" y="594" on="0"/>
        <pt x="281" y="600" on="0"/>
        <pt x="267" y="600" on="1"/>
        <pt x="253" y="600" on="0"/>
        <pt x="226" y="594" on="0"/>
        <pt x="218" y="586" on="1"/>
        <pt x="210" y="578" on="0"/>
        <pt x="207" y="556" on="0"/>
        <pt x="207" y="550" on="1"/>
        <pt x="207" y="505" on="1"/>
        <pt x="35" y="505" on="1"/>
        <pt x="35" y="553" on="1"/>
        <pt x="35" y="563" on="0"/>
        <pt x="39" y="591" on="0"/>
        <pt x="50" y="621" on="0"/>
        <pt x="68" y="651" on="0"/>
        <pt x="82" y="663" on="1"/>
        <pt x="105" y="683" on="0"/>
        <pt x="166" y="700" on="0"/>
        <pt x="217" y="700" on="1"/>
        <pt x="317" y="700" on="1"/>
        <pt x="368" y="700" on="0"/>
        <pt x="429" y="683" on="0"/>
        <pt x="452" y="663" on="1"/>
        <pt x="467" y="651" on="0"/>
        <pt x="485" y="620" on="0"/>
        <pt x="495" y="589" on="0"/>
        <pt x="499" y="560" on="0"/>
        <pt x="499" y="550" on="1"/>
        <pt x="499" y="480" on="1"/>
        <pt x="499" y="469" on="0"/>
        <pt x="493" y="440" on="0"/>
        <pt x="482" y="427" on="1"/>
        <pt x="462" y="406" on="0"/>
        <pt x="422" y="394" on="0"/>
        <pt x="415" y="393" on="1"/>
        <pt x="420" y="392" on="0"/>
        <pt x="460" y="383" on="0"/>
        <pt x="481" y="360" on="1"/>
        <pt x="492" y="348" on="0"/>
        <pt x="499" y="321" on="0"/>
        <pt x="499" y="306" on="1"/>
        <pt x="499" y="278" on="1"/>
        <pt x="513" y="271" on="0"/>
        <pt x="532" y="248" on="0"/>
        <pt x="535" y="233" on="1"/>
        <pt x="529" y="239" on="0"/>
        <pt x="520" y="239" on="1"/>
        <pt x="510" y="239" on="0"/>
        <pt x="499" y="226" on="0"/>
        <pt x="499" y="216" on="1"/>
        <pt x="499" y="150" on="1"/>
        <pt x="499" y="139" on="0"/>
        <pt x="495" y="111" on="0"/>
        <pt x="485" y="80" on="0"/>
        <pt x="467" y="49" on="0"/>
        <pt x="452" y="37" on="1"/>
        <pt x="429" y="17" on="0"/>
        <pt x="368" y="0" on="0"/>
        <pt x="317" y="0" on="1"/>
        <pt x="217" y="0" on="1"/>
        <pt x="166" y="0" on="0"/>
        <pt x="105" y="17" on="0"/>
        <pt x="82" y="37" on="1"/>
        <pt x="53" y="62" on="0"/>
        <pt x="35" y="125" on="0"/>
        <pt x="35" y="150" on="1"/>
        <pt x="35" y="217" on="1"/>
        <pt x="207" y="217" on="1"/>
        <pt x="207" y="150" on="1"/>
        <pt x="207" y="144" on="0"/>
        <pt x="210" y="122" on="0"/>
        <pt x="218" y="114" on="1"/>
        <pt x="226" y="106" on="0"/>
        <pt x="253" y="100" on="0"/>
        <pt x="267" y="100" on="1"/>
        <pt x="281" y="100" on="0"/>
        <pt x="308" y="106" on="0"/>
        <pt x="316" y="114" on="1"/>
        <pt x="324" y="122" on="0"/>
        <pt x="327" y="144" on="0"/>
        <pt x="327" y="150" on="1"/>
        <pt x="327" y="218" on="1"/>
        <pt x="327" y="229" on="0"/>
        <pt x="313" y="239" on="0"/>
        <pt x="306" y="239" on="1"/>
        <pt x="297" y="239" on="0"/>
        <pt x="291" y="233" on="1"/>
        <pt x="294" y="248" on="0"/>
        <pt x="313" y="272" on="0"/>
        <pt x="327" y="278" on="1"/>
      </contour>
    </TTGlyph>
    <TTGlyph name="two" xMin="25" yMin="0" xMax="489" yMax="700">
      <contour>
        <pt x="257" y="600" on="1"/>
        <pt x="243" y="600" on="0"/>
        <pt x="216" y="594" on="0"/>
        <pt x="208" y="586" on="1"/>
        <pt x="200" y="578" on="0"/>
        <pt x="197" y="556" on="0"/>
        <pt x="197" y="550" on="1"/>
        <pt x="197" y="505" on="1"/>
        <pt x="25" y="505" on="1"/>
        <pt x="25" y="553" on="1"/>
        <pt x="25" y="563" on="0"/>
        <pt x="30" y="591" on="0"/>
        <pt x="40" y="621" on="0"/>
        <pt x="58" y="651" on="0"/>
        <pt x="72" y="663" on="1"/>
        <pt x="95" y="683" on="0"/>
        <pt x="156" y="700" on="0"/>
        <pt x="207" y="700" on="1"/>
        <pt x="307" y="700" on="1"/>
        <pt x="358" y="700" on="0"/>
        <pt x="419" y="683" on="0"/>
        <pt x="442" y="663" on="1"/>
        <pt x="465" y="640" on="0"/>
        <pt x="487" y="591" on="0"/>
        <pt x="489" y="563" on="1"/>
        <pt x="489" y="511" on="1"/>
        <pt x="489" y="487" on="0"/>
        <pt x="479" y="442" on="0"/>
        <pt x="455" y="398" on="0"/>
        <pt x="412" y="354" on="0"/>
        <pt x="379" y="331" on="1"/>
        <pt x="362" y="319" on="0"/>
        <pt x="317" y="287" on="0"/>
        <pt x="275" y="256" on="0"/>
        <pt x="242" y="230" on="0"/>
        <pt x="238" y="226" on="1"/>
        <pt x="245" y="218" on="0"/>
        <pt x="252" y="201" on="0"/>
        <pt x="252" y="189" on="1"/>
        <pt x="252" y="176" on="0"/>
        <pt x="243" y="157" on="0"/>
        <pt x="235" y="149" on="1"/>
        <pt x="235" y="154" on="0"/>
        <pt x="227" y="167" on="0"/>
        <pt x="216" y="167" on="1"/>
        <pt x="207" y="167" on="0"/>
        <pt x="197" y="153" on="0"/>
        <pt x="197" y="142" on="1"/>
        <pt x="197" y="100" on="1"/>
        <pt x="479" y="100" on="1"/>
        <pt x="479" y="0" on="1"/>
        <pt x="25" y="0" on="1"/>
        <pt x="25" y="131" on="1"/>
        <pt x="25" y="180" on="0"/>
        <pt x="53" y="246" on="0"/>
        <pt x="70" y="267" on="1"/>
        <pt x="75" y="274" on="0"/>
        <pt x="82" y="285" on="0"/>
        <pt x="82" y="291" on="1"/>
        <pt x="82" y="299" on="0"/>
        <pt x="71" y="310" on="0"/>
        <pt x="59" y="311" on="1"/>
        <pt x="80" y="335" on="0"/>
        <pt x="109" y="335" on="1"/>
        <pt x="123" y="335" on="0"/>
        <pt x="135" y="330" on="1"/>
        <pt x="161" y="350" on="0"/>
        <pt x="217" y="390" on="0"/>
        <pt x="244" y="408" on="1"/>
        <pt x="274" y="428" on="0"/>
        <pt x="317" y="468" on="0"/>
        <pt x="317" y="495" on="1"/>
        <pt x="317" y="550" on="1"/>
        <pt x="317" y="556" on="0"/>
        <pt x="314" y="578" on="0"/>
        <pt x="306" y="586" on="1"/>
        <pt x="298" y="594" on="0"/>
        <pt x="271" y="600" on="0"/>
      </contour>
    </TTGlyph>
</ttFont>
